<svg width="313" height="57" viewBox="0 0 313 57" fill="none" xmlns="http://www.w3.org/2000/svg">
<g filter="url(#filter0_d_20_420)">
<rect x="4" y="4" width="305" height="49" rx="24.5" fill="white"/>
<rect x="4.5" y="4.5" width="304" height="48" rx="24" stroke="#EBEBEB"/>
</g>
<path d="M39.552 29.744L37.752 25.08C37.6987 24.9413 37.6427 24.7813 37.584 24.6C37.5253 24.4133 37.4693 24.216 37.416 24.008C37.304 24.44 37.1893 24.8 37.072 25.088L35.272 29.744H39.552ZM42.784 34H41.584C41.4453 34 41.3333 33.9653 41.248 33.896C41.1627 33.8267 41.0987 33.7387 41.056 33.632L39.984 30.864H34.84L33.768 33.632C33.736 33.728 33.6747 33.8133 33.584 33.888C33.4933 33.9627 33.3813 34 33.248 34H32.048L36.632 22.536H38.2L42.784 34ZM44.1248 34V27.112L43.2288 27.008C43.1168 26.9813 43.0234 26.9413 42.9488 26.888C42.8794 26.8293 42.8448 26.7467 42.8448 26.64V26.056H44.1248V25.272C44.1248 24.808 44.1888 24.3973 44.3168 24.04C44.4501 23.6773 44.6368 23.3733 44.8768 23.128C45.1221 22.8773 45.4154 22.688 45.7568 22.56C46.0981 22.432 46.4821 22.368 46.9088 22.368C47.2714 22.368 47.6048 22.4213 47.9088 22.528L47.8768 23.24C47.8661 23.368 47.7941 23.4373 47.6608 23.448C47.5328 23.4587 47.3594 23.464 47.1408 23.464C46.8954 23.464 46.6714 23.496 46.4688 23.56C46.2714 23.624 46.1008 23.728 45.9568 23.872C45.8128 24.016 45.7008 24.2053 45.6208 24.44C45.5461 24.6747 45.5088 24.9653 45.5088 25.312V26.056H47.8448V27.088H45.5568V34H44.1248ZM50.5581 27.52C50.8141 26.9653 51.1288 26.5333 51.5021 26.224C51.8755 25.9093 52.3315 25.752 52.8701 25.752C53.0408 25.752 53.2035 25.7707 53.3581 25.808C53.5181 25.8453 53.6595 25.904 53.7821 25.984L53.6781 27.048C53.6461 27.1813 53.5661 27.248 53.4381 27.248C53.3635 27.248 53.2541 27.232 53.1101 27.2C52.9661 27.168 52.8035 27.152 52.6221 27.152C52.3661 27.152 52.1368 27.1893 51.9341 27.264C51.7368 27.3387 51.5581 27.4507 51.3981 27.6C51.2435 27.744 51.1021 27.9253 50.9741 28.144C50.8515 28.3573 50.7395 28.6027 50.6381 28.88V34H49.2061V25.896H50.0221C50.1768 25.896 50.2835 25.9253 50.3421 25.984C50.4008 26.0427 50.4408 26.144 50.4621 26.288L50.5581 27.52ZM56.5383 25.896V34H55.1143V25.896H56.5383ZM56.8423 23.352C56.8423 23.4907 56.8129 23.6213 56.7543 23.744C56.7009 23.8613 56.6263 23.968 56.5303 24.064C56.4396 24.1547 56.3303 24.2267 56.2023 24.28C56.0796 24.3333 55.9489 24.36 55.8103 24.36C55.6716 24.36 55.5409 24.3333 55.4183 24.28C55.3009 24.2267 55.1969 24.1547 55.1063 24.064C55.0156 23.968 54.9436 23.8613 54.8903 23.744C54.8369 23.6213 54.8103 23.4907 54.8103 23.352C54.8103 23.2133 54.8369 23.0827 54.8903 22.96C54.9436 22.832 55.0156 22.7227 55.1063 22.632C55.1969 22.536 55.3009 22.4613 55.4183 22.408C55.5409 22.3547 55.6716 22.328 55.8103 22.328C55.9489 22.328 56.0796 22.3547 56.2023 22.408C56.3303 22.4613 56.4396 22.536 56.5303 22.632C56.6263 22.7227 56.7009 22.832 56.7543 22.96C56.8129 23.0827 56.8423 23.2133 56.8423 23.352ZM64.518 27.336C64.4753 27.3947 64.4327 27.44 64.39 27.472C64.3473 27.504 64.2887 27.52 64.214 27.52C64.134 27.52 64.046 27.488 63.95 27.424C63.854 27.3547 63.734 27.28 63.59 27.2C63.4513 27.12 63.278 27.048 63.07 26.984C62.8673 26.9147 62.6167 26.88 62.318 26.88C61.918 26.88 61.566 26.952 61.262 27.096C60.958 27.2347 60.702 27.4373 60.494 27.704C60.2913 27.9707 60.1367 28.2933 60.03 28.672C59.9287 29.0507 59.878 29.4747 59.878 29.944C59.878 30.4347 59.934 30.872 60.046 31.256C60.158 31.6347 60.3153 31.9547 60.518 32.216C60.726 32.472 60.974 32.6693 61.262 32.808C61.5553 32.9413 61.8833 33.008 62.246 33.008C62.5927 33.008 62.878 32.968 63.102 32.888C63.326 32.8027 63.51 32.7093 63.654 32.608C63.8033 32.5067 63.926 32.416 64.022 32.336C64.1233 32.2507 64.222 32.208 64.318 32.208C64.4353 32.208 64.526 32.2533 64.59 32.344L64.99 32.864C64.814 33.0827 64.614 33.2693 64.39 33.424C64.166 33.5787 63.9233 33.7093 63.662 33.816C63.406 33.9173 63.1367 33.992 62.854 34.04C62.5713 34.088 62.2833 34.112 61.99 34.112C61.4833 34.112 61.0113 34.0187 60.574 33.832C60.142 33.6453 59.766 33.376 59.446 33.024C59.126 32.6667 58.8753 32.2293 58.694 31.712C58.5127 31.1947 58.422 30.6053 58.422 29.944C58.422 29.3413 58.5047 28.784 58.67 28.272C58.8407 27.76 59.086 27.32 59.406 26.952C59.7313 26.5787 60.1287 26.288 60.598 26.08C61.0727 25.872 61.6167 25.768 62.23 25.768C62.8007 25.768 63.302 25.8613 63.734 26.048C64.1713 26.2293 64.558 26.488 64.894 26.824L64.518 27.336ZM70.9106 30.352C70.2546 30.3733 69.6946 30.4267 69.2306 30.512C68.772 30.592 68.396 30.6987 68.1026 30.832C67.8146 30.9653 67.604 31.1227 67.4706 31.304C67.3426 31.4853 67.2786 31.688 67.2786 31.912C67.2786 32.1253 67.3133 32.3093 67.3826 32.464C67.452 32.6187 67.5453 32.7467 67.6626 32.848C67.7853 32.944 67.9266 33.016 68.0866 33.064C68.252 33.1067 68.428 33.128 68.6146 33.128C68.8653 33.128 69.0946 33.104 69.3026 33.056C69.5106 33.0027 69.7053 32.928 69.8866 32.832C70.0733 32.736 70.2493 32.6213 70.4146 32.488C70.5853 32.3547 70.7506 32.2027 70.9106 32.032V30.352ZM66.3106 27.04C66.7586 26.608 67.2413 26.2853 67.7586 26.072C68.276 25.8587 68.8493 25.752 69.4786 25.752C69.932 25.752 70.3346 25.8267 70.6866 25.976C71.0386 26.1253 71.3346 26.3333 71.5746 26.6C71.8146 26.8667 71.996 27.1893 72.1186 27.568C72.2413 27.9467 72.3026 28.3627 72.3026 28.816V34H71.6706C71.532 34 71.4253 33.9787 71.3506 33.936C71.276 33.888 71.2173 33.7973 71.1746 33.664L71.0146 32.896C70.8013 33.0933 70.5933 33.2693 70.3906 33.424C70.188 33.5733 69.9746 33.7013 69.7506 33.808C69.5266 33.9093 69.2866 33.9867 69.0306 34.04C68.78 34.0987 68.5 34.128 68.1906 34.128C67.876 34.128 67.58 34.0853 67.3026 34C67.0253 33.9093 66.7826 33.776 66.5746 33.6C66.372 33.424 66.2093 33.2027 66.0866 32.936C65.9693 32.664 65.9106 32.344 65.9106 31.976C65.9106 31.656 65.9986 31.3493 66.1746 31.056C66.3506 30.7573 66.636 30.4933 67.0306 30.264C67.4253 30.0347 67.94 29.848 68.5746 29.704C69.2093 29.5547 69.988 29.4693 70.9106 29.448V28.816C70.9106 28.1867 70.7746 27.712 70.5026 27.392C70.2306 27.0667 69.8333 26.904 69.3106 26.904C68.9586 26.904 68.6626 26.9493 68.4226 27.04C68.188 27.1253 67.9826 27.224 67.8066 27.336C67.636 27.4427 67.4866 27.5413 67.3586 27.632C67.236 27.7173 67.1133 27.76 66.9906 27.76C66.8946 27.76 66.812 27.736 66.7426 27.688C66.6733 27.6347 66.6146 27.5707 66.5666 27.496L66.3106 27.04ZM75.8158 27.072C75.9918 26.8747 76.1784 26.696 76.3758 26.536C76.5731 26.376 76.7811 26.24 76.9998 26.128C77.2238 26.0107 77.4584 25.9227 77.7038 25.864C77.9544 25.8 78.2238 25.768 78.5118 25.768C78.9544 25.768 79.3438 25.8427 79.6798 25.992C80.0211 26.136 80.3038 26.344 80.5278 26.616C80.7571 26.8827 80.9304 27.2053 81.0478 27.584C81.1651 27.9627 81.2238 28.3813 81.2238 28.84V34H79.7918V28.84C79.7918 28.2267 79.6504 27.752 79.3678 27.416C79.0904 27.0747 78.6664 26.904 78.0958 26.904C77.6744 26.904 77.2798 27.0053 76.9118 27.208C76.5491 27.4107 76.2131 27.6853 75.9038 28.032V34H74.4718V25.896H75.3278C75.5304 25.896 75.6558 25.9947 75.7038 26.192L75.8158 27.072ZM87.7856 30.352C87.1296 30.3733 86.5696 30.4267 86.1056 30.512C85.647 30.592 85.271 30.6987 84.9776 30.832C84.6896 30.9653 84.479 31.1227 84.3456 31.304C84.2176 31.4853 84.1536 31.688 84.1536 31.912C84.1536 32.1253 84.1883 32.3093 84.2576 32.464C84.327 32.6187 84.4203 32.7467 84.5376 32.848C84.6603 32.944 84.8016 33.016 84.9616 33.064C85.127 33.1067 85.303 33.128 85.4896 33.128C85.7403 33.128 85.9696 33.104 86.1776 33.056C86.3856 33.0027 86.5803 32.928 86.7616 32.832C86.9483 32.736 87.1243 32.6213 87.2896 32.488C87.4603 32.3547 87.6256 32.2027 87.7856 32.032V30.352ZM83.1856 27.04C83.6336 26.608 84.1163 26.2853 84.6336 26.072C85.151 25.8587 85.7243 25.752 86.3536 25.752C86.807 25.752 87.2096 25.8267 87.5616 25.976C87.9136 26.1253 88.2096 26.3333 88.4496 26.6C88.6896 26.8667 88.871 27.1893 88.9936 27.568C89.1163 27.9467 89.1776 28.3627 89.1776 28.816V34H88.5456C88.407 34 88.3003 33.9787 88.2256 33.936C88.151 33.888 88.0923 33.7973 88.0496 33.664L87.8896 32.896C87.6763 33.0933 87.4683 33.2693 87.2656 33.424C87.063 33.5733 86.8496 33.7013 86.6256 33.808C86.4016 33.9093 86.1616 33.9867 85.9056 34.04C85.655 34.0987 85.375 34.128 85.0656 34.128C84.751 34.128 84.455 34.0853 84.1776 34C83.9003 33.9093 83.6576 33.776 83.4496 33.6C83.247 33.424 83.0843 33.2027 82.9616 32.936C82.8443 32.664 82.7856 32.344 82.7856 31.976C82.7856 31.656 82.8736 31.3493 83.0496 31.056C83.2256 30.7573 83.511 30.4933 83.9056 30.264C84.3003 30.0347 84.815 29.848 85.4496 29.704C86.0843 29.5547 86.863 29.4693 87.7856 29.448V28.816C87.7856 28.1867 87.6496 27.712 87.3776 27.392C87.1056 27.0667 86.7083 26.904 86.1856 26.904C85.8336 26.904 85.5376 26.9493 85.2976 27.04C85.063 27.1253 84.8576 27.224 84.6816 27.336C84.511 27.4427 84.3616 27.5413 84.2336 27.632C84.111 27.7173 83.9883 27.76 83.8656 27.76C83.7696 27.76 83.687 27.736 83.6176 27.688C83.5483 27.6347 83.4896 27.5707 83.4416 27.496L83.1856 27.04Z" fill="#242E30"/>
<path d="M279.144 32.912V34H273V32.912H275.456V25.096C275.456 24.8613 275.464 24.624 275.48 24.384L273.44 26.136C273.371 26.1947 273.301 26.232 273.232 26.248C273.163 26.2587 273.099 26.2587 273.04 26.248C272.981 26.2373 272.925 26.216 272.872 26.184C272.824 26.152 272.787 26.1173 272.76 26.08L272.312 25.464L275.728 22.512H276.888V32.912H279.144Z" fill="#242E30"/>
<defs>
<filter id="filter0_d_20_420" x="0" y="0" width="313" height="57" filterUnits="userSpaceOnUse" color-interpolation-filters="sRGB">
<feFlood flood-opacity="0" result="BackgroundImageFix"/>
<feColorMatrix in="SourceAlpha" type="matrix" values="0 0 0 0 0 0 0 0 0 0 0 0 0 0 0 0 0 0 127 0" result="hardAlpha"/>
<feMorphology radius="1" operator="dilate" in="SourceAlpha" result="effect1_dropShadow_20_420"/>
<feOffset/>
<feGaussianBlur stdDeviation="1.5"/>
<feComposite in2="hardAlpha" operator="out"/>
<feColorMatrix type="matrix" values="0 0 0 0 0.937255 0 0 0 0 0.929412 0 0 0 0 0.917647 0 0 0 1 0"/>
<feBlend mode="normal" in2="BackgroundImageFix" result="effect1_dropShadow_20_420"/>
<feBlend mode="normal" in="SourceGraphic" in2="effect1_dropShadow_20_420" result="shape"/>
</filter>
</defs>
</svg>
