<svg width="313" height="57" viewBox="0 0 313 57" fill="none" xmlns="http://www.w3.org/2000/svg">
<g filter="url(#filter0_d_20_435)">
<rect x="4" y="4" width="305" height="49" rx="24.5" fill="white"/>
<rect x="4.5" y="4.5" width="304" height="48" rx="24" stroke="#EBEBEB"/>
</g>
<path d="M40.552 29.744L38.752 25.08C38.6987 24.9413 38.6427 24.7813 38.584 24.6C38.5253 24.4133 38.4693 24.216 38.416 24.008C38.304 24.44 38.1893 24.8 38.072 25.088L36.272 29.744H40.552ZM43.784 34H42.584C42.4453 34 42.3333 33.9653 42.248 33.896C42.1627 33.8267 42.0987 33.7387 42.056 33.632L40.984 30.864H35.84L34.768 33.632C34.736 33.728 34.6747 33.8133 34.584 33.888C34.4933 33.9627 34.3813 34 34.248 34H33.048L37.632 22.536H39.2L43.784 34ZM44.9249 34V25.896H45.7809C45.9835 25.896 46.1089 25.9947 46.1569 26.192L46.2609 27.024C46.5595 26.656 46.8955 26.3547 47.2689 26.12C47.6422 25.8853 48.0742 25.768 48.5649 25.768C49.1089 25.768 49.5489 25.92 49.8849 26.224C50.2262 26.528 50.4715 26.9387 50.6209 27.456C50.7382 27.1627 50.8875 26.9093 51.0689 26.696C51.2555 26.4827 51.4635 26.3067 51.6929 26.168C51.9222 26.0293 52.1649 25.928 52.4209 25.864C52.6822 25.8 52.9462 25.768 53.2129 25.768C53.6395 25.768 54.0182 25.8373 54.3489 25.976C54.6849 26.1093 54.9675 26.3067 55.1969 26.568C55.4315 26.8293 55.6102 27.152 55.7329 27.536C55.8555 27.9147 55.9169 28.3493 55.9169 28.84V34H54.4849V28.84C54.4849 28.2053 54.3462 27.7253 54.0689 27.4C53.7915 27.0693 53.3915 26.904 52.8689 26.904C52.6342 26.904 52.4102 26.9467 52.1969 27.032C51.9889 27.112 51.8049 27.232 51.6449 27.392C51.4849 27.552 51.3569 27.7547 51.2609 28C51.1702 28.24 51.1249 28.52 51.1249 28.84V34H49.6929V28.84C49.6929 28.1893 49.5622 27.704 49.3009 27.384C49.0395 27.064 48.6582 26.904 48.1569 26.904C47.8049 26.904 47.4795 27 47.1809 27.192C46.8822 27.3787 46.6075 27.6347 46.3569 27.96V34H44.9249ZM63.5051 29.064C63.5051 28.7333 63.4571 28.432 63.3611 28.16C63.2705 27.8827 63.1345 27.6453 62.9531 27.448C62.7771 27.2453 62.5611 27.0907 62.3051 26.984C62.0491 26.872 61.7585 26.816 61.4331 26.816C60.7505 26.816 60.2091 27.016 59.8091 27.416C59.4145 27.8107 59.1691 28.36 59.0731 29.064H63.5051ZM64.6571 32.864C64.4811 33.0773 64.2705 33.264 64.0251 33.424C63.7798 33.5787 63.5158 33.7067 63.2331 33.808C62.9558 33.9093 62.6678 33.984 62.3691 34.032C62.0705 34.0853 61.7745 34.112 61.4811 34.112C60.9211 34.112 60.4038 34.0187 59.9291 33.832C59.4598 33.64 59.0518 33.3627 58.7051 33C58.3638 32.632 58.0971 32.1787 57.9051 31.64C57.7131 31.1013 57.6171 30.4827 57.6171 29.784C57.6171 29.2187 57.7025 28.6907 57.8731 28.2C58.0491 27.7093 58.2998 27.2853 58.6251 26.928C58.9505 26.5653 59.3478 26.2827 59.8171 26.08C60.2865 25.872 60.8145 25.768 61.4011 25.768C61.8865 25.768 62.3345 25.8507 62.7451 26.016C63.1611 26.176 63.5185 26.4107 63.8171 26.72C64.1211 27.024 64.3585 27.4027 64.5291 27.856C64.6998 28.304 64.7851 28.816 64.7851 29.392C64.7851 29.616 64.7611 29.7653 64.7131 29.84C64.6651 29.9147 64.5745 29.952 64.4411 29.952H59.0251C59.0411 30.464 59.1105 30.9093 59.2331 31.288C59.3611 31.6667 59.5371 31.984 59.7611 32.24C59.9851 32.4907 60.2518 32.68 60.5611 32.808C60.8705 32.9307 61.2171 32.992 61.6011 32.992C61.9585 32.992 62.2651 32.952 62.5211 32.872C62.7825 32.7867 63.0065 32.696 63.1931 32.6C63.3798 32.504 63.5345 32.416 63.6571 32.336C63.7851 32.2507 63.8945 32.208 63.9851 32.208C64.1025 32.208 64.1931 32.2533 64.2571 32.344L64.6571 32.864ZM67.8863 27.52C68.1423 26.9653 68.4569 26.5333 68.8303 26.224C69.2036 25.9093 69.6596 25.752 70.1983 25.752C70.3689 25.752 70.5316 25.7707 70.6863 25.808C70.8463 25.8453 70.9876 25.904 71.1103 25.984L71.0063 27.048C70.9743 27.1813 70.8943 27.248 70.7663 27.248C70.6916 27.248 70.5823 27.232 70.4383 27.2C70.2943 27.168 70.1316 27.152 69.9503 27.152C69.6943 27.152 69.4649 27.1893 69.2623 27.264C69.0649 27.3387 68.8863 27.4507 68.7263 27.6C68.5716 27.744 68.4303 27.9253 68.3023 28.144C68.1796 28.3573 68.0676 28.6027 67.9663 28.88V34H66.5343V25.896H67.3503C67.5049 25.896 67.6116 25.9253 67.6703 25.984C67.7289 26.0427 67.7689 26.144 67.7903 26.288L67.8863 27.52ZM73.8664 25.896V34H72.4424V25.896H73.8664ZM74.1704 23.352C74.1704 23.4907 74.141 23.6213 74.0824 23.744C74.029 23.8613 73.9544 23.968 73.8584 24.064C73.7677 24.1547 73.6584 24.2267 73.5304 24.28C73.4077 24.3333 73.277 24.36 73.1384 24.36C72.9997 24.36 72.869 24.3333 72.7464 24.28C72.629 24.2267 72.525 24.1547 72.4344 24.064C72.3437 23.968 72.2717 23.8613 72.2184 23.744C72.165 23.6213 72.1384 23.4907 72.1384 23.352C72.1384 23.2133 72.165 23.0827 72.2184 22.96C72.2717 22.832 72.3437 22.7227 72.4344 22.632C72.525 22.536 72.629 22.4613 72.7464 22.408C72.869 22.3547 72.9997 22.328 73.1384 22.328C73.277 22.328 73.4077 22.3547 73.5304 22.408C73.6584 22.4613 73.7677 22.536 73.8584 22.632C73.9544 22.7227 74.029 22.832 74.0824 22.96C74.141 23.0827 74.1704 23.2133 74.1704 23.352ZM81.8461 27.336C81.8035 27.3947 81.7608 27.44 81.7181 27.472C81.6755 27.504 81.6168 27.52 81.5421 27.52C81.4621 27.52 81.3741 27.488 81.2781 27.424C81.1821 27.3547 81.0621 27.28 80.9181 27.2C80.7795 27.12 80.6061 27.048 80.3981 26.984C80.1955 26.9147 79.9448 26.88 79.6461 26.88C79.2461 26.88 78.8941 26.952 78.5901 27.096C78.2861 27.2347 78.0301 27.4373 77.8221 27.704C77.6195 27.9707 77.4648 28.2933 77.3581 28.672C77.2568 29.0507 77.2061 29.4747 77.2061 29.944C77.2061 30.4347 77.2621 30.872 77.3741 31.256C77.4861 31.6347 77.6435 31.9547 77.8461 32.216C78.0541 32.472 78.3021 32.6693 78.5901 32.808C78.8835 32.9413 79.2115 33.008 79.5741 33.008C79.9208 33.008 80.2061 32.968 80.4301 32.888C80.6541 32.8027 80.8381 32.7093 80.9821 32.608C81.1315 32.5067 81.2541 32.416 81.3501 32.336C81.4515 32.2507 81.5501 32.208 81.6461 32.208C81.7635 32.208 81.8541 32.2533 81.9181 32.344L82.3181 32.864C82.1421 33.0827 81.9421 33.2693 81.7181 33.424C81.4941 33.5787 81.2515 33.7093 80.9901 33.816C80.7341 33.9173 80.4648 33.992 80.1821 34.04C79.8995 34.088 79.6115 34.112 79.3181 34.112C78.8115 34.112 78.3395 34.0187 77.9021 33.832C77.4701 33.6453 77.0941 33.376 76.7741 33.024C76.4541 32.6667 76.2035 32.2293 76.0221 31.712C75.8408 31.1947 75.7501 30.6053 75.7501 29.944C75.7501 29.3413 75.8328 28.784 75.9981 28.272C76.1688 27.76 76.4141 27.32 76.7341 26.952C77.0595 26.5787 77.4568 26.288 77.9261 26.08C78.4008 25.872 78.9448 25.768 79.5581 25.768C80.1288 25.768 80.6301 25.8613 81.0621 26.048C81.4995 26.2293 81.8861 26.488 82.2221 26.824L81.8461 27.336ZM88.2388 30.352C87.5828 30.3733 87.0228 30.4267 86.5588 30.512C86.1001 30.592 85.7241 30.6987 85.4308 30.832C85.1428 30.9653 84.9321 31.1227 84.7988 31.304C84.6708 31.4853 84.6068 31.688 84.6068 31.912C84.6068 32.1253 84.6414 32.3093 84.7108 32.464C84.7801 32.6187 84.8734 32.7467 84.9908 32.848C85.1134 32.944 85.2548 33.016 85.4148 33.064C85.5801 33.1067 85.7561 33.128 85.9428 33.128C86.1934 33.128 86.4228 33.104 86.6308 33.056C86.8388 33.0027 87.0334 32.928 87.2148 32.832C87.4014 32.736 87.5774 32.6213 87.7428 32.488C87.9134 32.3547 88.0788 32.2027 88.2388 32.032V30.352ZM83.6388 27.04C84.0868 26.608 84.5694 26.2853 85.0868 26.072C85.6041 25.8587 86.1774 25.752 86.8068 25.752C87.2601 25.752 87.6628 25.8267 88.0148 25.976C88.3668 26.1253 88.6628 26.3333 88.9028 26.6C89.1428 26.8667 89.3241 27.1893 89.4468 27.568C89.5694 27.9467 89.6308 28.3627 89.6308 28.816V34H88.9988C88.8601 34 88.7534 33.9787 88.6788 33.936C88.6041 33.888 88.5454 33.7973 88.5028 33.664L88.3428 32.896C88.1294 33.0933 87.9214 33.2693 87.7188 33.424C87.5161 33.5733 87.3028 33.7013 87.0788 33.808C86.8548 33.9093 86.6148 33.9867 86.3588 34.04C86.1081 34.0987 85.8281 34.128 85.5188 34.128C85.2041 34.128 84.9081 34.0853 84.6308 34C84.3534 33.9093 84.1108 33.776 83.9028 33.6C83.7001 33.424 83.5374 33.2027 83.4148 32.936C83.2974 32.664 83.2388 32.344 83.2388 31.976C83.2388 31.656 83.3268 31.3493 83.5028 31.056C83.6788 30.7573 83.9641 30.4933 84.3588 30.264C84.7534 30.0347 85.2681 29.848 85.9028 29.704C86.5374 29.5547 87.3161 29.4693 88.2388 29.448V28.816C88.2388 28.1867 88.1028 27.712 87.8308 27.392C87.5588 27.0667 87.1614 26.904 86.6388 26.904C86.2868 26.904 85.9908 26.9493 85.7508 27.04C85.5161 27.1253 85.3108 27.224 85.1348 27.336C84.9641 27.4427 84.8148 27.5413 84.6868 27.632C84.5641 27.7173 84.4414 27.76 84.3188 27.76C84.2228 27.76 84.1401 27.736 84.0708 27.688C84.0014 27.6347 83.9428 27.5707 83.8947 27.496L83.6388 27.04ZM93.1439 27.072C93.3199 26.8747 93.5065 26.696 93.7039 26.536C93.9012 26.376 94.1092 26.24 94.3279 26.128C94.5519 26.0107 94.7865 25.9227 95.0319 25.864C95.2825 25.8 95.5519 25.768 95.8399 25.768C96.2825 25.768 96.6719 25.8427 97.0079 25.992C97.3492 26.136 97.6319 26.344 97.8559 26.616C98.0852 26.8827 98.2585 27.2053 98.3759 27.584C98.4932 27.9627 98.5519 28.3813 98.5519 28.84V34H97.1199V28.84C97.1199 28.2267 96.9785 27.752 96.6959 27.416C96.4185 27.0747 95.9945 26.904 95.4239 26.904C95.0025 26.904 94.6079 27.0053 94.2399 27.208C93.8772 27.4107 93.5412 27.6853 93.2319 28.032V34H91.7999V25.896H92.6559C92.8585 25.896 92.9839 25.9947 93.0319 26.192L93.1439 27.072ZM105.114 30.352C104.458 30.3733 103.898 30.4267 103.434 30.512C102.975 30.592 102.599 30.6987 102.306 30.832C102.018 30.9653 101.807 31.1227 101.674 31.304C101.546 31.4853 101.482 31.688 101.482 31.912C101.482 32.1253 101.516 32.3093 101.586 32.464C101.655 32.6187 101.748 32.7467 101.866 32.848C101.988 32.944 102.13 33.016 102.29 33.064C102.455 33.1067 102.631 33.128 102.818 33.128C103.068 33.128 103.298 33.104 103.506 33.056C103.714 33.0027 103.908 32.928 104.09 32.832C104.276 32.736 104.452 32.6213 104.618 32.488C104.788 32.3547 104.954 32.2027 105.114 32.032V30.352ZM100.514 27.04C100.962 26.608 101.444 26.2853 101.962 26.072C102.479 25.8587 103.052 25.752 103.682 25.752C104.135 25.752 104.538 25.8267 104.89 25.976C105.242 26.1253 105.538 26.3333 105.778 26.6C106.018 26.8667 106.199 27.1893 106.322 27.568C106.444 27.9467 106.506 28.3627 106.506 28.816V34H105.874C105.735 34 105.628 33.9787 105.554 33.936C105.479 33.888 105.42 33.7973 105.378 33.664L105.218 32.896C105.004 33.0933 104.796 33.2693 104.594 33.424C104.391 33.5733 104.178 33.7013 103.954 33.808C103.73 33.9093 103.49 33.9867 103.234 34.04C102.983 34.0987 102.703 34.128 102.394 34.128C102.079 34.128 101.783 34.0853 101.506 34C101.228 33.9093 100.986 33.776 100.778 33.6C100.575 33.424 100.412 33.2027 100.29 32.936C100.172 32.664 100.114 32.344 100.114 31.976C100.114 31.656 100.202 31.3493 100.378 31.056C100.554 30.7573 100.839 30.4933 101.234 30.264C101.628 30.0347 102.143 29.848 102.778 29.704C103.412 29.5547 104.191 29.4693 105.114 29.448V28.816C105.114 28.1867 104.978 27.712 104.706 27.392C104.434 27.0667 104.036 26.904 103.514 26.904C103.162 26.904 102.866 26.9493 102.626 27.04C102.391 27.1253 102.186 27.224 102.01 27.336C101.839 27.4427 101.69 27.5413 101.562 27.632C101.439 27.7173 101.316 27.76 101.194 27.76C101.098 27.76 101.015 27.736 100.946 27.688C100.876 27.6347 100.818 27.5707 100.77 27.496L100.514 27.04Z" fill="#242E30"/>
<path d="M266.84 29.864V25.136C266.84 24.9973 266.845 24.8453 266.856 24.68C266.867 24.5147 266.883 24.3467 266.904 24.176L262.728 29.864H266.84ZM269.824 29.864V30.68C269.824 30.7653 269.797 30.8373 269.744 30.896C269.696 30.9547 269.619 30.984 269.512 30.984H268.088V34H266.84V30.984H261.752C261.645 30.984 261.552 30.9547 261.472 30.896C261.397 30.832 261.349 30.7547 261.328 30.664L261.184 29.936L266.76 22.536H268.088V29.864H269.824ZM273.177 26.864C273.775 26.736 274.324 26.672 274.825 26.672C275.423 26.672 275.951 26.76 276.409 26.936C276.868 27.112 277.249 27.3547 277.553 27.664C277.863 27.9733 278.095 28.3387 278.249 28.76C278.409 29.1813 278.489 29.64 278.489 30.136C278.489 30.744 278.383 31.2933 278.169 31.784C277.961 32.2747 277.671 32.696 277.297 33.048C276.929 33.3947 276.495 33.6613 275.993 33.848C275.492 34.0347 274.951 34.128 274.369 34.128C274.033 34.128 273.711 34.0933 273.401 34.024C273.092 33.96 272.801 33.872 272.529 33.76C272.263 33.648 272.015 33.52 271.785 33.376C271.556 33.232 271.353 33.08 271.177 32.92L271.617 32.312C271.713 32.1733 271.839 32.104 271.993 32.104C272.1 32.104 272.22 32.1467 272.353 32.232C272.487 32.312 272.649 32.4027 272.841 32.504C273.033 32.6053 273.257 32.6987 273.513 32.784C273.775 32.864 274.084 32.904 274.441 32.904C274.841 32.904 275.201 32.84 275.521 32.712C275.841 32.584 276.116 32.4027 276.345 32.168C276.575 31.928 276.751 31.6427 276.873 31.312C276.996 30.9813 277.057 30.6107 277.057 30.2C277.057 29.8427 277.004 29.52 276.897 29.232C276.796 28.944 276.639 28.6987 276.425 28.496C276.217 28.2933 275.956 28.136 275.641 28.024C275.327 27.912 274.959 27.856 274.537 27.856C274.249 27.856 273.948 27.88 273.633 27.928C273.324 27.976 273.007 28.0533 272.681 28.16L271.785 27.896L272.705 22.536H278.137V23.16C278.137 23.3627 278.073 23.5307 277.945 23.664C277.823 23.792 277.609 23.856 277.305 23.856H273.705L273.177 26.864Z" fill="#242E30"/>
<defs>
<filter id="filter0_d_20_435" x="0" y="0" width="313" height="57" filterUnits="userSpaceOnUse" color-interpolation-filters="sRGB">
<feFlood flood-opacity="0" result="BackgroundImageFix"/>
<feColorMatrix in="SourceAlpha" type="matrix" values="0 0 0 0 0 0 0 0 0 0 0 0 0 0 0 0 0 0 127 0" result="hardAlpha"/>
<feMorphology radius="1" operator="dilate" in="SourceAlpha" result="effect1_dropShadow_20_435"/>
<feOffset/>
<feGaussianBlur stdDeviation="1.5"/>
<feComposite in2="hardAlpha" operator="out"/>
<feColorMatrix type="matrix" values="0 0 0 0 0.937255 0 0 0 0 0.929412 0 0 0 0 0.917647 0 0 0 1 0"/>
<feBlend mode="normal" in2="BackgroundImageFix" result="effect1_dropShadow_20_435"/>
<feBlend mode="normal" in="SourceGraphic" in2="effect1_dropShadow_20_435" result="shape"/>
</filter>
</defs>
</svg>
