<svg width="313" height="57" viewBox="0 0 313 57" fill="none" xmlns="http://www.w3.org/2000/svg">
<g filter="url(#filter0_d_20_449)">
<rect x="4" y="4" width="305" height="49" rx="24.5" fill="white"/>
<rect x="4.5" y="4.5" width="304" height="48" rx="24" stroke="#EBEBEB"/>
</g>
<path d="M39.552 29.744L37.752 25.08C37.6987 24.9413 37.6427 24.7813 37.584 24.6C37.5253 24.4133 37.4693 24.216 37.416 24.008C37.304 24.44 37.1893 24.8 37.072 25.088L35.272 29.744H39.552ZM42.784 34H41.584C41.4453 34 41.3333 33.9653 41.248 33.896C41.1627 33.8267 41.0987 33.7387 41.056 33.632L39.984 30.864H34.84L33.768 33.632C33.736 33.728 33.6747 33.8133 33.584 33.888C33.4933 33.9627 33.3813 34 33.248 34H32.048L36.632 22.536H38.2L42.784 34ZM40.44 19.184L37.832 21.472C37.752 21.5467 37.6747 21.592 37.6 21.608C37.5253 21.624 37.4347 21.632 37.328 21.632H36.304L38.152 19.44C38.2427 19.3227 38.3333 19.2507 38.424 19.224C38.52 19.1973 38.656 19.184 38.832 19.184H40.44ZM45.2769 27.52C45.5329 26.9653 45.8475 26.5333 46.2209 26.224C46.5942 25.9093 47.0502 25.752 47.5889 25.752C47.7595 25.752 47.9222 25.7707 48.0769 25.808C48.2369 25.8453 48.3782 25.904 48.5009 25.984L48.3969 27.048C48.3649 27.1813 48.2849 27.248 48.1569 27.248C48.0822 27.248 47.9729 27.232 47.8289 27.2C47.6849 27.168 47.5222 27.152 47.3409 27.152C47.0849 27.152 46.8555 27.1893 46.6529 27.264C46.4555 27.3387 46.2769 27.4507 46.1169 27.6C45.9622 27.744 45.8209 27.9253 45.6929 28.144C45.5702 28.3573 45.4582 28.6027 45.3569 28.88V34H43.9249V25.896H44.7409C44.8955 25.896 45.0022 25.9253 45.0609 25.984C45.1195 26.0427 45.1595 26.144 45.1809 26.288L45.2769 27.52ZM54.02 30.352C53.364 30.3733 52.804 30.4267 52.34 30.512C51.8813 30.592 51.5053 30.6987 51.212 30.832C50.924 30.9653 50.7133 31.1227 50.58 31.304C50.452 31.4853 50.388 31.688 50.388 31.912C50.388 32.1253 50.4227 32.3093 50.492 32.464C50.5613 32.6187 50.6547 32.7467 50.772 32.848C50.8947 32.944 51.036 33.016 51.196 33.064C51.3613 33.1067 51.5373 33.128 51.724 33.128C51.9747 33.128 52.204 33.104 52.412 33.056C52.62 33.0027 52.8147 32.928 52.996 32.832C53.1827 32.736 53.3587 32.6213 53.524 32.488C53.6947 32.3547 53.86 32.2027 54.02 32.032V30.352ZM49.42 27.04C49.868 26.608 50.3507 26.2853 50.868 26.072C51.3853 25.8587 51.9587 25.752 52.588 25.752C53.0413 25.752 53.444 25.8267 53.796 25.976C54.148 26.1253 54.444 26.3333 54.684 26.6C54.924 26.8667 55.1053 27.1893 55.228 27.568C55.3507 27.9467 55.412 28.3627 55.412 28.816V34H54.78C54.6413 34 54.5347 33.9787 54.46 33.936C54.3853 33.888 54.3267 33.7973 54.284 33.664L54.124 32.896C53.9107 33.0933 53.7027 33.2693 53.5 33.424C53.2973 33.5733 53.084 33.7013 52.86 33.808C52.636 33.9093 52.396 33.9867 52.14 34.04C51.8893 34.0987 51.6093 34.128 51.3 34.128C50.9853 34.128 50.6893 34.0853 50.412 34C50.1347 33.9093 49.892 33.776 49.684 33.6C49.4813 33.424 49.3187 33.2027 49.196 32.936C49.0787 32.664 49.02 32.344 49.02 31.976C49.02 31.656 49.108 31.3493 49.284 31.056C49.46 30.7573 49.7453 30.4933 50.14 30.264C50.5347 30.0347 51.0493 29.848 51.684 29.704C52.3187 29.5547 53.0973 29.4693 54.02 29.448V28.816C54.02 28.1867 53.884 27.712 53.612 27.392C53.34 27.0667 52.9427 26.904 52.42 26.904C52.068 26.904 51.772 26.9493 51.532 27.04C51.2973 27.1253 51.092 27.224 50.916 27.336C50.7453 27.4427 50.596 27.5413 50.468 27.632C50.3453 27.7173 50.2227 27.76 50.1 27.76C50.004 27.76 49.9213 27.736 49.852 27.688C49.7827 27.6347 49.724 27.5707 49.676 27.496L49.42 27.04ZM59.0131 32.048C59.2745 32.4 59.5598 32.648 59.8691 32.792C60.1838 32.936 60.5278 33.008 60.9011 33.008C61.6638 33.008 62.2478 32.7387 62.6531 32.2C63.0585 31.6613 63.2611 30.8587 63.2611 29.792C63.2611 28.8 63.0798 28.072 62.7171 27.608C62.3598 27.1387 61.8478 26.904 61.1811 26.904C60.7171 26.904 60.3118 27.0107 59.9651 27.224C59.6238 27.4373 59.3065 27.7387 59.0131 28.128V32.048ZM59.0131 27.064C59.3545 26.6693 59.7385 26.3547 60.1651 26.12C60.5971 25.8853 61.0931 25.768 61.6531 25.768C62.1278 25.768 62.5545 25.8587 62.9331 26.04C63.3171 26.2213 63.6425 26.4853 63.9091 26.832C64.1758 27.1733 64.3785 27.5893 64.5171 28.08C64.6611 28.5707 64.7331 29.1227 64.7331 29.736C64.7331 30.392 64.6531 30.9893 64.4931 31.528C64.3331 32.0667 64.1011 32.528 63.7971 32.912C63.4985 33.2907 63.1331 33.5867 62.7011 33.8C62.2691 34.008 61.7838 34.112 61.2451 34.112C60.7118 34.112 60.2611 34.0133 59.8931 33.816C59.5305 33.6133 59.2131 33.328 58.9411 32.96L58.8691 33.696C58.8265 33.8987 58.7038 34 58.5011 34H57.5811V22.216H59.0131V27.064ZM71.9583 29.064C71.9583 28.7333 71.9103 28.432 71.8143 28.16C71.7236 27.8827 71.5876 27.6453 71.4063 27.448C71.2303 27.2453 71.0143 27.0907 70.7583 26.984C70.5023 26.872 70.2116 26.816 69.8863 26.816C69.2036 26.816 68.6623 27.016 68.2623 27.416C67.8676 27.8107 67.6223 28.36 67.5263 29.064H71.9583ZM73.1103 32.864C72.9343 33.0773 72.7236 33.264 72.4783 33.424C72.2329 33.5787 71.9689 33.7067 71.6863 33.808C71.4089 33.9093 71.1209 33.984 70.8223 34.032C70.5236 34.0853 70.2276 34.112 69.9343 34.112C69.3743 34.112 68.8569 34.0187 68.3823 33.832C67.9129 33.64 67.5049 33.3627 67.1583 33C66.8169 32.632 66.5503 32.1787 66.3583 31.64C66.1663 31.1013 66.0703 30.4827 66.0703 29.784C66.0703 29.2187 66.1556 28.6907 66.3263 28.2C66.5023 27.7093 66.7529 27.2853 67.0783 26.928C67.4036 26.5653 67.8009 26.2827 68.2703 26.08C68.7396 25.872 69.2676 25.768 69.8543 25.768C70.3396 25.768 70.7876 25.8507 71.1983 26.016C71.6143 26.176 71.9716 26.4107 72.2703 26.72C72.5743 27.024 72.8116 27.4027 72.9823 27.856C73.1529 28.304 73.2383 28.816 73.2383 29.392C73.2383 29.616 73.2143 29.7653 73.1663 29.84C73.1183 29.9147 73.0276 29.952 72.8943 29.952H67.4783C67.4943 30.464 67.5636 30.9093 67.6863 31.288C67.8143 31.6667 67.9903 31.984 68.2143 32.24C68.4383 32.4907 68.7049 32.68 69.0143 32.808C69.3236 32.9307 69.6703 32.992 70.0543 32.992C70.4116 32.992 70.7183 32.952 70.9743 32.872C71.2356 32.7867 71.4596 32.696 71.6463 32.6C71.8329 32.504 71.9876 32.416 72.1103 32.336C72.2383 32.2507 72.3476 32.208 72.4383 32.208C72.5556 32.208 72.6463 32.2533 72.7103 32.344L73.1103 32.864Z" fill="#242E30"/>
<path d="M272.04 25.64C272.115 25.1173 272.259 24.656 272.472 24.256C272.685 23.8507 272.955 23.512 273.28 23.24C273.611 22.968 273.987 22.7627 274.408 22.624C274.835 22.48 275.293 22.408 275.784 22.408C276.269 22.408 276.717 22.4773 277.128 22.616C277.539 22.7547 277.891 22.952 278.184 23.208C278.483 23.464 278.715 23.7733 278.88 24.136C279.045 24.4987 279.128 24.9013 279.128 25.344C279.128 25.7067 279.08 26.032 278.984 26.32C278.893 26.6027 278.76 26.8507 278.584 27.064C278.413 27.2773 278.205 27.4587 277.96 27.608C277.715 27.7573 277.44 27.88 277.136 27.976C277.883 28.168 278.443 28.4987 278.816 28.968C279.195 29.432 279.384 30.0133 279.384 30.712C279.384 31.24 279.283 31.7147 279.08 32.136C278.883 32.5573 278.611 32.9173 278.264 33.216C277.917 33.5093 277.512 33.736 277.048 33.896C276.589 34.0507 276.096 34.128 275.568 34.128C274.96 34.128 274.44 34.0533 274.008 33.904C273.576 33.7493 273.211 33.5387 272.912 33.272C272.613 33.0053 272.368 32.6907 272.176 32.328C271.984 31.96 271.821 31.5627 271.688 31.136L272.304 30.88C272.464 30.8107 272.619 30.792 272.768 30.824C272.923 30.856 273.035 30.944 273.104 31.088C273.173 31.2373 273.259 31.416 273.36 31.624C273.467 31.832 273.611 32.032 273.792 32.224C273.973 32.416 274.203 32.5787 274.48 32.712C274.763 32.8453 275.12 32.912 275.552 32.912C275.952 32.912 276.301 32.848 276.6 32.72C276.904 32.5867 277.155 32.416 277.352 32.208C277.555 32 277.707 31.768 277.808 31.512C277.909 31.256 277.96 31.0027 277.96 30.752C277.96 30.4427 277.92 30.16 277.84 29.904C277.76 29.648 277.611 29.4267 277.392 29.24C277.173 29.0533 276.872 28.9067 276.488 28.8C276.109 28.6933 275.621 28.64 275.024 28.64V27.608C275.515 27.6027 275.931 27.5493 276.272 27.448C276.619 27.3467 276.899 27.208 277.112 27.032C277.331 26.856 277.488 26.6453 277.584 26.4C277.685 26.1547 277.736 25.8827 277.736 25.584C277.736 25.2533 277.683 24.9653 277.576 24.72C277.475 24.4747 277.333 24.272 277.152 24.112C276.971 23.952 276.755 23.832 276.504 23.752C276.259 23.672 275.992 23.632 275.704 23.632C275.416 23.632 275.147 23.6747 274.896 23.76C274.651 23.8453 274.432 23.9653 274.24 24.12C274.053 24.2693 273.896 24.448 273.768 24.656C273.64 24.864 273.549 25.0933 273.496 25.344C273.427 25.5307 273.339 25.656 273.232 25.72C273.131 25.7787 272.981 25.7947 272.784 25.768L272.04 25.64Z" fill="#242E30"/>
<defs>
<filter id="filter0_d_20_449" x="0" y="0" width="313" height="57" filterUnits="userSpaceOnUse" color-interpolation-filters="sRGB">
<feFlood flood-opacity="0" result="BackgroundImageFix"/>
<feColorMatrix in="SourceAlpha" type="matrix" values="0 0 0 0 0 0 0 0 0 0 0 0 0 0 0 0 0 0 127 0" result="hardAlpha"/>
<feMorphology radius="1" operator="dilate" in="SourceAlpha" result="effect1_dropShadow_20_449"/>
<feOffset/>
<feGaussianBlur stdDeviation="1.5"/>
<feComposite in2="hardAlpha" operator="out"/>
<feColorMatrix type="matrix" values="0 0 0 0 0.937255 0 0 0 0 0.929412 0 0 0 0 0.917647 0 0 0 1 0"/>
<feBlend mode="normal" in2="BackgroundImageFix" result="effect1_dropShadow_20_449"/>
<feBlend mode="normal" in="SourceGraphic" in2="effect1_dropShadow_20_449" result="shape"/>
</filter>
</defs>
</svg>
