<svg width="313" height="57" viewBox="0 0 313 57" fill="none" xmlns="http://www.w3.org/2000/svg">
<g filter="url(#filter0_d_20_456)">
<rect x="4" y="4" width="305" height="49" rx="24.5" fill="white"/>
<rect x="4.5" y="4.5" width="304" height="48" rx="24" stroke="#EBEBEB"/>
</g>
<path d="M39.552 29.744L37.752 25.08C37.6987 24.9413 37.6427 24.7813 37.584 24.6C37.5253 24.4133 37.4693 24.216 37.416 24.008C37.304 24.44 37.1893 24.8 37.072 25.088L35.272 29.744H39.552ZM42.784 34H41.584C41.4453 34 41.3333 33.9653 41.248 33.896C41.1627 33.8267 41.0987 33.7387 41.056 33.632L39.984 30.864H34.84L33.768 33.632C33.736 33.728 33.6747 33.8133 33.584 33.888C33.4933 33.9627 33.3813 34 33.248 34H32.048L36.632 22.536H38.2L42.784 34ZM45.2769 27.52C45.5329 26.9653 45.8475 26.5333 46.2209 26.224C46.5942 25.9093 47.0502 25.752 47.5889 25.752C47.7595 25.752 47.9222 25.7707 48.0769 25.808C48.2369 25.8453 48.3782 25.904 48.5009 25.984L48.3969 27.048C48.3649 27.1813 48.2849 27.248 48.1569 27.248C48.0822 27.248 47.9729 27.232 47.8289 27.2C47.6849 27.168 47.5222 27.152 47.3409 27.152C47.0849 27.152 46.8555 27.1893 46.6529 27.264C46.4555 27.3387 46.2769 27.4507 46.1169 27.6C45.9622 27.744 45.8209 27.9253 45.6929 28.144C45.5702 28.3573 45.4582 28.6027 45.3569 28.88V34H43.9249V25.896H44.7409C44.8955 25.896 45.0022 25.9253 45.0609 25.984C45.1195 26.0427 45.1595 26.144 45.1809 26.288L45.2769 27.52ZM52.3895 30.04C52.6775 30.04 52.9308 30 53.1495 29.92C53.3682 29.84 53.5522 29.728 53.7015 29.584C53.8508 29.44 53.9628 29.2693 54.0375 29.072C54.1122 28.8693 54.1495 28.648 54.1495 28.408C54.1495 27.912 53.9975 27.5173 53.6935 27.224C53.3948 26.9307 52.9602 26.784 52.3895 26.784C51.8135 26.784 51.3735 26.9307 51.0695 27.224C50.7708 27.5173 50.6215 27.912 50.6215 28.408C50.6215 28.648 50.6588 28.8693 50.7335 29.072C50.8135 29.2693 50.9282 29.44 51.0775 29.584C51.2268 29.728 51.4108 29.84 51.6295 29.92C51.8482 30 52.1015 30.04 52.3895 30.04ZM54.9575 34.44C54.9575 34.2427 54.9015 34.0827 54.7895 33.96C54.6775 33.8373 54.5255 33.7413 54.3335 33.672C54.1468 33.6027 53.9282 33.5547 53.6775 33.528C53.4268 33.496 53.1602 33.472 52.8775 33.456C52.6002 33.44 52.3175 33.424 52.0295 33.408C51.7415 33.392 51.4642 33.3653 51.1975 33.328C50.8988 33.4667 50.6535 33.6427 50.4615 33.856C50.2748 34.064 50.1815 34.3093 50.1815 34.592C50.1815 34.7733 50.2268 34.9413 50.3175 35.096C50.4135 35.256 50.5575 35.392 50.7495 35.504C50.9415 35.6213 51.1815 35.712 51.4695 35.776C51.7628 35.8453 52.1068 35.88 52.5015 35.88C52.8855 35.88 53.2295 35.8453 53.5335 35.776C53.8375 35.7067 54.0935 35.608 54.3015 35.48C54.5148 35.352 54.6775 35.2 54.7895 35.024C54.9015 34.848 54.9575 34.6533 54.9575 34.44ZM56.4055 26.216V26.744C56.4055 26.92 56.2935 27.032 56.0695 27.08L55.1495 27.2C55.3308 27.552 55.4215 27.9413 55.4215 28.368C55.4215 28.7627 55.3442 29.1227 55.1895 29.448C55.0402 29.768 54.8322 30.0427 54.5655 30.272C54.2988 30.5013 53.9788 30.6773 53.6055 30.8C53.2322 30.9227 52.8268 30.984 52.3895 30.984C52.0108 30.984 51.6535 30.9387 51.3175 30.848C51.1468 30.9547 51.0162 31.0693 50.9255 31.192C50.8348 31.3093 50.7895 31.4293 50.7895 31.552C50.7895 31.744 50.8668 31.8907 51.0215 31.992C51.1815 32.088 51.3895 32.1573 51.6455 32.2C51.9015 32.2427 52.1922 32.2693 52.5175 32.28C52.8482 32.2907 53.1842 32.3093 53.5255 32.336C53.8722 32.3573 54.2082 32.3973 54.5335 32.456C54.8642 32.5147 55.1575 32.6107 55.4135 32.744C55.6695 32.8773 55.8748 33.0613 56.0295 33.296C56.1895 33.5307 56.2695 33.8347 56.2695 34.208C56.2695 34.5547 56.1815 34.8907 56.0055 35.216C55.8348 35.5413 55.5868 35.8293 55.2615 36.08C54.9362 36.336 54.5362 36.5387 54.0615 36.688C53.5922 36.8427 53.0615 36.92 52.4695 36.92C51.8775 36.92 51.3602 36.8613 50.9175 36.744C50.4748 36.6267 50.1068 36.4693 49.8135 36.272C49.5202 36.0747 49.2988 35.8453 49.1495 35.584C49.0055 35.328 48.9335 35.0587 48.9335 34.776C48.9335 34.376 49.0588 34.0373 49.3095 33.76C49.5602 33.4827 49.9042 33.2613 50.3415 33.096C50.1015 32.9893 49.9095 32.848 49.7655 32.672C49.6268 32.4907 49.5575 32.248 49.5575 31.944C49.5575 31.8267 49.5788 31.7067 49.6215 31.584C49.6642 31.456 49.7282 31.3307 49.8135 31.208C49.9042 31.08 50.0135 30.96 50.1415 30.848C50.2695 30.736 50.4188 30.6373 50.5895 30.552C50.1895 30.328 49.8775 30.032 49.6535 29.664C49.4295 29.2907 49.3175 28.8587 49.3175 28.368C49.3175 27.9733 49.3922 27.616 49.5415 27.296C49.6962 26.9707 49.9095 26.696 50.1815 26.472C50.4535 26.2427 50.7762 26.0667 51.1495 25.944C51.5282 25.8213 51.9415 25.76 52.3895 25.76C52.7415 25.76 53.0695 25.8 53.3735 25.88C53.6775 25.9547 53.9548 26.0667 54.2055 26.216H56.4055ZM63.177 29.064C63.177 28.7333 63.129 28.432 63.033 28.16C62.9423 27.8827 62.8063 27.6453 62.625 27.448C62.449 27.2453 62.233 27.0907 61.977 26.984C61.721 26.872 61.4303 26.816 61.105 26.816C60.4223 26.816 59.881 27.016 59.481 27.416C59.0863 27.8107 58.841 28.36 58.745 29.064H63.177ZM64.329 32.864C64.153 33.0773 63.9423 33.264 63.697 33.424C63.4517 33.5787 63.1877 33.7067 62.905 33.808C62.6277 33.9093 62.3397 33.984 62.041 34.032C61.7423 34.0853 61.4463 34.112 61.153 34.112C60.593 34.112 60.0757 34.0187 59.601 33.832C59.1317 33.64 58.7237 33.3627 58.377 33C58.0357 32.632 57.769 32.1787 57.577 31.64C57.385 31.1013 57.289 30.4827 57.289 29.784C57.289 29.2187 57.3743 28.6907 57.545 28.2C57.721 27.7093 57.9717 27.2853 58.297 26.928C58.6223 26.5653 59.0197 26.2827 59.489 26.08C59.9583 25.872 60.4863 25.768 61.073 25.768C61.5583 25.768 62.0063 25.8507 62.417 26.016C62.833 26.176 63.1903 26.4107 63.489 26.72C63.793 27.024 64.0303 27.4027 64.201 27.856C64.3717 28.304 64.457 28.816 64.457 29.392C64.457 29.616 64.433 29.7653 64.385 29.84C64.337 29.9147 64.2463 29.952 64.113 29.952H58.697C58.713 30.464 58.7823 30.9093 58.905 31.288C59.033 31.6667 59.209 31.984 59.433 32.24C59.657 32.4907 59.9237 32.68 60.233 32.808C60.5423 32.9307 60.889 32.992 61.273 32.992C61.6303 32.992 61.937 32.952 62.193 32.872C62.4543 32.7867 62.6783 32.696 62.865 32.6C63.0517 32.504 63.2063 32.416 63.329 32.336C63.457 32.2507 63.5663 32.208 63.657 32.208C63.7743 32.208 63.865 32.2533 63.929 32.344L64.329 32.864ZM67.5501 27.072C67.7261 26.8747 67.9128 26.696 68.1101 26.536C68.3075 26.376 68.5155 26.24 68.7341 26.128C68.9581 26.0107 69.1928 25.9227 69.4381 25.864C69.6888 25.8 69.9581 25.768 70.2461 25.768C70.6888 25.768 71.0781 25.8427 71.4141 25.992C71.7555 26.136 72.0381 26.344 72.2621 26.616C72.4915 26.8827 72.6648 27.2053 72.7821 27.584C72.8995 27.9627 72.9581 28.3813 72.9581 28.84V34H71.5261V28.84C71.5261 28.2267 71.3848 27.752 71.1021 27.416C70.8248 27.0747 70.4008 26.904 69.8301 26.904C69.4088 26.904 69.0141 27.0053 68.6461 27.208C68.2835 27.4107 67.9475 27.6853 67.6381 28.032V34H66.2061V25.896H67.0621C67.2648 25.896 67.3901 25.9947 67.4381 26.192L67.5501 27.072ZM82.5386 34H81.1146V27.088H76.9386V31.952C76.9386 32.2933 77.0213 32.5467 77.1866 32.712C77.352 32.8773 77.5653 32.96 77.8266 32.96C77.976 32.96 78.104 32.9413 78.2106 32.904C78.3226 32.8613 78.4186 32.816 78.4986 32.768C78.5786 32.72 78.6453 32.6773 78.6986 32.64C78.7573 32.5973 78.808 32.576 78.8506 32.576C78.9253 32.576 78.992 32.6213 79.0506 32.712L79.4666 33.392C79.2213 33.6213 78.9253 33.8027 78.5786 33.936C78.232 34.064 77.8746 34.128 77.5066 34.128C76.8666 34.128 76.3733 33.9493 76.0266 33.592C75.6853 33.2347 75.5146 32.72 75.5146 32.048V27.088H74.5386C74.4533 27.088 74.3813 27.064 74.3226 27.016C74.264 26.9627 74.2346 26.8827 74.2346 26.776V26.208L75.5626 26.032L75.8906 23.536C75.9066 23.456 75.9413 23.392 75.9946 23.344C76.0533 23.2907 76.128 23.264 76.2186 23.264H76.9386V26.056H82.5386V34ZM82.8906 23.296C82.8906 23.4347 82.8613 23.5653 82.8026 23.688C82.7493 23.8053 82.6746 23.9093 82.5786 24C82.488 24.0907 82.3813 24.1627 82.2586 24.216C82.136 24.2693 82.0053 24.296 81.8666 24.296C81.728 24.296 81.5973 24.2693 81.4746 24.216C81.3573 24.1627 81.2533 24.0907 81.1626 24C81.072 23.9093 81 23.8053 80.9466 23.688C80.8933 23.5653 80.8666 23.4347 80.8666 23.296C80.8666 23.1573 80.8933 23.0267 80.9466 22.904C81 22.776 81.072 22.6667 81.1626 22.576C81.2533 22.48 81.3573 22.4053 81.4746 22.352C81.5973 22.2987 81.728 22.272 81.8666 22.272C82.0053 22.272 82.136 22.2987 82.2586 22.352C82.3813 22.4053 82.488 22.48 82.5786 22.576C82.6746 22.6667 82.7493 22.776 82.8026 22.904C82.8613 23.0267 82.8906 23.1573 82.8906 23.296ZM86.222 27.072C86.398 26.8747 86.5847 26.696 86.782 26.536C86.9793 26.376 87.1873 26.24 87.406 26.128C87.63 26.0107 87.8647 25.9227 88.11 25.864C88.3607 25.8 88.63 25.768 88.918 25.768C89.3607 25.768 89.75 25.8427 90.086 25.992C90.4273 26.136 90.71 26.344 90.934 26.616C91.1633 26.8827 91.3367 27.2053 91.454 27.584C91.5713 27.9627 91.63 28.3813 91.63 28.84V34H90.198V28.84C90.198 28.2267 90.0567 27.752 89.774 27.416C89.4967 27.0747 89.0727 26.904 88.502 26.904C88.0807 26.904 87.686 27.0053 87.318 27.208C86.9553 27.4107 86.6193 27.6853 86.31 28.032V34H84.878V25.896H85.734C85.9367 25.896 86.062 25.9947 86.11 26.192L86.222 27.072ZM98.1919 30.352C97.5359 30.3733 96.9759 30.4267 96.5119 30.512C96.0532 30.592 95.6772 30.6987 95.3839 30.832C95.0959 30.9653 94.8852 31.1227 94.7519 31.304C94.6239 31.4853 94.5599 31.688 94.5599 31.912C94.5599 32.1253 94.5945 32.3093 94.6639 32.464C94.7332 32.6187 94.8265 32.7467 94.9439 32.848C95.0665 32.944 95.2079 33.016 95.3679 33.064C95.5332 33.1067 95.7092 33.128 95.8959 33.128C96.1465 33.128 96.3759 33.104 96.5839 33.056C96.7919 33.0027 96.9865 32.928 97.1679 32.832C97.3545 32.736 97.5305 32.6213 97.6959 32.488C97.8665 32.3547 98.0319 32.2027 98.1919 32.032V30.352ZM93.5919 27.04C94.0399 26.608 94.5225 26.2853 95.0399 26.072C95.5572 25.8587 96.1305 25.752 96.7599 25.752C97.2132 25.752 97.6159 25.8267 97.9679 25.976C98.3199 26.1253 98.6159 26.3333 98.8559 26.6C99.0959 26.8667 99.2772 27.1893 99.3999 27.568C99.5225 27.9467 99.5839 28.3627 99.5839 28.816V34H98.9519C98.8132 34 98.7065 33.9787 98.6319 33.936C98.5572 33.888 98.4985 33.7973 98.4559 33.664L98.2959 32.896C98.0825 33.0933 97.8745 33.2693 97.6719 33.424C97.4692 33.5733 97.2559 33.7013 97.0319 33.808C96.8079 33.9093 96.5679 33.9867 96.3119 34.04C96.0612 34.0987 95.7812 34.128 95.4719 34.128C95.1572 34.128 94.8612 34.0853 94.5839 34C94.3065 33.9093 94.0639 33.776 93.8559 33.6C93.6532 33.424 93.4905 33.2027 93.3679 32.936C93.2505 32.664 93.1919 32.344 93.1919 31.976C93.1919 31.656 93.2799 31.3493 93.4559 31.056C93.6319 30.7573 93.9172 30.4933 94.3119 30.264C94.7065 30.0347 95.2212 29.848 95.8559 29.704C96.4905 29.5547 97.2692 29.4693 98.1919 29.448V28.816C98.1919 28.1867 98.0559 27.712 97.7839 27.392C97.5119 27.0667 97.1145 26.904 96.5919 26.904C96.2399 26.904 95.9439 26.9493 95.7039 27.04C95.4692 27.1253 95.2639 27.224 95.0879 27.336C94.9172 27.4427 94.7679 27.5413 94.6399 27.632C94.5172 27.7173 94.3945 27.76 94.2719 27.76C94.1759 27.76 94.0932 27.736 94.0239 27.688C93.9545 27.6347 93.8959 27.5707 93.8479 27.496L93.5919 27.04Z" fill="#242E30"/>
<path d="M275.64 32.992C276.013 32.992 276.347 32.9413 276.64 32.84C276.939 32.7333 277.189 32.5867 277.392 32.4C277.6 32.208 277.757 31.9813 277.864 31.72C277.976 31.4533 278.032 31.16 278.032 30.84C278.032 30.4453 277.965 30.1093 277.832 29.832C277.704 29.5493 277.528 29.32 277.304 29.144C277.085 28.968 276.832 28.84 276.544 28.76C276.256 28.6747 275.955 28.632 275.64 28.632C275.325 28.632 275.024 28.6747 274.736 28.76C274.448 28.84 274.192 28.968 273.968 29.144C273.749 29.32 273.573 29.5493 273.44 29.832C273.312 30.1093 273.248 30.4453 273.248 30.84C273.248 31.16 273.301 31.4533 273.408 31.72C273.52 31.9813 273.677 32.208 273.88 32.4C274.088 32.5867 274.339 32.7333 274.632 32.84C274.931 32.9413 275.267 32.992 275.64 32.992ZM275.64 23.512C275.299 23.512 274.997 23.5627 274.736 23.664C274.48 23.7653 274.264 23.904 274.088 24.08C273.917 24.256 273.787 24.4613 273.696 24.696C273.611 24.9307 273.568 25.1813 273.568 25.448C273.568 25.7093 273.605 25.9627 273.68 26.208C273.755 26.4533 273.875 26.672 274.04 26.864C274.205 27.0507 274.419 27.2027 274.68 27.32C274.947 27.432 275.267 27.488 275.64 27.488C276.013 27.488 276.331 27.432 276.592 27.32C276.859 27.2027 277.075 27.0507 277.24 26.864C277.405 26.672 277.525 26.4533 277.6 26.208C277.675 25.9627 277.712 25.7093 277.712 25.448C277.712 25.1813 277.667 24.9307 277.576 24.696C277.491 24.4613 277.36 24.256 277.184 24.08C277.013 23.904 276.797 23.7653 276.536 23.664C276.28 23.5627 275.981 23.512 275.64 23.512ZM277.28 28.024C277.995 28.2267 278.544 28.5653 278.928 29.04C279.312 29.5147 279.504 30.1227 279.504 30.864C279.504 31.3653 279.408 31.8187 279.216 32.224C279.029 32.624 278.765 32.9653 278.424 33.248C278.088 33.5307 277.683 33.7493 277.208 33.904C276.733 34.0533 276.211 34.128 275.64 34.128C275.069 34.128 274.547 34.0533 274.072 33.904C273.597 33.7493 273.189 33.5307 272.848 33.248C272.507 32.9653 272.243 32.624 272.056 32.224C271.869 31.8187 271.776 31.3653 271.776 30.864C271.776 30.1227 271.968 29.5147 272.352 29.04C272.736 28.5653 273.285 28.2267 274 28.024C273.397 27.8 272.941 27.4667 272.632 27.024C272.328 26.576 272.176 26.0427 272.176 25.424C272.176 25.0027 272.259 24.608 272.424 24.24C272.589 23.872 272.824 23.552 273.128 23.28C273.432 23.008 273.795 22.7947 274.216 22.64C274.643 22.4853 275.117 22.408 275.64 22.408C276.157 22.408 276.629 22.4853 277.056 22.64C277.483 22.7947 277.848 23.008 278.152 23.28C278.456 23.552 278.691 23.872 278.856 24.24C279.021 24.608 279.104 25.0027 279.104 25.424C279.104 26.0427 278.949 26.576 278.64 27.024C278.336 27.4667 277.883 27.8 277.28 28.024Z" fill="#242E30"/>
<defs>
<filter id="filter0_d_20_456" x="0" y="0" width="313" height="57" filterUnits="userSpaceOnUse" color-interpolation-filters="sRGB">
<feFlood flood-opacity="0" result="BackgroundImageFix"/>
<feColorMatrix in="SourceAlpha" type="matrix" values="0 0 0 0 0 0 0 0 0 0 0 0 0 0 0 0 0 0 127 0" result="hardAlpha"/>
<feMorphology radius="1" operator="dilate" in="SourceAlpha" result="effect1_dropShadow_20_456"/>
<feOffset/>
<feGaussianBlur stdDeviation="1.5"/>
<feComposite in2="hardAlpha" operator="out"/>
<feColorMatrix type="matrix" values="0 0 0 0 0.937255 0 0 0 0 0.929412 0 0 0 0 0.917647 0 0 0 1 0"/>
<feBlend mode="normal" in2="BackgroundImageFix" result="effect1_dropShadow_20_456"/>
<feBlend mode="normal" in="SourceGraphic" in2="effect1_dropShadow_20_456" result="shape"/>
</filter>
</defs>
</svg>
