<svg width="313" height="57" viewBox="0 0 313 57" fill="none" xmlns="http://www.w3.org/2000/svg">
<g filter="url(#filter0_d_20_463)">
<rect x="4" y="4" width="305" height="49" rx="24.5" fill="white"/>
<rect x="4.5" y="4.5" width="304" height="48" rx="24" stroke="#EBEBEB"/>
</g>
<path d="M37.488 32.768C37.9307 32.768 38.312 32.7173 38.632 32.616C38.952 32.5147 39.2133 32.3733 39.416 32.192C39.624 32.0053 39.776 31.7867 39.872 31.536C39.968 31.28 40.016 31 40.016 30.696C40.016 30.104 39.8053 29.6373 39.384 29.296C38.9627 28.9493 38.3307 28.776 37.488 28.776H35.008V32.768H37.488ZM35.008 23.76V27.672H37.056C37.4933 27.672 37.872 27.624 38.192 27.528C38.5173 27.432 38.784 27.2987 38.992 27.128C39.2053 26.9573 39.3627 26.752 39.464 26.512C39.5653 26.2667 39.616 26 39.616 25.712C39.616 25.0347 39.4133 24.5413 39.008 24.232C38.6027 23.9173 37.9733 23.76 37.12 23.76H35.008ZM37.12 22.536C37.824 22.536 38.4293 22.6053 38.936 22.744C39.448 22.8827 39.8667 23.08 40.192 23.336C40.5227 23.592 40.7653 23.9067 40.92 24.28C41.0747 24.648 41.152 25.064 41.152 25.528C41.152 25.8107 41.1067 26.0827 41.016 26.344C40.9307 26.6 40.8 26.84 40.624 27.064C40.448 27.288 40.224 27.4907 39.952 27.672C39.6853 27.848 39.3707 27.992 39.008 28.104C39.8507 28.264 40.4827 28.5653 40.904 29.008C41.3307 29.4453 41.544 30.0213 41.544 30.736C41.544 31.2213 41.4533 31.664 41.272 32.064C41.096 32.464 40.8347 32.808 40.488 33.096C40.1467 33.384 39.7253 33.608 39.224 33.768C38.7227 33.9227 38.152 34 37.512 34H33.464V22.536H37.12ZM47.8318 32.768C48.2744 32.768 48.6558 32.7173 48.9758 32.616C49.2958 32.5147 49.5571 32.3733 49.7598 32.192C49.9678 32.0053 50.1198 31.7867 50.2158 31.536C50.3118 31.28 50.3598 31 50.3598 30.696C50.3598 30.104 50.1491 29.6373 49.7278 29.296C49.3064 28.9493 48.6744 28.776 47.8318 28.776H45.3518V32.768H47.8318ZM45.3518 23.76V27.672H47.3998C47.8371 27.672 48.2158 27.624 48.5358 27.528C48.8611 27.432 49.1278 27.2987 49.3358 27.128C49.5491 26.9573 49.7064 26.752 49.8078 26.512C49.9091 26.2667 49.9598 26 49.9598 25.712C49.9598 25.0347 49.7571 24.5413 49.3518 24.232C48.9464 23.9173 48.3171 23.76 47.4638 23.76H45.3518ZM47.4638 22.536C48.1678 22.536 48.7731 22.6053 49.2798 22.744C49.7918 22.8827 50.2104 23.08 50.5358 23.336C50.8664 23.592 51.1091 23.9067 51.2638 24.28C51.4184 24.648 51.4958 25.064 51.4958 25.528C51.4958 25.8107 51.4504 26.0827 51.3598 26.344C51.2744 26.6 51.1438 26.84 50.9678 27.064C50.7918 27.288 50.5678 27.4907 50.2958 27.672C50.0291 27.848 49.7144 27.992 49.3518 28.104C50.1944 28.264 50.8264 28.5653 51.2478 29.008C51.6744 29.4453 51.8878 30.0213 51.8878 30.736C51.8878 31.2213 51.7971 31.664 51.6158 32.064C51.4398 32.464 51.1784 32.808 50.8318 33.096C50.4904 33.384 50.0691 33.608 49.5678 33.768C49.0664 33.9227 48.4958 34 47.8558 34H43.8078V22.536H47.4638ZM55.0315 28.272C55.0315 28.976 55.1275 29.608 55.3195 30.168C55.5115 30.7227 55.7835 31.1947 56.1355 31.584C56.4928 31.968 56.9222 32.264 57.4235 32.472C57.9248 32.6747 58.4822 32.776 59.0955 32.776C59.7142 32.776 60.2742 32.6747 60.7755 32.472C61.2768 32.264 61.7035 31.968 62.0555 31.584C62.4075 31.1947 62.6795 30.7227 62.8715 30.168C63.0635 29.608 63.1595 28.976 63.1595 28.272C63.1595 27.568 63.0635 26.936 62.8715 26.376C62.6795 25.816 62.4075 25.344 62.0555 24.96C61.7035 24.5707 61.2768 24.272 60.7755 24.064C60.2742 23.856 59.7142 23.752 59.0955 23.752C58.4822 23.752 57.9248 23.856 57.4235 24.064C56.9222 24.272 56.4928 24.5707 56.1355 24.96C55.7835 25.344 55.5115 25.816 55.3195 26.376C55.1275 26.936 55.0315 27.568 55.0315 28.272ZM65.2795 36.368H63.9995C63.8075 36.368 63.6368 36.3413 63.4875 36.288C63.3382 36.2347 63.2022 36.1413 63.0795 36.008L61.0715 33.816C60.4635 34.0187 59.8048 34.12 59.0955 34.12C58.2528 34.12 57.4848 33.9787 56.7915 33.696C56.0982 33.408 55.5035 33.0053 55.0075 32.488C54.5115 31.9707 54.1275 31.3547 53.8555 30.64C53.5835 29.92 53.4475 29.1307 53.4475 28.272C53.4475 27.4133 53.5835 26.6267 53.8555 25.912C54.1275 25.192 54.5115 24.5733 55.0075 24.056C55.5035 23.5333 56.0982 23.128 56.7915 22.84C57.4848 22.552 58.2528 22.408 59.0955 22.408C59.9382 22.408 60.7062 22.552 61.3995 22.84C62.0982 23.128 62.6955 23.5333 63.1915 24.056C63.6875 24.5733 64.0715 25.192 64.3435 25.912C64.6155 26.6267 64.7515 27.4133 64.7515 28.272C64.7515 28.8107 64.6955 29.3227 64.5835 29.808C64.4768 30.2933 64.3195 30.7467 64.1115 31.168C63.9035 31.584 63.6502 31.9627 63.3515 32.304C63.0528 32.6453 62.7168 32.9413 62.3435 33.192L65.2795 36.368Z" fill="#242E30"/>
<path d="M278.896 32.648C279.051 32.648 279.173 32.6933 279.264 32.784C279.355 32.8747 279.4 32.992 279.4 33.136V34H271.752V33.512C271.752 33.4107 271.773 33.3067 271.816 33.2C271.859 33.0933 271.925 32.9947 272.016 32.904L275.688 29.216C275.992 28.9067 276.269 28.6107 276.52 28.328C276.771 28.04 276.984 27.752 277.16 27.464C277.336 27.176 277.472 26.8853 277.568 26.592C277.664 26.2933 277.712 25.976 277.712 25.64C277.712 25.304 277.659 25.0107 277.552 24.76C277.445 24.504 277.299 24.2933 277.112 24.128C276.931 23.9627 276.715 23.84 276.464 23.76C276.213 23.6747 275.944 23.632 275.656 23.632C275.363 23.632 275.093 23.6747 274.848 23.76C274.603 23.8453 274.384 23.9653 274.192 24.12C274.005 24.2693 273.848 24.448 273.72 24.656C273.592 24.864 273.501 25.0933 273.448 25.344C273.384 25.5307 273.296 25.656 273.184 25.72C273.077 25.7787 272.925 25.7947 272.728 25.768L271.984 25.64C272.059 25.1173 272.203 24.656 272.416 24.256C272.635 23.8507 272.907 23.512 273.232 23.24C273.563 22.968 273.939 22.7627 274.36 22.624C274.781 22.48 275.237 22.408 275.728 22.408C276.213 22.408 276.667 22.48 277.088 22.624C277.509 22.768 277.875 22.9787 278.184 23.256C278.493 23.528 278.736 23.8613 278.912 24.256C279.088 24.6507 279.176 25.0987 279.176 25.6C279.176 26.0267 279.112 26.424 278.984 26.792C278.856 27.1547 278.683 27.5013 278.464 27.832C278.245 28.1627 277.992 28.4853 277.704 28.8C277.421 29.1147 277.12 29.432 276.8 29.752L273.776 32.84C273.989 32.7813 274.205 32.736 274.424 32.704C274.643 32.6667 274.853 32.648 275.056 32.648H278.896Z" fill="#242E30"/>
<defs>
<filter id="filter0_d_20_463" x="0" y="0" width="313" height="57" filterUnits="userSpaceOnUse" color-interpolation-filters="sRGB">
<feFlood flood-opacity="0" result="BackgroundImageFix"/>
<feColorMatrix in="SourceAlpha" type="matrix" values="0 0 0 0 0 0 0 0 0 0 0 0 0 0 0 0 0 0 127 0" result="hardAlpha"/>
<feMorphology radius="1" operator="dilate" in="SourceAlpha" result="effect1_dropShadow_20_463"/>
<feOffset/>
<feGaussianBlur stdDeviation="1.5"/>
<feComposite in2="hardAlpha" operator="out"/>
<feColorMatrix type="matrix" values="0 0 0 0 0.937255 0 0 0 0 0.929412 0 0 0 0 0.917647 0 0 0 1 0"/>
<feBlend mode="normal" in2="BackgroundImageFix" result="effect1_dropShadow_20_463"/>
<feBlend mode="normal" in="SourceGraphic" in2="effect1_dropShadow_20_463" result="shape"/>
</filter>
</defs>
</svg>
