<svg width="313" height="57" viewBox="0 0 313 57" fill="none" xmlns="http://www.w3.org/2000/svg">
<g filter="url(#filter0_d_20_484)">
<rect x="4" y="4" width="305" height="49" rx="24.5" fill="white"/>
<rect x="4.5" y="4.5" width="304" height="48" rx="24" stroke="#EBEBEB"/>
</g>
<path d="M41.512 31.632C41.5973 31.632 41.672 31.6667 41.736 31.736L42.352 32.4C41.8827 32.944 41.312 33.368 40.64 33.672C39.9733 33.976 39.1653 34.128 38.216 34.128C37.3947 34.128 36.648 33.9867 35.976 33.704C35.304 33.416 34.7307 33.016 34.256 32.504C33.7813 31.9867 33.4133 31.368 33.152 30.648C32.8907 29.928 32.76 29.136 32.76 28.272C32.76 27.408 32.896 26.616 33.168 25.896C33.44 25.176 33.8213 24.5573 34.312 24.04C34.808 23.5227 35.4 23.1227 36.088 22.84C36.776 22.552 37.536 22.408 38.368 22.408C39.184 22.408 39.904 22.5387 40.528 22.8C41.152 23.0613 41.7013 23.416 42.176 23.864L41.664 24.576C41.632 24.6293 41.5893 24.6747 41.536 24.712C41.488 24.744 41.4213 24.76 41.336 24.76C41.24 24.76 41.1227 24.7093 40.984 24.608C40.8453 24.5013 40.664 24.384 40.44 24.256C40.216 24.128 39.936 24.0133 39.6 23.912C39.264 23.8053 38.8507 23.752 38.36 23.752C37.768 23.752 37.2267 23.856 36.736 24.064C36.2453 24.2667 35.8213 24.5627 35.464 24.952C35.112 25.3413 34.8373 25.816 34.64 26.376C34.4427 26.936 34.344 27.568 34.344 28.272C34.344 28.9867 34.4453 29.624 34.648 30.184C34.856 30.744 35.136 31.2187 35.488 31.608C35.8453 31.992 36.264 32.2853 36.744 32.488C37.2293 32.6907 37.752 32.792 38.312 32.792C38.6533 32.792 38.96 32.7733 39.232 32.736C39.5093 32.6933 39.7627 32.6293 39.992 32.544C40.2267 32.4587 40.4427 32.352 40.64 32.224C40.8427 32.0907 41.0427 31.9333 41.24 31.752C41.3307 31.672 41.4213 31.632 41.512 31.632ZM45.2475 26.976C45.5942 26.608 45.9782 26.3147 46.3995 26.096C46.8208 25.8773 47.3062 25.768 47.8555 25.768C48.2982 25.768 48.6875 25.8427 49.0235 25.992C49.3648 26.136 49.6475 26.344 49.8715 26.616C50.1008 26.8827 50.2742 27.2053 50.3915 27.584C50.5088 27.9627 50.5675 28.3813 50.5675 28.84V34H49.1355V28.84C49.1355 28.2267 48.9942 27.752 48.7115 27.416C48.4342 27.0747 48.0102 26.904 47.4395 26.904C47.0182 26.904 46.6235 27.0053 46.2555 27.208C45.8928 27.4107 45.5568 27.6853 45.2475 28.032V34H43.8155V22.216H45.2475V26.976ZM54.2414 25.896V34H52.8174V25.896H54.2414ZM54.5454 23.352C54.5454 23.4907 54.516 23.6213 54.4574 23.744C54.404 23.8613 54.3294 23.968 54.2334 24.064C54.1427 24.1547 54.0334 24.2267 53.9054 24.28C53.7827 24.3333 53.652 24.36 53.5134 24.36C53.3747 24.36 53.244 24.3333 53.1214 24.28C53.004 24.2267 52.9 24.1547 52.8094 24.064C52.7187 23.968 52.6467 23.8613 52.5934 23.744C52.54 23.6213 52.5134 23.4907 52.5134 23.352C52.5134 23.2133 52.54 23.0827 52.5934 22.96C52.6467 22.832 52.7187 22.7227 52.8094 22.632C52.9 22.536 53.004 22.4613 53.1214 22.408C53.244 22.3547 53.3747 22.328 53.5134 22.328C53.652 22.328 53.7827 22.3547 53.9054 22.408C54.0334 22.4613 54.1427 22.536 54.2334 22.632C54.3294 22.7227 54.404 22.832 54.4574 22.96C54.516 23.0827 54.5454 23.2133 54.5454 23.352ZM57.9251 27.072C58.1011 26.8747 58.2878 26.696 58.4851 26.536C58.6825 26.376 58.8905 26.24 59.1091 26.128C59.3331 26.0107 59.5678 25.9227 59.8131 25.864C60.0638 25.8 60.3331 25.768 60.6211 25.768C61.0638 25.768 61.4531 25.8427 61.7891 25.992C62.1305 26.136 62.4131 26.344 62.6371 26.616C62.8665 26.8827 63.0398 27.2053 63.1571 27.584C63.2745 27.9627 63.3331 28.3813 63.3331 28.84V34H61.9011V28.84C61.9011 28.2267 61.7598 27.752 61.4771 27.416C61.1998 27.0747 60.7758 26.904 60.2051 26.904C59.7838 26.904 59.3891 27.0053 59.0211 27.208C58.6585 27.4107 58.3225 27.6853 58.0131 28.032V34H56.5811V25.896H57.4371C57.6398 25.896 57.7651 25.9947 57.8131 26.192L57.9251 27.072ZM69.895 30.352C69.239 30.3733 68.679 30.4267 68.215 30.512C67.7563 30.592 67.3803 30.6987 67.087 30.832C66.799 30.9653 66.5883 31.1227 66.455 31.304C66.327 31.4853 66.263 31.688 66.263 31.912C66.263 32.1253 66.2977 32.3093 66.367 32.464C66.4363 32.6187 66.5297 32.7467 66.647 32.848C66.7697 32.944 66.911 33.016 67.071 33.064C67.2363 33.1067 67.4123 33.128 67.599 33.128C67.8497 33.128 68.079 33.104 68.287 33.056C68.495 33.0027 68.6897 32.928 68.871 32.832C69.0577 32.736 69.2337 32.6213 69.399 32.488C69.5697 32.3547 69.735 32.2027 69.895 32.032V30.352ZM65.295 27.04C65.743 26.608 66.2257 26.2853 66.743 26.072C67.2603 25.8587 67.8337 25.752 68.463 25.752C68.9163 25.752 69.319 25.8267 69.671 25.976C70.023 26.1253 70.319 26.3333 70.559 26.6C70.799 26.8667 70.9803 27.1893 71.103 27.568C71.2257 27.9467 71.287 28.3627 71.287 28.816V34H70.655C70.5163 34 70.4097 33.9787 70.335 33.936C70.2603 33.888 70.2017 33.7973 70.159 33.664L69.999 32.896C69.7857 33.0933 69.5777 33.2693 69.375 33.424C69.1723 33.5733 68.959 33.7013 68.735 33.808C68.511 33.9093 68.271 33.9867 68.015 34.04C67.7643 34.0987 67.4843 34.128 67.175 34.128C66.8603 34.128 66.5643 34.0853 66.287 34C66.0097 33.9093 65.767 33.776 65.559 33.6C65.3563 33.424 65.1937 33.2027 65.071 32.936C64.9537 32.664 64.895 32.344 64.895 31.976C64.895 31.656 64.983 31.3493 65.159 31.056C65.335 30.7573 65.6203 30.4933 66.015 30.264C66.4097 30.0347 66.9243 29.848 67.559 29.704C68.1937 29.5547 68.9723 29.4693 69.895 29.448V28.816C69.895 28.1867 69.759 27.712 69.487 27.392C69.215 27.0667 68.8177 26.904 68.295 26.904C67.943 26.904 67.647 26.9493 67.407 27.04C67.1723 27.1253 66.967 27.224 66.791 27.336C66.6203 27.4427 66.471 27.5413 66.343 27.632C66.2203 27.7173 66.0977 27.76 65.975 27.76C65.879 27.76 65.7963 27.736 65.727 27.688C65.6577 27.6347 65.599 27.5707 65.551 27.496L65.295 27.04Z" fill="#242E30"/>
<path d="M270.144 32.912V34H264V32.912H266.456V25.096C266.456 24.8613 266.464 24.624 266.48 24.384L264.44 26.136C264.371 26.1947 264.301 26.232 264.232 26.248C264.163 26.2587 264.099 26.2587 264.04 26.248C263.981 26.2373 263.925 26.216 263.872 26.184C263.824 26.152 263.787 26.1173 263.76 26.08L263.312 25.464L266.728 22.512H267.888V32.912H270.144ZM279.177 32.648C279.332 32.648 279.455 32.6933 279.545 32.784C279.636 32.8747 279.681 32.992 279.681 33.136V34H272.033V33.512C272.033 33.4107 272.055 33.3067 272.097 33.2C272.14 33.0933 272.207 32.9947 272.297 32.904L275.969 29.216C276.273 28.9067 276.551 28.6107 276.801 28.328C277.052 28.04 277.265 27.752 277.441 27.464C277.617 27.176 277.753 26.8853 277.849 26.592C277.945 26.2933 277.993 25.976 277.993 25.64C277.993 25.304 277.94 25.0107 277.833 24.76C277.727 24.504 277.58 24.2933 277.393 24.128C277.212 23.9627 276.996 23.84 276.745 23.76C276.495 23.6747 276.225 23.632 275.937 23.632C275.644 23.632 275.375 23.6747 275.129 23.76C274.884 23.8453 274.665 23.9653 274.473 24.12C274.287 24.2693 274.129 24.448 274.001 24.656C273.873 24.864 273.783 25.0933 273.729 25.344C273.665 25.5307 273.577 25.656 273.465 25.72C273.359 25.7787 273.207 25.7947 273.009 25.768L272.265 25.64C272.34 25.1173 272.484 24.656 272.697 24.256C272.916 23.8507 273.188 23.512 273.513 23.24C273.844 22.968 274.22 22.7627 274.641 22.624C275.063 22.48 275.519 22.408 276.009 22.408C276.495 22.408 276.948 22.48 277.369 22.624C277.791 22.768 278.156 22.9787 278.465 23.256C278.775 23.528 279.017 23.8613 279.193 24.256C279.369 24.6507 279.457 25.0987 279.457 25.6C279.457 26.0267 279.393 26.424 279.265 26.792C279.137 27.1547 278.964 27.5013 278.745 27.832C278.527 28.1627 278.273 28.4853 277.985 28.8C277.703 29.1147 277.401 29.432 277.081 29.752L274.057 32.84C274.271 32.7813 274.487 32.736 274.705 32.704C274.924 32.6667 275.135 32.648 275.337 32.648H279.177Z" fill="#242E30"/>
<defs>
<filter id="filter0_d_20_484" x="0" y="0" width="313" height="57" filterUnits="userSpaceOnUse" color-interpolation-filters="sRGB">
<feFlood flood-opacity="0" result="BackgroundImageFix"/>
<feColorMatrix in="SourceAlpha" type="matrix" values="0 0 0 0 0 0 0 0 0 0 0 0 0 0 0 0 0 0 127 0" result="hardAlpha"/>
<feMorphology radius="1" operator="dilate" in="SourceAlpha" result="effect1_dropShadow_20_484"/>
<feOffset/>
<feGaussianBlur stdDeviation="1.5"/>
<feComposite in2="hardAlpha" operator="out"/>
<feColorMatrix type="matrix" values="0 0 0 0 0.937255 0 0 0 0 0.929412 0 0 0 0 0.917647 0 0 0 1 0"/>
<feBlend mode="normal" in2="BackgroundImageFix" result="effect1_dropShadow_20_484"/>
<feBlend mode="normal" in="SourceGraphic" in2="effect1_dropShadow_20_484" result="shape"/>
</filter>
</defs>
</svg>
