<svg width="313" height="57" viewBox="0 0 313 57" fill="none" xmlns="http://www.w3.org/2000/svg">
<g filter="url(#filter0_d_20_428)">
<rect x="4" y="4" width="305" height="49" rx="24.5" fill="white"/>
<rect x="4.5" y="4.5" width="304" height="48" rx="24" stroke="#EBEBEB"/>
</g>
<path d="M39.552 29.744L37.752 25.08C37.6987 24.9413 37.6427 24.7813 37.584 24.6C37.5253 24.4133 37.4693 24.216 37.416 24.008C37.304 24.44 37.1893 24.8 37.072 25.088L35.272 29.744H39.552ZM42.784 34H41.584C41.4453 34 41.3333 33.9653 41.248 33.896C41.1627 33.8267 41.0987 33.7387 41.056 33.632L39.984 30.864H34.84L33.768 33.632C33.736 33.728 33.6747 33.8133 33.584 33.888C33.4933 33.9627 33.3813 34 33.248 34H32.048L36.632 22.536H38.2L42.784 34ZM45.3969 22.216V34H43.9729V22.216H45.3969ZM50.1941 34.128C49.5541 34.128 49.0608 33.9493 48.7141 33.592C48.3728 33.2347 48.2021 32.72 48.2021 32.048V27.088H47.2261C47.1408 27.088 47.0688 27.064 47.0101 27.016C46.9515 26.9627 46.9221 26.8827 46.9221 26.776V26.208L48.2501 26.04L48.5781 23.536C48.5941 23.456 48.6288 23.392 48.6821 23.344C48.7408 23.2907 48.8155 23.264 48.9061 23.264H49.6261V26.056H51.9701V27.088H49.6261V31.952C49.6261 32.2933 49.7088 32.5467 49.8741 32.712C50.0395 32.8773 50.2528 32.96 50.5141 32.96C50.6635 32.96 50.7915 32.9413 50.8981 32.904C51.0101 32.8613 51.1061 32.816 51.1861 32.768C51.2661 32.72 51.3328 32.6773 51.3861 32.64C51.4448 32.5973 51.4955 32.576 51.5381 32.576C51.6128 32.576 51.6795 32.6213 51.7381 32.712L52.1541 33.392C51.9088 33.6213 51.6128 33.8027 51.2661 33.936C50.9195 34.064 50.5621 34.128 50.1941 34.128ZM57.8325 30.352C57.1765 30.3733 56.6165 30.4267 56.1525 30.512C55.6938 30.592 55.3178 30.6987 55.0245 30.832C54.7365 30.9653 54.5258 31.1227 54.3925 31.304C54.2645 31.4853 54.2005 31.688 54.2005 31.912C54.2005 32.1253 54.2352 32.3093 54.3045 32.464C54.3738 32.6187 54.4672 32.7467 54.5845 32.848C54.7072 32.944 54.8485 33.016 55.0085 33.064C55.1738 33.1067 55.3498 33.128 55.5365 33.128C55.7872 33.128 56.0165 33.104 56.2245 33.056C56.4325 33.0027 56.6272 32.928 56.8085 32.832C56.9952 32.736 57.1712 32.6213 57.3365 32.488C57.5072 32.3547 57.6725 32.2027 57.8325 32.032V30.352ZM53.2325 27.04C53.6805 26.608 54.1632 26.2853 54.6805 26.072C55.1978 25.8587 55.7712 25.752 56.4005 25.752C56.8538 25.752 57.2565 25.8267 57.6085 25.976C57.9605 26.1253 58.2565 26.3333 58.4965 26.6C58.7365 26.8667 58.9178 27.1893 59.0405 27.568C59.1632 27.9467 59.2245 28.3627 59.2245 28.816V34H58.5925C58.4538 34 58.3472 33.9787 58.2725 33.936C58.1978 33.888 58.1392 33.7973 58.0965 33.664L57.9365 32.896C57.7232 33.0933 57.5152 33.2693 57.3125 33.424C57.1098 33.5733 56.8965 33.7013 56.6725 33.808C56.4485 33.9093 56.2085 33.9867 55.9525 34.04C55.7018 34.0987 55.4218 34.128 55.1125 34.128C54.7978 34.128 54.5018 34.0853 54.2245 34C53.9472 33.9093 53.7045 33.776 53.4965 33.6C53.2938 33.424 53.1312 33.2027 53.0085 32.936C52.8912 32.664 52.8325 32.344 52.8325 31.976C52.8325 31.656 52.9205 31.3493 53.0965 31.056C53.2725 30.7573 53.5578 30.4933 53.9525 30.264C54.3472 30.0347 54.8618 29.848 55.4965 29.704C56.1312 29.5547 56.9098 29.4693 57.8325 29.448V28.816C57.8325 28.1867 57.6965 27.712 57.4245 27.392C57.1525 27.0667 56.7552 26.904 56.2325 26.904C55.8805 26.904 55.5845 26.9493 55.3445 27.04C55.1098 27.1253 54.9045 27.224 54.7285 27.336C54.5578 27.4427 54.4085 27.5413 54.2805 27.632C54.1578 27.7173 54.0352 27.76 53.9125 27.76C53.8165 27.76 53.7338 27.736 53.6645 27.688C53.5952 27.6347 53.5365 27.5707 53.4885 27.496L53.2325 27.04ZM71.1274 27.336C71.0847 27.3947 71.042 27.44 70.9994 27.472C70.9567 27.504 70.898 27.52 70.8234 27.52C70.7434 27.52 70.6554 27.488 70.5594 27.424C70.4634 27.3547 70.3434 27.28 70.1994 27.2C70.0607 27.12 69.8874 27.048 69.6794 26.984C69.4767 26.9147 69.226 26.88 68.9274 26.88C68.5274 26.88 68.1754 26.952 67.8714 27.096C67.5674 27.2347 67.3114 27.4373 67.1034 27.704C66.9007 27.9707 66.746 28.2933 66.6394 28.672C66.538 29.0507 66.4874 29.4747 66.4874 29.944C66.4874 30.4347 66.5434 30.872 66.6554 31.256C66.7674 31.6347 66.9247 31.9547 67.1274 32.216C67.3354 32.472 67.5834 32.6693 67.8714 32.808C68.1647 32.9413 68.4927 33.008 68.8554 33.008C69.202 33.008 69.4874 32.968 69.7114 32.888C69.9354 32.8027 70.1194 32.7093 70.2634 32.608C70.4127 32.5067 70.5354 32.416 70.6314 32.336C70.7327 32.2507 70.8314 32.208 70.9274 32.208C71.0447 32.208 71.1354 32.2533 71.1994 32.344L71.5994 32.864C71.4234 33.0827 71.2234 33.2693 70.9994 33.424C70.7754 33.5787 70.5327 33.7093 70.2714 33.816C70.0154 33.9173 69.746 33.992 69.4634 34.04C69.1807 34.088 68.8927 34.112 68.5994 34.112C68.0927 34.112 67.6207 34.0187 67.1834 33.832C66.7514 33.6453 66.3754 33.376 66.0554 33.024C65.7354 32.6667 65.4847 32.2293 65.3034 31.712C65.122 31.1947 65.0314 30.6053 65.0314 29.944C65.0314 29.3413 65.114 28.784 65.2794 28.272C65.45 27.76 65.6954 27.32 66.0154 26.952C66.3407 26.5787 66.738 26.288 67.2074 26.08C67.682 25.872 68.226 25.768 68.8394 25.768C69.41 25.768 69.9114 25.8613 70.3434 26.048C70.7807 26.2293 71.1674 26.488 71.5034 26.824L71.1274 27.336ZM76.4034 25.768C76.9954 25.768 77.5287 25.8667 78.0034 26.064C78.478 26.2613 78.8834 26.5413 79.2194 26.904C79.5554 27.2667 79.8114 27.7067 79.9874 28.224C80.1687 28.736 80.2594 29.3093 80.2594 29.944C80.2594 30.584 80.1687 31.16 79.9874 31.672C79.8114 32.184 79.5554 32.6213 79.2194 32.984C78.8834 33.3467 78.478 33.6267 78.0034 33.824C77.5287 34.016 76.9954 34.112 76.4034 34.112C75.806 34.112 75.2674 34.016 74.7874 33.824C74.3127 33.6267 73.9074 33.3467 73.5714 32.984C73.2354 32.6213 72.9767 32.184 72.7954 31.672C72.6194 31.16 72.5314 30.584 72.5314 29.944C72.5314 29.3093 72.6194 28.736 72.7954 28.224C72.9767 27.7067 73.2354 27.2667 73.5714 26.904C73.9074 26.5413 74.3127 26.2613 74.7874 26.064C75.2674 25.8667 75.806 25.768 76.4034 25.768ZM76.4034 33C77.2034 33 77.8007 32.7333 78.1954 32.2C78.59 31.6613 78.7874 30.912 78.7874 29.952C78.7874 28.9867 78.59 28.2347 78.1954 27.696C77.8007 27.1573 77.2034 26.888 76.4034 26.888C75.998 26.888 75.6434 26.9573 75.3394 27.096C75.0407 27.2347 74.79 27.4347 74.5874 27.696C74.39 27.9573 74.2407 28.28 74.1394 28.664C74.0434 29.0427 73.9954 29.472 73.9954 29.952C73.9954 30.912 74.1927 31.6613 74.5874 32.2C74.9874 32.7333 75.5927 33 76.4034 33ZM87.7055 27.336C87.6628 27.3947 87.6202 27.44 87.5775 27.472C87.5348 27.504 87.4762 27.52 87.4015 27.52C87.3215 27.52 87.2335 27.488 87.1375 27.424C87.0415 27.3547 86.9215 27.28 86.7775 27.2C86.6388 27.12 86.4655 27.048 86.2575 26.984C86.0548 26.9147 85.8042 26.88 85.5055 26.88C85.1055 26.88 84.7535 26.952 84.4495 27.096C84.1455 27.2347 83.8895 27.4373 83.6815 27.704C83.4788 27.9707 83.3242 28.2933 83.2175 28.672C83.1162 29.0507 83.0655 29.4747 83.0655 29.944C83.0655 30.4347 83.1215 30.872 83.2335 31.256C83.3455 31.6347 83.5028 31.9547 83.7055 32.216C83.9135 32.472 84.1615 32.6693 84.4495 32.808C84.7428 32.9413 85.0708 33.008 85.4335 33.008C85.7802 33.008 86.0655 32.968 86.2895 32.888C86.5135 32.8027 86.6975 32.7093 86.8415 32.608C86.9908 32.5067 87.1135 32.416 87.2095 32.336C87.3108 32.2507 87.4095 32.208 87.5055 32.208C87.6228 32.208 87.7135 32.2533 87.7775 32.344L88.1775 32.864C88.0015 33.0827 87.8015 33.2693 87.5775 33.424C87.3535 33.5787 87.1108 33.7093 86.8495 33.816C86.5935 33.9173 86.3242 33.992 86.0415 34.04C85.7588 34.088 85.4708 34.112 85.1775 34.112C84.6708 34.112 84.1988 34.0187 83.7615 33.832C83.3295 33.6453 82.9535 33.376 82.6335 33.024C82.3135 32.6667 82.0628 32.2293 81.8815 31.712C81.7002 31.1947 81.6095 30.6053 81.6095 29.944C81.6095 29.3413 81.6922 28.784 81.8575 28.272C82.0282 27.76 82.2735 27.32 82.5935 26.952C82.9188 26.5787 83.3162 26.288 83.7855 26.08C84.2602 25.872 84.8042 25.768 85.4175 25.768C85.9882 25.768 86.4895 25.8613 86.9215 26.048C87.3588 26.2293 87.7455 26.488 88.0815 26.824L87.7055 27.336ZM91.2101 25.896V34H89.7861V25.896H91.2101ZM91.5141 23.352C91.5141 23.4907 91.4848 23.6213 91.4261 23.744C91.3728 23.8613 91.2981 23.968 91.2021 24.064C91.1115 24.1547 91.0021 24.2267 90.8741 24.28C90.7515 24.3333 90.6208 24.36 90.4821 24.36C90.3435 24.36 90.2128 24.3333 90.0901 24.28C89.9728 24.2267 89.8688 24.1547 89.7781 24.064C89.6875 23.968 89.6155 23.8613 89.5621 23.744C89.5088 23.6213 89.4821 23.4907 89.4821 23.352C89.4821 23.2133 89.5088 23.0827 89.5621 22.96C89.6155 22.832 89.6875 22.7227 89.7781 22.632C89.8688 22.536 89.9728 22.4613 90.0901 22.408C90.2128 22.3547 90.3435 22.328 90.4821 22.328C90.6208 22.328 90.7515 22.3547 90.8741 22.408C91.0021 22.4613 91.1115 22.536 91.2021 22.632C91.2981 22.7227 91.3728 22.832 91.4261 22.96C91.4848 23.0827 91.5141 23.2133 91.5141 23.352ZM94.8939 27.072C95.0699 26.8747 95.2565 26.696 95.4539 26.536C95.6512 26.376 95.8592 26.24 96.0779 26.128C96.3019 26.0107 96.5365 25.9227 96.7819 25.864C97.0325 25.8 97.3019 25.768 97.5899 25.768C98.0325 25.768 98.4219 25.8427 98.7579 25.992C99.0992 26.136 99.3819 26.344 99.6059 26.616C99.8352 26.8827 100.009 27.2053 100.126 27.584C100.243 27.9627 100.302 28.3813 100.302 28.84V34H98.8699V28.84C98.8699 28.2267 98.7285 27.752 98.4459 27.416C98.1685 27.0747 97.7445 26.904 97.1739 26.904C96.7525 26.904 96.3579 27.0053 95.9899 27.208C95.6272 27.4107 95.2912 27.6853 94.9819 28.032V34H93.5499V25.896H94.4059C94.6085 25.896 94.7339 25.9947 94.7819 26.192L94.8939 27.072ZM106.864 30.352C106.208 30.3733 105.648 30.4267 105.184 30.512C104.725 30.592 104.349 30.6987 104.056 30.832C103.768 30.9653 103.557 31.1227 103.424 31.304C103.296 31.4853 103.232 31.688 103.232 31.912C103.232 32.1253 103.266 32.3093 103.336 32.464C103.405 32.6187 103.498 32.7467 103.616 32.848C103.738 32.944 103.88 33.016 104.04 33.064C104.205 33.1067 104.381 33.128 104.568 33.128C104.818 33.128 105.048 33.104 105.256 33.056C105.464 33.0027 105.658 32.928 105.84 32.832C106.026 32.736 106.202 32.6213 106.368 32.488C106.538 32.3547 106.704 32.2027 106.864 32.032V30.352ZM102.264 27.04C102.712 26.608 103.194 26.2853 103.712 26.072C104.229 25.8587 104.802 25.752 105.432 25.752C105.885 25.752 106.288 25.8267 106.64 25.976C106.992 26.1253 107.288 26.3333 107.528 26.6C107.768 26.8667 107.949 27.1893 108.072 27.568C108.194 27.9467 108.256 28.3627 108.256 28.816V34H107.624C107.485 34 107.378 33.9787 107.304 33.936C107.229 33.888 107.17 33.7973 107.128 33.664L106.968 32.896C106.754 33.0933 106.546 33.2693 106.344 33.424C106.141 33.5733 105.928 33.7013 105.704 33.808C105.48 33.9093 105.24 33.9867 104.984 34.04C104.733 34.0987 104.453 34.128 104.144 34.128C103.829 34.128 103.533 34.0853 103.256 34C102.978 33.9093 102.736 33.776 102.528 33.6C102.325 33.424 102.162 33.2027 102.04 32.936C101.922 32.664 101.864 32.344 101.864 31.976C101.864 31.656 101.952 31.3493 102.128 31.056C102.304 30.7573 102.589 30.4933 102.984 30.264C103.378 30.0347 103.893 29.848 104.528 29.704C105.162 29.5547 105.941 29.4693 106.864 29.448V28.816C106.864 28.1867 106.728 27.712 106.456 27.392C106.184 27.0667 105.786 26.904 105.264 26.904C104.912 26.904 104.616 26.9493 104.376 27.04C104.141 27.1253 103.936 27.224 103.76 27.336C103.589 27.4427 103.44 27.5413 103.312 27.632C103.189 27.7173 103.066 27.76 102.944 27.76C102.848 27.76 102.765 27.736 102.696 27.688C102.626 27.6347 102.568 27.5707 102.52 27.496L102.264 27.04Z" fill="#242E30"/>
<path d="M273.896 26.864C274.493 26.736 275.043 26.672 275.544 26.672C276.141 26.672 276.669 26.76 277.128 26.936C277.587 27.112 277.968 27.3547 278.272 27.664C278.581 27.9733 278.813 28.3387 278.968 28.76C279.128 29.1813 279.208 29.64 279.208 30.136C279.208 30.744 279.101 31.2933 278.888 31.784C278.68 32.2747 278.389 32.696 278.016 33.048C277.648 33.3947 277.213 33.6613 276.712 33.848C276.211 34.0347 275.669 34.128 275.088 34.128C274.752 34.128 274.429 34.0933 274.12 34.024C273.811 33.96 273.52 33.872 273.248 33.76C272.981 33.648 272.733 33.52 272.504 33.376C272.275 33.232 272.072 33.08 271.896 32.92L272.336 32.312C272.432 32.1733 272.557 32.104 272.712 32.104C272.819 32.104 272.939 32.1467 273.072 32.232C273.205 32.312 273.368 32.4027 273.56 32.504C273.752 32.6053 273.976 32.6987 274.232 32.784C274.493 32.864 274.803 32.904 275.16 32.904C275.56 32.904 275.92 32.84 276.24 32.712C276.56 32.584 276.835 32.4027 277.064 32.168C277.293 31.928 277.469 31.6427 277.592 31.312C277.715 30.9813 277.776 30.6107 277.776 30.2C277.776 29.8427 277.723 29.52 277.616 29.232C277.515 28.944 277.357 28.6987 277.144 28.496C276.936 28.2933 276.675 28.136 276.36 28.024C276.045 27.912 275.677 27.856 275.256 27.856C274.968 27.856 274.667 27.88 274.352 27.928C274.043 27.976 273.725 28.0533 273.4 28.16L272.504 27.896L273.424 22.536H278.856V23.16C278.856 23.3627 278.792 23.5307 278.664 23.664C278.541 23.792 278.328 23.856 278.024 23.856H274.424L273.896 26.864Z" fill="#242E30"/>
<defs>
<filter id="filter0_d_20_428" x="0" y="0" width="313" height="57" filterUnits="userSpaceOnUse" color-interpolation-filters="sRGB">
<feFlood flood-opacity="0" result="BackgroundImageFix"/>
<feColorMatrix in="SourceAlpha" type="matrix" values="0 0 0 0 0 0 0 0 0 0 0 0 0 0 0 0 0 0 127 0" result="hardAlpha"/>
<feMorphology radius="1" operator="dilate" in="SourceAlpha" result="effect1_dropShadow_20_428"/>
<feOffset/>
<feGaussianBlur stdDeviation="1.5"/>
<feComposite in2="hardAlpha" operator="out"/>
<feColorMatrix type="matrix" values="0 0 0 0 0.937255 0 0 0 0 0.929412 0 0 0 0 0.917647 0 0 0 1 0"/>
<feBlend mode="normal" in2="BackgroundImageFix" result="effect1_dropShadow_20_428"/>
<feBlend mode="normal" in="SourceGraphic" in2="effect1_dropShadow_20_428" result="shape"/>
</filter>
</defs>
</svg>
