<svg width="313" height="57" viewBox="0 0 313 57" fill="none" xmlns="http://www.w3.org/2000/svg">
<g filter="url(#filter0_d_20_477)">
<rect x="4" y="4" width="305" height="49" rx="24.5" fill="white"/>
<rect x="4.5" y="4.5" width="304" height="48" rx="24" stroke="#EBEBEB"/>
</g>
<path d="M41.512 31.632C41.5973 31.632 41.672 31.6667 41.736 31.736L42.352 32.4C41.8827 32.944 41.312 33.368 40.64 33.672C39.9733 33.976 39.1653 34.128 38.216 34.128C37.3947 34.128 36.648 33.9867 35.976 33.704C35.304 33.416 34.7307 33.016 34.256 32.504C33.7813 31.9867 33.4133 31.368 33.152 30.648C32.8907 29.928 32.76 29.136 32.76 28.272C32.76 27.408 32.896 26.616 33.168 25.896C33.44 25.176 33.8213 24.5573 34.312 24.04C34.808 23.5227 35.4 23.1227 36.088 22.84C36.776 22.552 37.536 22.408 38.368 22.408C39.184 22.408 39.904 22.5387 40.528 22.8C41.152 23.0613 41.7013 23.416 42.176 23.864L41.664 24.576C41.632 24.6293 41.5893 24.6747 41.536 24.712C41.488 24.744 41.4213 24.76 41.336 24.76C41.24 24.76 41.1227 24.7093 40.984 24.608C40.8453 24.5013 40.664 24.384 40.44 24.256C40.216 24.128 39.936 24.0133 39.6 23.912C39.264 23.8053 38.8507 23.752 38.36 23.752C37.768 23.752 37.2267 23.856 36.736 24.064C36.2453 24.2667 35.8213 24.5627 35.464 24.952C35.112 25.3413 34.8373 25.816 34.64 26.376C34.4427 26.936 34.344 27.568 34.344 28.272C34.344 28.9867 34.4453 29.624 34.648 30.184C34.856 30.744 35.136 31.2187 35.488 31.608C35.8453 31.992 36.264 32.2853 36.744 32.488C37.2293 32.6907 37.752 32.792 38.312 32.792C38.6533 32.792 38.96 32.7733 39.232 32.736C39.5093 32.6933 39.7627 32.6293 39.992 32.544C40.2267 32.4587 40.4427 32.352 40.64 32.224C40.8427 32.0907 41.0427 31.9333 41.24 31.752C41.3307 31.672 41.4213 31.632 41.512 31.632ZM48.2075 30.352C47.5515 30.3733 46.9915 30.4267 46.5275 30.512C46.0688 30.592 45.6928 30.6987 45.3995 30.832C45.1115 30.9653 44.9008 31.1227 44.7675 31.304C44.6395 31.4853 44.5755 31.688 44.5755 31.912C44.5755 32.1253 44.6102 32.3093 44.6795 32.464C44.7488 32.6187 44.8422 32.7467 44.9595 32.848C45.0822 32.944 45.2235 33.016 45.3835 33.064C45.5488 33.1067 45.7248 33.128 45.9115 33.128C46.1622 33.128 46.3915 33.104 46.5995 33.056C46.8075 33.0027 47.0022 32.928 47.1835 32.832C47.3702 32.736 47.5462 32.6213 47.7115 32.488C47.8822 32.3547 48.0475 32.2027 48.2075 32.032V30.352ZM43.6075 27.04C44.0555 26.608 44.5382 26.2853 45.0555 26.072C45.5728 25.8587 46.1462 25.752 46.7755 25.752C47.2288 25.752 47.6315 25.8267 47.9835 25.976C48.3355 26.1253 48.6315 26.3333 48.8715 26.6C49.1115 26.8667 49.2928 27.1893 49.4155 27.568C49.5382 27.9467 49.5995 28.3627 49.5995 28.816V34H48.9675C48.8288 34 48.7222 33.9787 48.6475 33.936C48.5728 33.888 48.5142 33.7973 48.4715 33.664L48.3115 32.896C48.0982 33.0933 47.8902 33.2693 47.6875 33.424C47.4848 33.5733 47.2715 33.7013 47.0475 33.808C46.8235 33.9093 46.5835 33.9867 46.3275 34.04C46.0768 34.0987 45.7968 34.128 45.4875 34.128C45.1728 34.128 44.8768 34.0853 44.5995 34C44.3222 33.9093 44.0795 33.776 43.8715 33.6C43.6688 33.424 43.5062 33.2027 43.3835 32.936C43.2662 32.664 43.2075 32.344 43.2075 31.976C43.2075 31.656 43.2955 31.3493 43.4715 31.056C43.6475 30.7573 43.9328 30.4933 44.3275 30.264C44.7222 30.0347 45.2368 29.848 45.8715 29.704C46.5062 29.5547 47.2848 29.4693 48.2075 29.448V28.816C48.2075 28.1867 48.0715 27.712 47.7995 27.392C47.5275 27.0667 47.1302 26.904 46.6075 26.904C46.2555 26.904 45.9595 26.9493 45.7195 27.04C45.4848 27.1253 45.2795 27.224 45.1035 27.336C44.9328 27.4427 44.7835 27.5413 44.6555 27.632C44.5328 27.7173 44.4102 27.76 44.2875 27.76C44.1915 27.76 44.1088 27.736 44.0395 27.688C43.9702 27.6347 43.9115 27.5707 43.8635 27.496L43.6075 27.04ZM56.4886 27.232C56.4246 27.3493 56.326 27.408 56.1926 27.408C56.1126 27.408 56.022 27.3787 55.9206 27.32C55.8193 27.2613 55.694 27.1973 55.5446 27.128C55.4006 27.0533 55.2273 26.9867 55.0246 26.928C54.822 26.864 54.582 26.832 54.3046 26.832C54.0646 26.832 53.8486 26.864 53.6566 26.928C53.4646 26.9867 53.2993 27.0693 53.1606 27.176C53.0273 27.2827 52.9233 27.408 52.8486 27.552C52.7793 27.6907 52.7446 27.8427 52.7446 28.008C52.7446 28.216 52.8033 28.3893 52.9206 28.528C53.0433 28.6667 53.2033 28.7867 53.4006 28.888C53.598 28.9893 53.822 29.08 54.0726 29.16C54.3233 29.2347 54.5793 29.3173 54.8406 29.408C55.1073 29.4933 55.366 29.5893 55.6166 29.696C55.8673 29.8027 56.0913 29.936 56.2886 30.096C56.486 30.256 56.6433 30.4533 56.7606 30.688C56.8833 30.9173 56.9446 31.1947 56.9446 31.52C56.9446 31.8933 56.878 32.24 56.7446 32.56C56.6113 32.8747 56.414 33.1493 56.1526 33.384C55.8913 33.6133 55.5713 33.7947 55.1926 33.928C54.814 34.0613 54.3766 34.128 53.8806 34.128C53.3153 34.128 52.8033 34.0373 52.3446 33.856C51.886 33.6693 51.4966 33.432 51.1766 33.144L51.5126 32.6C51.5553 32.5307 51.606 32.4773 51.6646 32.44C51.7233 32.4027 51.798 32.384 51.8886 32.384C51.9846 32.384 52.086 32.4213 52.1926 32.496C52.2993 32.5707 52.4273 32.6533 52.5766 32.744C52.7313 32.8347 52.918 32.9173 53.1366 32.992C53.3553 33.0667 53.6273 33.104 53.9526 33.104C54.23 33.104 54.4726 33.0693 54.6806 33C54.8886 32.9253 55.062 32.8267 55.2006 32.704C55.3393 32.5813 55.4406 32.44 55.5046 32.28C55.574 32.12 55.6086 31.9493 55.6086 31.768C55.6086 31.544 55.5473 31.36 55.4246 31.216C55.3073 31.0667 55.15 30.9413 54.9526 30.84C54.7553 30.7333 54.5286 30.6427 54.2726 30.568C54.022 30.488 53.7633 30.4053 53.4966 30.32C53.2353 30.2347 52.9766 30.1387 52.7206 30.032C52.47 29.92 52.246 29.7813 52.0486 29.616C51.8513 29.4507 51.6913 29.248 51.5686 29.008C51.4513 28.7627 51.3926 28.4667 51.3926 28.12C51.3926 27.8107 51.4566 27.5147 51.5846 27.232C51.7126 26.944 51.8993 26.6933 52.1446 26.48C52.39 26.2613 52.6913 26.088 53.0486 25.96C53.406 25.832 53.814 25.768 54.2726 25.768C54.806 25.768 55.2833 25.8533 55.7046 26.024C56.1313 26.1893 56.4993 26.4187 56.8086 26.712L56.4886 27.232ZM64.1145 29.064C64.1145 28.7333 64.0665 28.432 63.9705 28.16C63.8798 27.8827 63.7438 27.6453 63.5625 27.448C63.3865 27.2453 63.1705 27.0907 62.9145 26.984C62.6585 26.872 62.3678 26.816 62.0425 26.816C61.3598 26.816 60.8185 27.016 60.4185 27.416C60.0238 27.8107 59.7785 28.36 59.6825 29.064H64.1145ZM65.2665 32.864C65.0905 33.0773 64.8798 33.264 64.6345 33.424C64.3892 33.5787 64.1252 33.7067 63.8425 33.808C63.5652 33.9093 63.2772 33.984 62.9785 34.032C62.6798 34.0853 62.3838 34.112 62.0905 34.112C61.5305 34.112 61.0132 34.0187 60.5385 33.832C60.0692 33.64 59.6612 33.3627 59.3145 33C58.9732 32.632 58.7065 32.1787 58.5145 31.64C58.3225 31.1013 58.2265 30.4827 58.2265 29.784C58.2265 29.2187 58.3118 28.6907 58.4825 28.2C58.6585 27.7093 58.9092 27.2853 59.2345 26.928C59.5598 26.5653 59.9572 26.2827 60.4265 26.08C60.8958 25.872 61.4238 25.768 62.0105 25.768C62.4958 25.768 62.9438 25.8507 63.3545 26.016C63.7705 26.176 64.1278 26.4107 64.4265 26.72C64.7305 27.024 64.9678 27.4027 65.1385 27.856C65.3092 28.304 65.3945 28.816 65.3945 29.392C65.3945 29.616 65.3705 29.7653 65.3225 29.84C65.2745 29.9147 65.1838 29.952 65.0505 29.952H59.6345C59.6505 30.464 59.7198 30.9093 59.8425 31.288C59.9705 31.6667 60.1465 31.984 60.3705 32.24C60.5945 32.4907 60.8612 32.68 61.1705 32.808C61.4798 32.9307 61.8265 32.992 62.2105 32.992C62.5678 32.992 62.8745 32.952 63.1305 32.872C63.3918 32.7867 63.6158 32.696 63.8025 32.6C63.9892 32.504 64.1438 32.416 64.2665 32.336C64.3945 32.2507 64.5038 32.208 64.5945 32.208C64.7118 32.208 64.8025 32.2533 64.8665 32.344L65.2665 32.864ZM68.4956 27.52C68.7516 26.9653 69.0663 26.5333 69.4396 26.224C69.813 25.9093 70.269 25.752 70.8076 25.752C70.9783 25.752 71.141 25.7707 71.2956 25.808C71.4556 25.8453 71.597 25.904 71.7196 25.984L71.6156 27.048C71.5836 27.1813 71.5036 27.248 71.3756 27.248C71.301 27.248 71.1916 27.232 71.0476 27.2C70.9036 27.168 70.741 27.152 70.5596 27.152C70.3036 27.152 70.0743 27.1893 69.8716 27.264C69.6743 27.3387 69.4956 27.4507 69.3356 27.6C69.181 27.744 69.0396 27.9253 68.9116 28.144C68.789 28.3573 68.677 28.6027 68.5756 28.88V34H67.1436V25.896H67.9596C68.1143 25.896 68.221 25.9253 68.2796 25.984C68.3383 26.0427 68.3783 26.144 68.3996 26.288L68.4956 27.52ZM77.2388 30.352C76.5828 30.3733 76.0228 30.4267 75.5588 30.512C75.1001 30.592 74.7241 30.6987 74.4308 30.832C74.1428 30.9653 73.9321 31.1227 73.7988 31.304C73.6708 31.4853 73.6068 31.688 73.6068 31.912C73.6068 32.1253 73.6414 32.3093 73.7108 32.464C73.7801 32.6187 73.8734 32.7467 73.9908 32.848C74.1134 32.944 74.2548 33.016 74.4148 33.064C74.5801 33.1067 74.7561 33.128 74.9428 33.128C75.1934 33.128 75.4228 33.104 75.6308 33.056C75.8388 33.0027 76.0334 32.928 76.2148 32.832C76.4014 32.736 76.5774 32.6213 76.7428 32.488C76.9134 32.3547 77.0788 32.2027 77.2388 32.032V30.352ZM72.6388 27.04C73.0868 26.608 73.5694 26.2853 74.0868 26.072C74.6041 25.8587 75.1774 25.752 75.8068 25.752C76.2601 25.752 76.6628 25.8267 77.0148 25.976C77.3668 26.1253 77.6628 26.3333 77.9028 26.6C78.1428 26.8667 78.3241 27.1893 78.4468 27.568C78.5694 27.9467 78.6308 28.3627 78.6308 28.816V34H77.9988C77.8601 34 77.7534 33.9787 77.6788 33.936C77.6041 33.888 77.5454 33.7973 77.5028 33.664L77.3428 32.896C77.1294 33.0933 76.9214 33.2693 76.7188 33.424C76.5161 33.5733 76.3028 33.7013 76.0788 33.808C75.8548 33.9093 75.6148 33.9867 75.3588 34.04C75.1081 34.0987 74.8281 34.128 74.5188 34.128C74.2041 34.128 73.9081 34.0853 73.6308 34C73.3534 33.9093 73.1108 33.776 72.9028 33.6C72.7001 33.424 72.5374 33.2027 72.4148 32.936C72.2974 32.664 72.2388 32.344 72.2388 31.976C72.2388 31.656 72.3268 31.3493 72.5028 31.056C72.6788 30.7573 72.9641 30.4933 73.3588 30.264C73.7534 30.0347 74.2681 29.848 74.9028 29.704C75.5374 29.5547 76.3161 29.4693 77.2388 29.448V28.816C77.2388 28.1867 77.1028 27.712 76.8308 27.392C76.5588 27.0667 76.1614 26.904 75.6388 26.904C75.2868 26.904 74.9908 26.9493 74.7508 27.04C74.5161 27.1253 74.3108 27.224 74.1348 27.336C73.9641 27.4427 73.8148 27.5413 73.6868 27.632C73.5641 27.7173 73.4414 27.76 73.3188 27.76C73.2228 27.76 73.1401 27.736 73.0708 27.688C73.0014 27.6347 72.9428 27.5707 72.8947 27.496L72.6388 27.04Z" fill="#242E30"/>
<path d="M269.896 32.648C270.051 32.648 270.173 32.6933 270.264 32.784C270.355 32.8747 270.4 32.992 270.4 33.136V34H262.752V33.512C262.752 33.4107 262.773 33.3067 262.816 33.2C262.859 33.0933 262.925 32.9947 263.016 32.904L266.688 29.216C266.992 28.9067 267.269 28.6107 267.52 28.328C267.771 28.04 267.984 27.752 268.16 27.464C268.336 27.176 268.472 26.8853 268.568 26.592C268.664 26.2933 268.712 25.976 268.712 25.64C268.712 25.304 268.659 25.0107 268.552 24.76C268.445 24.504 268.299 24.2933 268.112 24.128C267.931 23.9627 267.715 23.84 267.464 23.76C267.213 23.6747 266.944 23.632 266.656 23.632C266.363 23.632 266.093 23.6747 265.848 23.76C265.603 23.8453 265.384 23.9653 265.192 24.12C265.005 24.2693 264.848 24.448 264.72 24.656C264.592 24.864 264.501 25.0933 264.448 25.344C264.384 25.5307 264.296 25.656 264.184 25.72C264.077 25.7787 263.925 25.7947 263.728 25.768L262.984 25.64C263.059 25.1173 263.203 24.656 263.416 24.256C263.635 23.8507 263.907 23.512 264.232 23.24C264.563 22.968 264.939 22.7627 265.36 22.624C265.781 22.48 266.237 22.408 266.728 22.408C267.213 22.408 267.667 22.48 268.088 22.624C268.509 22.768 268.875 22.9787 269.184 23.256C269.493 23.528 269.736 23.8613 269.912 24.256C270.088 24.6507 270.176 25.0987 270.176 25.6C270.176 26.0267 270.112 26.424 269.984 26.792C269.856 27.1547 269.683 27.5013 269.464 27.832C269.245 28.1627 268.992 28.4853 268.704 28.8C268.421 29.1147 268.12 29.432 267.8 29.752L264.776 32.84C264.989 32.7813 265.205 32.736 265.424 32.704C265.643 32.6667 265.853 32.648 266.056 32.648H269.896ZM273.545 25.904C273.545 26.2667 273.596 26.592 273.697 26.88C273.804 27.1627 273.953 27.4027 274.145 27.6C274.343 27.7973 274.58 27.9467 274.857 28.048C275.14 28.1493 275.455 28.2 275.801 28.2C276.185 28.2 276.524 28.1387 276.817 28.016C277.116 27.888 277.367 27.72 277.569 27.512C277.772 27.304 277.927 27.064 278.033 26.792C278.14 26.52 278.193 26.2373 278.193 25.944C278.193 25.5867 278.135 25.264 278.017 24.976C277.905 24.6827 277.748 24.4347 277.545 24.232C277.343 24.0293 277.1 23.8747 276.817 23.768C276.54 23.656 276.233 23.6 275.897 23.6C275.545 23.6 275.225 23.6587 274.937 23.776C274.649 23.888 274.401 24.0453 274.193 24.248C273.985 24.4507 273.825 24.6933 273.713 24.976C273.601 25.2587 273.545 25.568 273.545 25.904ZM276.873 29.432C276.991 29.2773 277.1 29.1307 277.201 28.992C277.303 28.8533 277.399 28.7147 277.489 28.576C277.196 28.8107 276.865 28.9893 276.497 29.112C276.129 29.2347 275.74 29.296 275.329 29.296C274.897 29.296 274.487 29.224 274.097 29.08C273.713 28.936 273.375 28.7253 273.081 28.448C272.788 28.1653 272.553 27.8213 272.377 27.416C272.207 27.0053 272.121 26.536 272.121 26.008C272.121 25.5067 272.215 25.0373 272.401 24.6C272.588 24.1627 272.849 23.7813 273.185 23.456C273.521 23.1307 273.921 22.8747 274.385 22.688C274.849 22.5013 275.359 22.408 275.913 22.408C276.463 22.408 276.961 22.4987 277.409 22.68C277.857 22.8613 278.241 23.1147 278.561 23.44C278.881 23.7653 279.127 24.1547 279.297 24.608C279.473 25.0613 279.561 25.5627 279.561 26.112C279.561 26.4427 279.529 26.7573 279.465 27.056C279.407 27.3493 279.319 27.64 279.201 27.928C279.089 28.2107 278.951 28.4933 278.785 28.776C278.62 29.0533 278.433 29.3387 278.225 29.632L275.433 33.664C275.364 33.7653 275.265 33.848 275.137 33.912C275.009 33.9707 274.863 34 274.697 34H273.385L276.873 29.432Z" fill="#242E30"/>
<defs>
<filter id="filter0_d_20_477" x="0" y="0" width="313" height="57" filterUnits="userSpaceOnUse" color-interpolation-filters="sRGB">
<feFlood flood-opacity="0" result="BackgroundImageFix"/>
<feColorMatrix in="SourceAlpha" type="matrix" values="0 0 0 0 0 0 0 0 0 0 0 0 0 0 0 0 0 0 127 0" result="hardAlpha"/>
<feMorphology radius="1" operator="dilate" in="SourceAlpha" result="effect1_dropShadow_20_477"/>
<feOffset/>
<feGaussianBlur stdDeviation="1.5"/>
<feComposite in2="hardAlpha" operator="out"/>
<feColorMatrix type="matrix" values="0 0 0 0 0.937255 0 0 0 0 0.929412 0 0 0 0 0.917647 0 0 0 1 0"/>
<feBlend mode="normal" in2="BackgroundImageFix" result="effect1_dropShadow_20_477"/>
<feBlend mode="normal" in="SourceGraphic" in2="effect1_dropShadow_20_477" result="shape"/>
</filter>
</defs>
</svg>
