<svg width="87" height="16" viewBox="0 0 87 16" fill="none" xmlns="http://www.w3.org/2000/svg">
<path d="M15.4 7.77C15.4 8.83 15.2233 9.81333 14.87 10.72C14.5233 11.62 14.03 12.4 13.39 13.06C12.75 13.72 11.98 14.2367 11.08 14.61C10.18 14.9767 9.18 15.16 8.08 15.16C6.98667 15.16 5.99 14.9767 5.09 14.61C4.19 14.2367 3.41667 13.72 2.77 13.06C2.13 12.4 1.63333 11.62 1.28 10.72C0.926667 9.81333 0.75 8.83 0.75 7.77C0.75 6.71 0.926667 5.73 1.28 4.83C1.63333 3.92333 2.13 3.14 2.77 2.48C3.41667 1.82 4.19 1.30667 5.09 0.94C5.99 0.566667 6.98667 0.38 8.08 0.38C8.81333 0.38 9.50333 0.466666 10.15 0.639999C10.7967 0.806666 11.39 1.04667 11.93 1.36C12.47 1.66667 12.9533 2.04333 13.38 2.49C13.8133 2.93 14.18 3.42333 14.48 3.97C14.78 4.51667 15.0067 5.11 15.16 5.75C15.32 6.39 15.4 7.06333 15.4 7.77ZM12.65 7.77C12.65 6.97667 12.5433 6.26667 12.33 5.64C12.1167 5.00667 11.8133 4.47 11.42 4.03C11.0267 3.59 10.5467 3.25333 9.98 3.02C9.42 2.78667 8.78667 2.67 8.08 2.67C7.37333 2.67 6.73667 2.78667 6.17 3.02C5.61 3.25333 5.13 3.59 4.73 4.03C4.33667 4.47 4.03333 5.00667 3.82 5.64C3.60667 6.26667 3.5 6.97667 3.5 7.77C3.5 8.56333 3.60667 9.27667 3.82 9.91C4.03333 10.5367 4.33667 11.07 4.73 11.51C5.13 11.9433 5.61 12.2767 6.17 12.51C6.73667 12.7433 7.37333 12.86 8.08 12.86C8.78667 12.86 9.42 12.7433 9.98 12.51C10.5467 12.2767 11.0267 11.9433 11.42 11.51C11.8133 11.07 12.1167 10.5367 12.33 9.91C12.5433 9.27667 12.65 8.56333 12.65 7.77ZM20.7728 15.16C19.8795 15.16 19.1928 14.91 18.7128 14.41C18.2395 13.9033 18.0028 13.2067 18.0028 12.32V6.59H16.9528C16.8195 6.59 16.7061 6.54667 16.6128 6.46C16.5195 6.37333 16.4728 6.24333 16.4728 6.07V5.09L18.1228 4.82L18.6428 2.02C18.6761 1.88667 18.7395 1.78333 18.8328 1.71C18.9261 1.63667 19.0461 1.6 19.1928 1.6H20.4728V4.83H23.2128V6.59H20.4728V12.15C20.4728 12.47 20.5495 12.72 20.7028 12.9C20.8628 13.08 21.0795 13.17 21.3528 13.17C21.5061 13.17 21.6328 13.1533 21.7328 13.12C21.8395 13.08 21.9295 13.04 22.0028 13C22.0828 12.96 22.1528 12.9233 22.2128 12.89C22.2728 12.85 22.3328 12.83 22.3928 12.83C22.4661 12.83 22.5261 12.85 22.5728 12.89C22.6195 12.9233 22.6695 12.9767 22.7228 13.05L23.4628 14.25C23.1028 14.55 22.6895 14.7767 22.2228 14.93C21.7561 15.0833 21.2728 15.16 20.7728 15.16ZM27.1242 6.52C27.4442 5.90667 27.8242 5.42667 28.2642 5.08C28.7042 4.72667 29.2242 4.55 29.8242 4.55C30.2976 4.55 30.6776 4.65333 30.9642 4.86L30.8042 6.71C30.7709 6.83 30.7209 6.91667 30.6542 6.97C30.5942 7.01667 30.5109 7.04 30.4042 7.04C30.3042 7.04 30.1542 7.02333 29.9542 6.99C29.7609 6.95667 29.5709 6.94 29.3842 6.94C29.1109 6.94 28.8676 6.98 28.6542 7.06C28.4409 7.14 28.2476 7.25667 28.0742 7.41C27.9076 7.55667 27.7576 7.73667 27.6242 7.95C27.4976 8.16333 27.3776 8.40667 27.2642 8.68V15H24.7942V4.74H26.2442C26.4976 4.74 26.6742 4.78667 26.7742 4.88C26.8742 4.96667 26.9409 5.12667 26.9742 5.36L27.1242 6.52ZM37.5384 10.62C36.8251 10.6533 36.2251 10.7167 35.7384 10.81C35.2518 10.8967 34.8618 11.01 34.5684 11.15C34.2751 11.29 34.0651 11.4533 33.9384 11.64C33.8118 11.8267 33.7484 12.03 33.7484 12.25C33.7484 12.6833 33.8751 12.9933 34.1284 13.18C34.3884 13.3667 34.7251 13.46 35.1384 13.46C35.6451 13.46 36.0818 13.37 36.4484 13.19C36.8218 13.0033 37.1851 12.7233 37.5384 12.35V10.62ZM31.8784 6.17C33.0584 5.09 34.4784 4.55 36.1384 4.55C36.7384 4.55 37.2751 4.65 37.7484 4.85C38.2218 5.04333 38.6218 5.31667 38.9484 5.67C39.2751 6.01667 39.5218 6.43333 39.6884 6.92C39.8618 7.40667 39.9484 7.94 39.9484 8.52V15H38.8284C38.5951 15 38.4151 14.9667 38.2884 14.9C38.1618 14.8267 38.0618 14.6833 37.9884 14.47L37.7684 13.73C37.5084 13.9633 37.2551 14.17 37.0084 14.35C36.7618 14.5233 36.5051 14.67 36.2384 14.79C35.9718 14.91 35.6851 15 35.3784 15.06C35.0784 15.1267 34.7451 15.16 34.3784 15.16C33.9451 15.16 33.5451 15.1033 33.1784 14.99C32.8118 14.87 32.4951 14.6933 32.2284 14.46C31.9618 14.2267 31.7551 13.9367 31.6084 13.59C31.4618 13.2433 31.3884 12.84 31.3884 12.38C31.3884 12.12 31.4318 11.8633 31.5184 11.61C31.6051 11.35 31.7451 11.1033 31.9384 10.87C32.1384 10.6367 32.3951 10.4167 32.7084 10.21C33.0218 10.0033 33.4051 9.82333 33.8584 9.67C34.3184 9.51667 34.8518 9.39333 35.4584 9.3C36.0651 9.2 36.7584 9.14 37.5384 9.12V8.52C37.5384 7.83333 37.3918 7.32667 37.0984 7C36.8051 6.66667 36.3818 6.5 35.8284 6.5C35.4284 6.5 35.0951 6.54667 34.8284 6.64C34.5684 6.73333 34.3384 6.84 34.1384 6.96C33.9384 7.07333 33.7551 7.17667 33.5884 7.27C33.4284 7.36333 33.2484 7.41 33.0484 7.41C32.8751 7.41 32.7284 7.36667 32.6084 7.28C32.4884 7.18667 32.3918 7.08 32.3184 6.96L31.8784 6.17ZM48.5347 6.74C48.468 6.84667 48.398 6.92333 48.3247 6.97C48.2514 7.01 48.158 7.03 48.0447 7.03C47.9247 7.03 47.7947 6.99667 47.6547 6.93C47.5214 6.86333 47.3647 6.79 47.1847 6.71C47.0047 6.62333 46.798 6.54667 46.5647 6.48C46.338 6.41333 46.068 6.38 45.7547 6.38C45.268 6.38 44.8847 6.48333 44.6047 6.69C44.3314 6.89667 44.1947 7.16667 44.1947 7.5C44.1947 7.72 44.2647 7.90667 44.4047 8.06C44.5514 8.20667 44.7414 8.33667 44.9747 8.45C45.2147 8.56333 45.4847 8.66667 45.7847 8.76C46.0847 8.84667 46.388 8.94333 46.6947 9.05C47.008 9.15667 47.3147 9.28 47.6147 9.42C47.9147 9.55333 48.1814 9.72667 48.4147 9.94C48.6547 10.1467 48.8447 10.3967 48.9847 10.69C49.1314 10.9833 49.2047 11.3367 49.2047 11.75C49.2047 12.2433 49.1147 12.7 48.9347 13.12C48.7614 13.5333 48.5014 13.8933 48.1547 14.2C47.808 14.5 47.378 14.7367 46.8647 14.91C46.358 15.0767 45.7714 15.16 45.1047 15.16C44.7514 15.16 44.4047 15.1267 44.0647 15.06C43.7314 15 43.408 14.9133 43.0947 14.8C42.788 14.6867 42.5014 14.5533 42.2347 14.4C41.9747 14.2467 41.7447 14.08 41.5447 13.9L42.1147 12.96C42.188 12.8467 42.2747 12.76 42.3747 12.7C42.4747 12.64 42.6014 12.61 42.7547 12.61C42.908 12.61 43.0514 12.6533 43.1847 12.74C43.3247 12.8267 43.4847 12.92 43.6647 13.02C43.8447 13.12 44.0547 13.2133 44.2947 13.3C44.5414 13.3867 44.8514 13.43 45.2247 13.43C45.518 13.43 45.768 13.3967 45.9747 13.33C46.188 13.2567 46.3614 13.1633 46.4947 13.05C46.6347 12.9367 46.7347 12.8067 46.7947 12.66C46.8614 12.5067 46.8947 12.35 46.8947 12.19C46.8947 11.95 46.8214 11.7533 46.6747 11.6C46.5347 11.4467 46.3447 11.3133 46.1047 11.2C45.8714 11.0867 45.6014 10.9867 45.2947 10.9C44.9947 10.8067 44.6847 10.7067 44.3647 10.6C44.0514 10.4933 43.7414 10.37 43.4347 10.23C43.1347 10.0833 42.8647 9.9 42.6247 9.68C42.3914 9.46 42.2014 9.19 42.0547 8.87C41.9147 8.55 41.8447 8.16333 41.8447 7.71C41.8447 7.29 41.928 6.89 42.0947 6.51C42.2614 6.13 42.5047 5.8 42.8247 5.52C43.1514 5.23333 43.5547 5.00667 44.0347 4.84C44.5214 4.66667 45.0814 4.58 45.7147 4.58C46.4214 4.58 47.0647 4.69667 47.6447 4.93C48.2247 5.16333 48.708 5.47 49.0947 5.85L48.5347 6.74ZM63.293 9.54L61.533 4.73C61.4463 4.51667 61.3563 4.26333 61.263 3.97C61.1696 3.67667 61.0763 3.36 60.983 3.02C60.8963 3.36 60.8063 3.68 60.713 3.98C60.6196 4.27333 60.5296 4.53 60.443 4.75L58.693 9.54H63.293ZM68.043 15H65.963C65.7296 15 65.5396 14.9433 65.393 14.83C65.2463 14.71 65.1363 14.5633 65.063 14.39L63.983 11.44H57.993L56.913 14.39C56.8596 14.5433 56.7563 14.6833 56.603 14.81C56.4496 14.9367 56.2596 15 56.033 15H53.933L59.623 0.539999H62.363L68.043 15ZM69.0697 7.93H74.2497V9.99H69.0697V7.93ZM86.902 1.53C86.902 1.83667 86.8154 2.11667 86.642 2.37L79.222 12.85H86.732V15H75.732V13.94C75.732 13.8067 75.7554 13.68 75.802 13.56C75.8487 13.4333 75.9087 13.3167 75.982 13.21L83.422 2.68H76.202V0.539999H86.902V1.53Z" fill="#242E30"/>
</svg>
