<svg width="313" height="57" viewBox="0 0 313 57" fill="none" xmlns="http://www.w3.org/2000/svg">
<g filter="url(#filter0_d_20_442)">
<rect x="4" y="4" width="305" height="49" rx="24.5" fill="white"/>
<rect x="4.5" y="4.5" width="304" height="48" rx="24" stroke="#EBEBEB"/>
</g>
<path d="M39.552 29.744L37.752 25.08C37.6987 24.9413 37.6427 24.7813 37.584 24.6C37.5253 24.4133 37.4693 24.216 37.416 24.008C37.304 24.44 37.1893 24.8 37.072 25.088L35.272 29.744H39.552ZM42.784 34H41.584C41.4453 34 41.3333 33.9653 41.248 33.896C41.1627 33.8267 41.0987 33.7387 41.056 33.632L39.984 30.864H34.84L33.768 33.632C33.736 33.728 33.6747 33.8133 33.584 33.888C33.4933 33.9627 33.3813 34 33.248 34H32.048L36.632 22.536H38.2L42.784 34ZM45.2689 27.072C45.4449 26.8747 45.6315 26.696 45.8289 26.536C46.0262 26.376 46.2342 26.24 46.4529 26.128C46.6769 26.0107 46.9115 25.9227 47.1569 25.864C47.4075 25.8 47.6769 25.768 47.9649 25.768C48.4075 25.768 48.7969 25.8427 49.1329 25.992C49.4742 26.136 49.7569 26.344 49.9809 26.616C50.2102 26.8827 50.3835 27.2053 50.5009 27.584C50.6182 27.9627 50.6769 28.3813 50.6769 28.84V34H49.2449V28.84C49.2449 28.2267 49.1035 27.752 48.8209 27.416C48.5435 27.0747 48.1195 26.904 47.5489 26.904C47.1275 26.904 46.7329 27.0053 46.3649 27.208C46.0022 27.4107 45.6662 27.6853 45.3569 28.032V34H43.9249V25.896H44.7809C44.9835 25.896 45.1089 25.9947 45.1569 26.192L45.2689 27.072ZM58.1268 27.824C57.8601 27.4667 57.5721 27.2187 57.2628 27.08C56.9534 26.936 56.6068 26.864 56.2228 26.864C55.4708 26.864 54.8921 27.1333 54.4868 27.672C54.0814 28.2107 53.8788 28.9787 53.8788 29.976C53.8788 30.504 53.9241 30.9573 54.0148 31.336C54.1054 31.7093 54.2388 32.0187 54.4148 32.264C54.5908 32.504 54.8068 32.68 55.0628 32.792C55.3188 32.904 55.6094 32.96 55.9348 32.96C56.4041 32.96 56.8121 32.8533 57.1588 32.64C57.5108 32.4267 57.8334 32.1253 58.1268 31.736V27.824ZM59.5508 22.216V34H58.7028C58.5001 34 58.3721 33.9013 58.3188 33.704L58.1908 32.72C57.8441 33.136 57.4494 33.472 57.0068 33.728C56.5641 33.984 56.0521 34.112 55.4708 34.112C55.0068 34.112 54.5854 34.024 54.2068 33.848C53.8281 33.6667 53.5054 33.4027 53.2388 33.056C52.9721 32.7093 52.7668 32.2773 52.6228 31.76C52.4788 31.2427 52.4068 30.648 52.4068 29.976C52.4068 29.3787 52.4868 28.824 52.6468 28.312C52.8068 27.7947 53.0361 27.3467 53.3348 26.968C53.6334 26.5893 53.9988 26.2933 54.4308 26.08C54.8681 25.8613 55.3588 25.752 55.9028 25.752C56.3988 25.752 56.8228 25.8373 57.1748 26.008C57.5321 26.1733 57.8494 26.4053 58.1268 26.704V22.216H59.5508ZM66.1919 30.352C65.5359 30.3733 64.9759 30.4267 64.5119 30.512C64.0532 30.592 63.6772 30.6987 63.3839 30.832C63.0959 30.9653 62.8852 31.1227 62.7519 31.304C62.6239 31.4853 62.5599 31.688 62.5599 31.912C62.5599 32.1253 62.5945 32.3093 62.6639 32.464C62.7332 32.6187 62.8265 32.7467 62.9439 32.848C63.0665 32.944 63.2079 33.016 63.3679 33.064C63.5332 33.1067 63.7092 33.128 63.8959 33.128C64.1465 33.128 64.3759 33.104 64.5839 33.056C64.7919 33.0027 64.9865 32.928 65.1679 32.832C65.3545 32.736 65.5305 32.6213 65.6959 32.488C65.8665 32.3547 66.0319 32.2027 66.1919 32.032V30.352ZM61.5919 27.04C62.0399 26.608 62.5225 26.2853 63.0399 26.072C63.5572 25.8587 64.1305 25.752 64.7599 25.752C65.2132 25.752 65.6159 25.8267 65.9679 25.976C66.3199 26.1253 66.6159 26.3333 66.8559 26.6C67.0959 26.8667 67.2772 27.1893 67.3999 27.568C67.5225 27.9467 67.5839 28.3627 67.5839 28.816V34H66.9519C66.8132 34 66.7065 33.9787 66.6319 33.936C66.5572 33.888 66.4985 33.7973 66.4559 33.664L66.2959 32.896C66.0825 33.0933 65.8745 33.2693 65.6719 33.424C65.4692 33.5733 65.2559 33.7013 65.0319 33.808C64.8079 33.9093 64.5679 33.9867 64.3119 34.04C64.0612 34.0987 63.7812 34.128 63.4719 34.128C63.1572 34.128 62.8612 34.0853 62.5839 34C62.3065 33.9093 62.0639 33.776 61.8559 33.6C61.6532 33.424 61.4905 33.2027 61.3679 32.936C61.2505 32.664 61.1919 32.344 61.1919 31.976C61.1919 31.656 61.2799 31.3493 61.4559 31.056C61.6319 30.7573 61.9172 30.4933 62.3119 30.264C62.7065 30.0347 63.2212 29.848 63.8559 29.704C64.4905 29.5547 65.2692 29.4693 66.1919 29.448V28.816C66.1919 28.1867 66.0559 27.712 65.7839 27.392C65.5119 27.0667 65.1145 26.904 64.5919 26.904C64.2399 26.904 63.9439 26.9493 63.7039 27.04C63.4692 27.1253 63.2639 27.224 63.0879 27.336C62.9172 27.4427 62.7679 27.5413 62.6399 27.632C62.5172 27.7173 62.3945 27.76 62.2719 27.76C62.1759 27.76 62.0932 27.736 62.0239 27.688C61.9545 27.6347 61.8959 27.5707 61.8479 27.496L61.5919 27.04ZM71.225 22.216V34H69.801V22.216H71.225ZM80.1983 25.896V34H79.3503C79.1476 34 79.0196 33.9013 78.9663 33.704L78.8543 32.832C78.5023 33.2213 78.1076 33.536 77.6703 33.776C77.2329 34.0107 76.7316 34.128 76.1663 34.128C75.7236 34.128 75.3316 34.056 74.9903 33.912C74.6543 33.7627 74.3716 33.5547 74.1423 33.288C73.9129 33.0213 73.7396 32.6987 73.6223 32.32C73.5103 31.9413 73.4543 31.5227 73.4543 31.064V25.896H74.8783V31.064C74.8783 31.6773 75.0169 32.152 75.2943 32.488C75.5769 32.824 76.0063 32.992 76.5823 32.992C77.0036 32.992 77.3956 32.8933 77.7583 32.696C78.1263 32.4933 78.4649 32.216 78.7743 31.864V25.896H80.1983ZM88.0481 26.504C88.0481 26.6053 88.0295 26.704 87.9921 26.8C87.9601 26.896 87.9148 26.9787 87.8561 27.048L83.4641 32.888H87.8961V34H81.7921V33.408C81.7921 33.3387 81.8081 33.2587 81.8401 33.168C81.8721 33.072 81.9201 32.9813 81.9841 32.896L86.4001 27.016H82.0401V25.896H88.0481V26.504ZM94.0825 30.352C93.4265 30.3733 92.8665 30.4267 92.4025 30.512C91.9438 30.592 91.5678 30.6987 91.2745 30.832C90.9865 30.9653 90.7758 31.1227 90.6425 31.304C90.5145 31.4853 90.4505 31.688 90.4505 31.912C90.4505 32.1253 90.4852 32.3093 90.5545 32.464C90.6238 32.6187 90.7172 32.7467 90.8345 32.848C90.9572 32.944 91.0985 33.016 91.2585 33.064C91.4238 33.1067 91.5998 33.128 91.7865 33.128C92.0372 33.128 92.2665 33.104 92.4745 33.056C92.6825 33.0027 92.8772 32.928 93.0585 32.832C93.2452 32.736 93.4212 32.6213 93.5865 32.488C93.7572 32.3547 93.9225 32.2027 94.0825 32.032V30.352ZM89.4825 27.04C89.9305 26.608 90.4132 26.2853 90.9305 26.072C91.4478 25.8587 92.0212 25.752 92.6505 25.752C93.1038 25.752 93.5065 25.8267 93.8585 25.976C94.2105 26.1253 94.5065 26.3333 94.7465 26.6C94.9865 26.8667 95.1678 27.1893 95.2905 27.568C95.4132 27.9467 95.4745 28.3627 95.4745 28.816V34H94.8425C94.7038 34 94.5972 33.9787 94.5225 33.936C94.4478 33.888 94.3892 33.7973 94.3465 33.664L94.1865 32.896C93.9732 33.0933 93.7652 33.2693 93.5625 33.424C93.3598 33.5733 93.1465 33.7013 92.9225 33.808C92.6985 33.9093 92.4585 33.9867 92.2025 34.04C91.9518 34.0987 91.6718 34.128 91.3625 34.128C91.0478 34.128 90.7518 34.0853 90.4745 34C90.1972 33.9093 89.9545 33.776 89.7465 33.6C89.5438 33.424 89.3812 33.2027 89.2585 32.936C89.1412 32.664 89.0825 32.344 89.0825 31.976C89.0825 31.656 89.1705 31.3493 89.3465 31.056C89.5225 30.7573 89.8078 30.4933 90.2025 30.264C90.5972 30.0347 91.1118 29.848 91.7465 29.704C92.3812 29.5547 93.1598 29.4693 94.0825 29.448V28.816C94.0825 28.1867 93.9465 27.712 93.6745 27.392C93.4025 27.0667 93.0052 26.904 92.4825 26.904C92.1305 26.904 91.8345 26.9493 91.5945 27.04C91.3598 27.1253 91.1545 27.224 90.9785 27.336C90.8078 27.4427 90.6585 27.5413 90.5305 27.632C90.4078 27.7173 90.2852 27.76 90.1625 27.76C90.0665 27.76 89.9838 27.736 89.9145 27.688C89.8452 27.6347 89.7865 27.5707 89.7385 27.496L89.4825 27.04Z" fill="#242E30"/>
<path d="M279.144 32.912V34H273V32.912H275.456V25.096C275.456 24.8613 275.464 24.624 275.48 24.384L273.44 26.136C273.371 26.1947 273.301 26.232 273.232 26.248C273.163 26.2587 273.099 26.2587 273.04 26.248C272.981 26.2373 272.925 26.216 272.872 26.184C272.824 26.152 272.787 26.1173 272.76 26.08L272.312 25.464L275.728 22.512H276.888V32.912H279.144Z" fill="#242E30"/>
<defs>
<filter id="filter0_d_20_442" x="0" y="0" width="313" height="57" filterUnits="userSpaceOnUse" color-interpolation-filters="sRGB">
<feFlood flood-opacity="0" result="BackgroundImageFix"/>
<feColorMatrix in="SourceAlpha" type="matrix" values="0 0 0 0 0 0 0 0 0 0 0 0 0 0 0 0 0 0 127 0" result="hardAlpha"/>
<feMorphology radius="1" operator="dilate" in="SourceAlpha" result="effect1_dropShadow_20_442"/>
<feOffset/>
<feGaussianBlur stdDeviation="1.5"/>
<feComposite in2="hardAlpha" operator="out"/>
<feColorMatrix type="matrix" values="0 0 0 0 0.937255 0 0 0 0 0.929412 0 0 0 0 0.917647 0 0 0 1 0"/>
<feBlend mode="normal" in2="BackgroundImageFix" result="effect1_dropShadow_20_442"/>
<feBlend mode="normal" in="SourceGraphic" in2="effect1_dropShadow_20_442" result="shape"/>
</filter>
</defs>
</svg>
