<svg width="313" height="57" viewBox="0 0 313 57" fill="none" xmlns="http://www.w3.org/2000/svg">
<g filter="url(#filter0_d_20_421)">
<rect x="4" y="4" width="305" height="49" rx="24.5" fill="white"/>
<rect x="4.5" y="4.5" width="304" height="48" rx="24" stroke="#EBEBEB"/>
</g>
<path d="M39.552 29.744L37.752 25.08C37.6987 24.9413 37.6427 24.7813 37.584 24.6C37.5253 24.4133 37.4693 24.216 37.416 24.008C37.304 24.44 37.1893 24.8 37.072 25.088L35.272 29.744H39.552ZM42.784 34H41.584C41.4453 34 41.3333 33.9653 41.248 33.896C41.1627 33.8267 41.0987 33.7387 41.056 33.632L39.984 30.864H34.84L33.768 33.632C33.736 33.728 33.6747 33.8133 33.584 33.888C33.4933 33.9627 33.3813 34 33.248 34H32.048L36.632 22.536H38.2L42.784 34ZM45.3969 22.216V34H43.9729V22.216H45.3969ZM49.2101 25.896V34H47.7861V25.896H49.2101ZM49.5141 23.352C49.5141 23.4907 49.4848 23.6213 49.4261 23.744C49.3728 23.8613 49.2981 23.968 49.2021 24.064C49.1115 24.1547 49.0021 24.2267 48.8741 24.28C48.7515 24.3333 48.6208 24.36 48.4821 24.36C48.3435 24.36 48.2128 24.3333 48.0901 24.28C47.9728 24.2267 47.8688 24.1547 47.7781 24.064C47.6875 23.968 47.6155 23.8613 47.5621 23.744C47.5088 23.6213 47.4821 23.4907 47.4821 23.352C47.4821 23.2133 47.5088 23.0827 47.5621 22.96C47.6155 22.832 47.6875 22.7227 47.7781 22.632C47.8688 22.536 47.9728 22.4613 48.0901 22.408C48.2128 22.3547 48.3435 22.328 48.4821 22.328C48.6208 22.328 48.7515 22.3547 48.8741 22.408C49.0021 22.4613 49.1115 22.536 49.2021 22.632C49.2981 22.7227 49.3728 22.832 49.4261 22.96C49.4848 23.0827 49.5141 23.2133 49.5141 23.352ZM51.5499 34V25.896H52.4059C52.6085 25.896 52.7339 25.9947 52.7819 26.192L52.8859 27.024C53.1845 26.656 53.5205 26.3547 53.8939 26.12C54.2672 25.8853 54.6992 25.768 55.1899 25.768C55.7339 25.768 56.1739 25.92 56.5099 26.224C56.8512 26.528 57.0965 26.9387 57.2459 27.456C57.3632 27.1627 57.5125 26.9093 57.6939 26.696C57.8805 26.4827 58.0885 26.3067 58.3179 26.168C58.5472 26.0293 58.7899 25.928 59.0459 25.864C59.3072 25.8 59.5712 25.768 59.8379 25.768C60.2645 25.768 60.6432 25.8373 60.9739 25.976C61.3099 26.1093 61.5925 26.3067 61.8219 26.568C62.0565 26.8293 62.2352 27.152 62.3579 27.536C62.4805 27.9147 62.5419 28.3493 62.5419 28.84V34H61.1099V28.84C61.1099 28.2053 60.9712 27.7253 60.6939 27.4C60.4165 27.0693 60.0165 26.904 59.4939 26.904C59.2592 26.904 59.0352 26.9467 58.8219 27.032C58.6139 27.112 58.4299 27.232 58.2699 27.392C58.1099 27.552 57.9819 27.7547 57.8859 28C57.7952 28.24 57.7499 28.52 57.7499 28.84V34H56.3179V28.84C56.3179 28.1893 56.1872 27.704 55.9259 27.384C55.6645 27.064 55.2832 26.904 54.7819 26.904C54.4299 26.904 54.1045 27 53.8059 27.192C53.5072 27.3787 53.2325 27.6347 52.9819 27.96V34H51.5499ZM70.1301 29.064C70.1301 28.7333 70.0821 28.432 69.9861 28.16C69.8955 27.8827 69.7595 27.6453 69.5781 27.448C69.4021 27.2453 69.1861 27.0907 68.9301 26.984C68.6741 26.872 68.3835 26.816 68.0581 26.816C67.3755 26.816 66.8341 27.016 66.4341 27.416C66.0395 27.8107 65.7941 28.36 65.6981 29.064H70.1301ZM71.2821 32.864C71.1061 33.0773 70.8955 33.264 70.6501 33.424C70.4048 33.5787 70.1408 33.7067 69.8581 33.808C69.5808 33.9093 69.2928 33.984 68.9941 34.032C68.6955 34.0853 68.3995 34.112 68.1061 34.112C67.5461 34.112 67.0288 34.0187 66.5541 33.832C66.0848 33.64 65.6768 33.3627 65.3301 33C64.9888 32.632 64.7221 32.1787 64.5301 31.64C64.3381 31.1013 64.2421 30.4827 64.2421 29.784C64.2421 29.2187 64.3275 28.6907 64.4981 28.2C64.6741 27.7093 64.9248 27.2853 65.2501 26.928C65.5755 26.5653 65.9728 26.2827 66.4421 26.08C66.9115 25.872 67.4395 25.768 68.0261 25.768C68.5115 25.768 68.9595 25.8507 69.3701 26.016C69.7861 26.176 70.1435 26.4107 70.4421 26.72C70.7461 27.024 70.9835 27.4027 71.1541 27.856C71.3248 28.304 71.4101 28.816 71.4101 29.392C71.4101 29.616 71.3861 29.7653 71.3381 29.84C71.2901 29.9147 71.1995 29.952 71.0661 29.952H65.6501C65.6661 30.464 65.7355 30.9093 65.8581 31.288C65.9861 31.6667 66.1621 31.984 66.3861 32.24C66.6101 32.4907 66.8768 32.68 67.1861 32.808C67.4955 32.9307 67.8421 32.992 68.2261 32.992C68.5835 32.992 68.8901 32.952 69.1461 32.872C69.4075 32.7867 69.6315 32.696 69.8181 32.6C70.0048 32.504 70.1595 32.416 70.2821 32.336C70.4101 32.2507 70.5195 32.208 70.6101 32.208C70.7275 32.208 70.8181 32.2533 70.8821 32.344L71.2821 32.864ZM74.5033 27.072C74.6793 26.8747 74.8659 26.696 75.0633 26.536C75.2606 26.376 75.4686 26.24 75.6873 26.128C75.9113 26.0107 76.1459 25.9227 76.3913 25.864C76.6419 25.8 76.9113 25.768 77.1993 25.768C77.6419 25.768 78.0313 25.8427 78.3673 25.992C78.7086 26.136 78.9913 26.344 79.2153 26.616C79.4446 26.8827 79.6179 27.2053 79.7353 27.584C79.8526 27.9627 79.9113 28.3813 79.9113 28.84V34H78.4793V28.84C78.4793 28.2267 78.3379 27.752 78.0553 27.416C77.7779 27.0747 77.3539 26.904 76.7833 26.904C76.3619 26.904 75.9673 27.0053 75.5993 27.208C75.2366 27.4107 74.9006 27.6853 74.5913 28.032V34H73.1593V25.896H74.0153C74.2179 25.896 74.3433 25.9947 74.3913 26.192L74.5033 27.072ZM84.4598 34.128C83.8198 34.128 83.3264 33.9493 82.9798 33.592C82.6384 33.2347 82.4678 32.72 82.4678 32.048V27.088H81.4918C81.4064 27.088 81.3344 27.064 81.2758 27.016C81.2171 26.9627 81.1878 26.8827 81.1878 26.776V26.208L82.5158 26.04L82.8438 23.536C82.8598 23.456 82.8944 23.392 82.9478 23.344C83.0064 23.2907 83.0811 23.264 83.1718 23.264H83.8918V26.056H86.2358V27.088H83.8918V31.952C83.8918 32.2933 83.9744 32.5467 84.1398 32.712C84.3051 32.8773 84.5184 32.96 84.7798 32.96C84.9291 32.96 85.0571 32.9413 85.1638 32.904C85.2758 32.8613 85.3718 32.816 85.4518 32.768C85.5318 32.72 85.5984 32.6773 85.6518 32.64C85.7104 32.5973 85.7611 32.576 85.8038 32.576C85.8784 32.576 85.9451 32.6213 86.0038 32.712L86.4198 33.392C86.1744 33.6213 85.8784 33.8027 85.5318 33.936C85.1851 34.064 84.8278 34.128 84.4598 34.128ZM92.0981 30.352C91.4421 30.3733 90.8821 30.4267 90.4181 30.512C89.9595 30.592 89.5835 30.6987 89.2901 30.832C89.0021 30.9653 88.7915 31.1227 88.6581 31.304C88.5301 31.4853 88.4661 31.688 88.4661 31.912C88.4661 32.1253 88.5008 32.3093 88.5701 32.464C88.6395 32.6187 88.7328 32.7467 88.8501 32.848C88.9728 32.944 89.1141 33.016 89.2741 33.064C89.4395 33.1067 89.6155 33.128 89.8021 33.128C90.0528 33.128 90.2821 33.104 90.4901 33.056C90.6981 33.0027 90.8928 32.928 91.0741 32.832C91.2608 32.736 91.4368 32.6213 91.6021 32.488C91.7728 32.3547 91.9381 32.2027 92.0981 32.032V30.352ZM87.4981 27.04C87.9461 26.608 88.4288 26.2853 88.9461 26.072C89.4635 25.8587 90.0368 25.752 90.6661 25.752C91.1195 25.752 91.5221 25.8267 91.8741 25.976C92.2261 26.1253 92.5221 26.3333 92.7621 26.6C93.0021 26.8667 93.1835 27.1893 93.3061 27.568C93.4288 27.9467 93.4901 28.3627 93.4901 28.816V34H92.8581C92.7195 34 92.6128 33.9787 92.5381 33.936C92.4635 33.888 92.4048 33.7973 92.3621 33.664L92.2021 32.896C91.9888 33.0933 91.7808 33.2693 91.5781 33.424C91.3755 33.5733 91.1621 33.7013 90.9381 33.808C90.7141 33.9093 90.4741 33.9867 90.2181 34.04C89.9675 34.0987 89.6875 34.128 89.3781 34.128C89.0635 34.128 88.7675 34.0853 88.4901 34C88.2128 33.9093 87.9701 33.776 87.7621 33.6C87.5595 33.424 87.3968 33.2027 87.2741 32.936C87.1568 32.664 87.0981 32.344 87.0981 31.976C87.0981 31.656 87.1861 31.3493 87.3621 31.056C87.5381 30.7573 87.8235 30.4933 88.2181 30.264C88.6128 30.0347 89.1275 29.848 89.7621 29.704C90.3968 29.5547 91.1755 29.4693 92.0981 29.448V28.816C92.0981 28.1867 91.9621 27.712 91.6901 27.392C91.4181 27.0667 91.0208 26.904 90.4981 26.904C90.1461 26.904 89.8501 26.9493 89.6101 27.04C89.3755 27.1253 89.1701 27.224 88.9941 27.336C88.8235 27.4427 88.6741 27.5413 88.5461 27.632C88.4235 27.7173 88.3008 27.76 88.1781 27.76C88.0821 27.76 87.9995 27.736 87.9301 27.688C87.8608 27.6347 87.8021 27.5707 87.7541 27.496L87.4981 27.04ZM101.299 27.336C101.257 27.3947 101.214 27.44 101.171 27.472C101.129 27.504 101.07 27.52 100.995 27.52C100.915 27.52 100.827 27.488 100.731 27.424C100.635 27.3547 100.515 27.28 100.371 27.2C100.233 27.12 100.059 27.048 99.8513 26.984C99.6486 26.9147 99.3979 26.88 99.0993 26.88C98.6993 26.88 98.3473 26.952 98.0433 27.096C97.7393 27.2347 97.4833 27.4373 97.2753 27.704C97.0726 27.9707 96.9179 28.2933 96.8113 28.672C96.7099 29.0507 96.6593 29.4747 96.6593 29.944C96.6593 30.4347 96.7153 30.872 96.8273 31.256C96.9393 31.6347 97.0966 31.9547 97.2993 32.216C97.5073 32.472 97.7553 32.6693 98.0433 32.808C98.3366 32.9413 98.6646 33.008 99.0273 33.008C99.3739 33.008 99.6593 32.968 99.8833 32.888C100.107 32.8027 100.291 32.7093 100.435 32.608C100.585 32.5067 100.707 32.416 100.803 32.336C100.905 32.2507 101.003 32.208 101.099 32.208C101.217 32.208 101.307 32.2533 101.371 32.344L101.771 32.864C101.595 33.0827 101.395 33.2693 101.171 33.424C100.947 33.5787 100.705 33.7093 100.443 33.816C100.187 33.9173 99.9179 33.992 99.6353 34.04C99.3526 34.088 99.0646 34.112 98.7713 34.112C98.2646 34.112 97.7926 34.0187 97.3553 33.832C96.9233 33.6453 96.5473 33.376 96.2273 33.024C95.9073 32.6667 95.6566 32.2293 95.4753 31.712C95.2939 31.1947 95.2033 30.6053 95.2033 29.944C95.2033 29.3413 95.2859 28.784 95.4513 28.272C95.6219 27.76 95.8673 27.32 96.1873 26.952C96.5126 26.5787 96.9099 26.288 97.3793 26.08C97.8539 25.872 98.3979 25.768 99.0113 25.768C99.5819 25.768 100.083 25.8613 100.515 26.048C100.953 26.2293 101.339 26.488 101.675 26.824L101.299 27.336ZM104.804 25.896V34H103.38V25.896H104.804ZM105.108 23.352C105.108 23.4907 105.079 23.6213 105.02 23.744C104.967 23.8613 104.892 23.968 104.796 24.064C104.705 24.1547 104.596 24.2267 104.468 24.28C104.345 24.3333 104.215 24.36 104.076 24.36C103.937 24.36 103.807 24.3333 103.684 24.28C103.567 24.2267 103.463 24.1547 103.372 24.064C103.281 23.968 103.209 23.8613 103.156 23.744C103.103 23.6213 103.076 23.4907 103.076 23.352C103.076 23.2133 103.103 23.0827 103.156 22.96C103.209 22.832 103.281 22.7227 103.372 22.632C103.463 22.536 103.567 22.4613 103.684 22.408C103.807 22.3547 103.937 22.328 104.076 22.328C104.215 22.328 104.345 22.3547 104.468 22.408C104.596 22.4613 104.705 22.536 104.796 22.632C104.892 22.7227 104.967 22.832 105.02 22.96C105.079 23.0827 105.108 23.2133 105.108 23.352ZM110.56 25.768C111.152 25.768 111.685 25.8667 112.16 26.064C112.634 26.2613 113.04 26.5413 113.376 26.904C113.712 27.2667 113.968 27.7067 114.144 28.224C114.325 28.736 114.416 29.3093 114.416 29.944C114.416 30.584 114.325 31.16 114.144 31.672C113.968 32.184 113.712 32.6213 113.376 32.984C113.04 33.3467 112.634 33.6267 112.16 33.824C111.685 34.016 111.152 34.112 110.56 34.112C109.962 34.112 109.424 34.016 108.944 33.824C108.469 33.6267 108.064 33.3467 107.728 32.984C107.392 32.6213 107.133 32.184 106.952 31.672C106.776 31.16 106.688 30.584 106.688 29.944C106.688 29.3093 106.776 28.736 106.952 28.224C107.133 27.7067 107.392 27.2667 107.728 26.904C108.064 26.5413 108.469 26.2613 108.944 26.064C109.424 25.8667 109.962 25.768 110.56 25.768ZM110.56 33C111.36 33 111.957 32.7333 112.352 32.2C112.746 31.6613 112.944 30.912 112.944 29.952C112.944 28.9867 112.746 28.2347 112.352 27.696C111.957 27.1573 111.36 26.888 110.56 26.888C110.154 26.888 109.8 26.9573 109.496 27.096C109.197 27.2347 108.946 27.4347 108.744 27.696C108.546 27.9573 108.397 28.28 108.296 28.664C108.2 29.0427 108.152 29.472 108.152 29.952C108.152 30.912 108.349 31.6613 108.744 32.2C109.144 32.7333 109.749 33 110.56 33ZM112.896 22.408L111.032 24.472C110.957 24.552 110.882 24.6107 110.808 24.648C110.738 24.68 110.648 24.696 110.536 24.696H109.688L110.872 22.76C110.946 22.6373 111.026 22.5493 111.112 22.496C111.202 22.4373 111.333 22.408 111.504 22.408H112.896ZM117.566 27.072C117.742 26.8747 117.928 26.696 118.126 26.536C118.323 26.376 118.531 26.24 118.75 26.128C118.974 26.0107 119.208 25.9227 119.454 25.864C119.704 25.8 119.974 25.768 120.262 25.768C120.704 25.768 121.094 25.8427 121.43 25.992C121.771 26.136 122.054 26.344 122.278 26.616C122.507 26.8827 122.68 27.2053 122.798 27.584C122.915 27.9627 122.974 28.3813 122.974 28.84V34H121.542V28.84C121.542 28.2267 121.4 27.752 121.118 27.416C120.84 27.0747 120.416 26.904 119.846 26.904C119.424 26.904 119.03 27.0053 118.662 27.208C118.299 27.4107 117.963 27.6853 117.654 28.032V34H116.222V25.896H117.078C117.28 25.896 117.406 25.9947 117.454 26.192L117.566 27.072Z" fill="#242E30"/>
<path d="M272.04 25.64C272.115 25.1173 272.259 24.656 272.472 24.256C272.685 23.8507 272.955 23.512 273.28 23.24C273.611 22.968 273.987 22.7627 274.408 22.624C274.835 22.48 275.293 22.408 275.784 22.408C276.269 22.408 276.717 22.4773 277.128 22.616C277.539 22.7547 277.891 22.952 278.184 23.208C278.483 23.464 278.715 23.7733 278.88 24.136C279.045 24.4987 279.128 24.9013 279.128 25.344C279.128 25.7067 279.08 26.032 278.984 26.32C278.893 26.6027 278.76 26.8507 278.584 27.064C278.413 27.2773 278.205 27.4587 277.96 27.608C277.715 27.7573 277.44 27.88 277.136 27.976C277.883 28.168 278.443 28.4987 278.816 28.968C279.195 29.432 279.384 30.0133 279.384 30.712C279.384 31.24 279.283 31.7147 279.08 32.136C278.883 32.5573 278.611 32.9173 278.264 33.216C277.917 33.5093 277.512 33.736 277.048 33.896C276.589 34.0507 276.096 34.128 275.568 34.128C274.96 34.128 274.44 34.0533 274.008 33.904C273.576 33.7493 273.211 33.5387 272.912 33.272C272.613 33.0053 272.368 32.6907 272.176 32.328C271.984 31.96 271.821 31.5627 271.688 31.136L272.304 30.88C272.464 30.8107 272.619 30.792 272.768 30.824C272.923 30.856 273.035 30.944 273.104 31.088C273.173 31.2373 273.259 31.416 273.36 31.624C273.467 31.832 273.611 32.032 273.792 32.224C273.973 32.416 274.203 32.5787 274.48 32.712C274.763 32.8453 275.12 32.912 275.552 32.912C275.952 32.912 276.301 32.848 276.6 32.72C276.904 32.5867 277.155 32.416 277.352 32.208C277.555 32 277.707 31.768 277.808 31.512C277.909 31.256 277.96 31.0027 277.96 30.752C277.96 30.4427 277.92 30.16 277.84 29.904C277.76 29.648 277.611 29.4267 277.392 29.24C277.173 29.0533 276.872 28.9067 276.488 28.8C276.109 28.6933 275.621 28.64 275.024 28.64V27.608C275.515 27.6027 275.931 27.5493 276.272 27.448C276.619 27.3467 276.899 27.208 277.112 27.032C277.331 26.856 277.488 26.6453 277.584 26.4C277.685 26.1547 277.736 25.8827 277.736 25.584C277.736 25.2533 277.683 24.9653 277.576 24.72C277.475 24.4747 277.333 24.272 277.152 24.112C276.971 23.952 276.755 23.832 276.504 23.752C276.259 23.672 275.992 23.632 275.704 23.632C275.416 23.632 275.147 23.6747 274.896 23.76C274.651 23.8453 274.432 23.9653 274.24 24.12C274.053 24.2693 273.896 24.448 273.768 24.656C273.64 24.864 273.549 25.0933 273.496 25.344C273.427 25.5307 273.339 25.656 273.232 25.72C273.131 25.7787 272.981 25.7947 272.784 25.768L272.04 25.64Z" fill="#242E30"/>
<defs>
<filter id="filter0_d_20_421" x="0" y="0" width="313" height="57" filterUnits="userSpaceOnUse" color-interpolation-filters="sRGB">
<feFlood flood-opacity="0" result="BackgroundImageFix"/>
<feColorMatrix in="SourceAlpha" type="matrix" values="0 0 0 0 0 0 0 0 0 0 0 0 0 0 0 0 0 0 127 0" result="hardAlpha"/>
<feMorphology radius="1" operator="dilate" in="SourceAlpha" result="effect1_dropShadow_20_421"/>
<feOffset/>
<feGaussianBlur stdDeviation="1.5"/>
<feComposite in2="hardAlpha" operator="out"/>
<feColorMatrix type="matrix" values="0 0 0 0 0.937255 0 0 0 0 0.929412 0 0 0 0 0.917647 0 0 0 1 0"/>
<feBlend mode="normal" in2="BackgroundImageFix" result="effect1_dropShadow_20_421"/>
<feBlend mode="normal" in="SourceGraphic" in2="effect1_dropShadow_20_421" result="shape"/>
</filter>
</defs>
</svg>
