<svg width="313" height="57" viewBox="0 0 313 57" fill="none" xmlns="http://www.w3.org/2000/svg">
<g filter="url(#filter0_d_20_470)">
<rect x="4" y="4" width="305" height="49" rx="24.5" fill="white"/>
<rect x="4.5" y="4.5" width="304" height="48" rx="24" stroke="#EBEBEB"/>
</g>
<path d="M37.488 32.768C37.9307 32.768 38.312 32.7173 38.632 32.616C38.952 32.5147 39.2133 32.3733 39.416 32.192C39.624 32.0053 39.776 31.7867 39.872 31.536C39.968 31.28 40.016 31 40.016 30.696C40.016 30.104 39.8053 29.6373 39.384 29.296C38.9627 28.9493 38.3307 28.776 37.488 28.776H35.008V32.768H37.488ZM35.008 23.76V27.672H37.056C37.4933 27.672 37.872 27.624 38.192 27.528C38.5173 27.432 38.784 27.2987 38.992 27.128C39.2053 26.9573 39.3627 26.752 39.464 26.512C39.5653 26.2667 39.616 26 39.616 25.712C39.616 25.0347 39.4133 24.5413 39.008 24.232C38.6027 23.9173 37.9733 23.76 37.12 23.76H35.008ZM37.12 22.536C37.824 22.536 38.4293 22.6053 38.936 22.744C39.448 22.8827 39.8667 23.08 40.192 23.336C40.5227 23.592 40.7653 23.9067 40.92 24.28C41.0747 24.648 41.152 25.064 41.152 25.528C41.152 25.8107 41.1067 26.0827 41.016 26.344C40.9307 26.6 40.8 26.84 40.624 27.064C40.448 27.288 40.224 27.4907 39.952 27.672C39.6853 27.848 39.3707 27.992 39.008 28.104C39.8507 28.264 40.4827 28.5653 40.904 29.008C41.3307 29.4453 41.544 30.0213 41.544 30.736C41.544 31.2213 41.4533 31.664 41.272 32.064C41.096 32.464 40.8347 32.808 40.488 33.096C40.1467 33.384 39.7253 33.608 39.224 33.768C38.7227 33.9227 38.152 34 37.512 34H33.464V22.536H37.12ZM46.7628 25.768C47.3548 25.768 47.8881 25.8667 48.3628 26.064C48.8374 26.2613 49.2428 26.5413 49.5788 26.904C49.9148 27.2667 50.1708 27.7067 50.3468 28.224C50.5281 28.736 50.6188 29.3093 50.6188 29.944C50.6188 30.584 50.5281 31.16 50.3468 31.672C50.1708 32.184 49.9148 32.6213 49.5788 32.984C49.2428 33.3467 48.8374 33.6267 48.3628 33.824C47.8881 34.016 47.3548 34.112 46.7628 34.112C46.1654 34.112 45.6268 34.016 45.1468 33.824C44.6721 33.6267 44.2668 33.3467 43.9308 32.984C43.5948 32.6213 43.3361 32.184 43.1548 31.672C42.9788 31.16 42.8908 30.584 42.8908 29.944C42.8908 29.3093 42.9788 28.736 43.1548 28.224C43.3361 27.7067 43.5948 27.2667 43.9308 26.904C44.2668 26.5413 44.6721 26.2613 45.1468 26.064C45.6268 25.8667 46.1654 25.768 46.7628 25.768ZM46.7628 33C47.5628 33 48.1601 32.7333 48.5548 32.2C48.9494 31.6613 49.1468 30.912 49.1468 29.952C49.1468 28.9867 48.9494 28.2347 48.5548 27.696C48.1601 27.1573 47.5628 26.888 46.7628 26.888C46.3574 26.888 46.0028 26.9573 45.6988 27.096C45.4001 27.2347 45.1494 27.4347 44.9468 27.696C44.7494 27.9573 44.6001 28.28 44.4988 28.664C44.4028 29.0427 44.3548 29.472 44.3548 29.952C44.3548 30.912 44.5521 31.6613 44.9468 32.2C45.3468 32.7333 45.9521 33 46.7628 33ZM58.0649 27.336C58.0222 27.3947 57.9795 27.44 57.9369 27.472C57.8942 27.504 57.8355 27.52 57.7609 27.52C57.6809 27.52 57.5929 27.488 57.4969 27.424C57.4009 27.3547 57.2809 27.28 57.1369 27.2C56.9982 27.12 56.8249 27.048 56.6169 26.984C56.4142 26.9147 56.1635 26.88 55.8649 26.88C55.4649 26.88 55.1129 26.952 54.8089 27.096C54.5049 27.2347 54.2489 27.4373 54.0409 27.704C53.8382 27.9707 53.6835 28.2933 53.5769 28.672C53.4755 29.0507 53.4249 29.4747 53.4249 29.944C53.4249 30.4347 53.4809 30.872 53.5929 31.256C53.7049 31.6347 53.8622 31.9547 54.0649 32.216C54.2729 32.472 54.5209 32.6693 54.8089 32.808C55.1022 32.9413 55.4302 33.008 55.7929 33.008C56.1395 33.008 56.4249 32.968 56.6489 32.888C56.8729 32.8027 57.0569 32.7093 57.2009 32.608C57.3502 32.5067 57.4729 32.416 57.5689 32.336C57.6702 32.2507 57.7689 32.208 57.8649 32.208C57.9822 32.208 58.0729 32.2533 58.1369 32.344L58.5369 32.864C58.3609 33.0827 58.1609 33.2693 57.9369 33.424C57.7129 33.5787 57.4702 33.7093 57.2089 33.816C56.9529 33.9173 56.6835 33.992 56.4009 34.04C56.1182 34.088 55.8302 34.112 55.5369 34.112C55.0302 34.112 54.5582 34.0187 54.1209 33.832C53.6889 33.6453 53.3129 33.376 52.9929 33.024C52.6729 32.6667 52.4222 32.2293 52.2409 31.712C52.0595 31.1947 51.9689 30.6053 51.9689 29.944C51.9689 29.3413 52.0515 28.784 52.2169 28.272C52.3875 27.76 52.6329 27.32 52.9529 26.952C53.2782 26.5787 53.6755 26.288 54.1449 26.08C54.6195 25.872 55.1635 25.768 55.7769 25.768C56.3475 25.768 56.8489 25.8613 57.2809 26.048C57.7182 26.2293 58.1049 26.488 58.4409 26.824L58.0649 27.336ZM64.4575 30.352C63.8015 30.3733 63.2415 30.4267 62.7775 30.512C62.3188 30.592 61.9428 30.6987 61.6495 30.832C61.3615 30.9653 61.1508 31.1227 61.0175 31.304C60.8895 31.4853 60.8255 31.688 60.8255 31.912C60.8255 32.1253 60.8602 32.3093 60.9295 32.464C60.9988 32.6187 61.0922 32.7467 61.2095 32.848C61.3322 32.944 61.4735 33.016 61.6335 33.064C61.7988 33.1067 61.9748 33.128 62.1615 33.128C62.4122 33.128 62.6415 33.104 62.8495 33.056C63.0575 33.0027 63.2522 32.928 63.4335 32.832C63.6202 32.736 63.7962 32.6213 63.9615 32.488C64.1322 32.3547 64.2975 32.2027 64.4575 32.032V30.352ZM59.8575 27.04C60.3055 26.608 60.7882 26.2853 61.3055 26.072C61.8228 25.8587 62.3962 25.752 63.0255 25.752C63.4788 25.752 63.8815 25.8267 64.2335 25.976C64.5855 26.1253 64.8815 26.3333 65.1215 26.6C65.3615 26.8667 65.5428 27.1893 65.6655 27.568C65.7882 27.9467 65.8495 28.3627 65.8495 28.816V34H65.2175C65.0788 34 64.9722 33.9787 64.8975 33.936C64.8228 33.888 64.7642 33.7973 64.7215 33.664L64.5615 32.896C64.3482 33.0933 64.1402 33.2693 63.9375 33.424C63.7348 33.5733 63.5215 33.7013 63.2975 33.808C63.0735 33.9093 62.8335 33.9867 62.5775 34.04C62.3268 34.0987 62.0468 34.128 61.7375 34.128C61.4228 34.128 61.1268 34.0853 60.8495 34C60.5722 33.9093 60.3295 33.776 60.1215 33.6C59.9188 33.424 59.7562 33.2027 59.6335 32.936C59.5162 32.664 59.4575 32.344 59.4575 31.976C59.4575 31.656 59.5455 31.3493 59.7215 31.056C59.8975 30.7573 60.1828 30.4933 60.5775 30.264C60.9722 30.0347 61.4868 29.848 62.1215 29.704C62.7562 29.5547 63.5348 29.4693 64.4575 29.448V28.816C64.4575 28.1867 64.3215 27.712 64.0495 27.392C63.7775 27.0667 63.3802 26.904 62.8575 26.904C62.5055 26.904 62.2095 26.9493 61.9695 27.04C61.7348 27.1253 61.5295 27.224 61.3535 27.336C61.1828 27.4427 61.0335 27.5413 60.9055 27.632C60.7828 27.7173 60.6602 27.76 60.5375 27.76C60.4415 27.76 60.3588 27.736 60.2895 27.688C60.2202 27.6347 60.1615 27.5707 60.1135 27.496L59.8575 27.04ZM73.2986 27.824C73.032 27.4667 72.744 27.2187 72.4346 27.08C72.1253 26.936 71.7786 26.864 71.3946 26.864C70.6426 26.864 70.064 27.1333 69.6586 27.672C69.2533 28.2107 69.0506 28.9787 69.0506 29.976C69.0506 30.504 69.096 30.9573 69.1866 31.336C69.2773 31.7093 69.4106 32.0187 69.5866 32.264C69.7626 32.504 69.9786 32.68 70.2346 32.792C70.4906 32.904 70.7813 32.96 71.1066 32.96C71.576 32.96 71.984 32.8533 72.3306 32.64C72.6826 32.4267 73.0053 32.1253 73.2986 31.736V27.824ZM74.7226 22.216V34H73.8746C73.672 34 73.544 33.9013 73.4906 33.704L73.3626 32.72C73.016 33.136 72.6213 33.472 72.1786 33.728C71.736 33.984 71.224 34.112 70.6426 34.112C70.1786 34.112 69.7573 34.024 69.3786 33.848C69 33.6667 68.6773 33.4027 68.4106 33.056C68.144 32.7093 67.9386 32.2773 67.7946 31.76C67.6506 31.2427 67.5786 30.648 67.5786 29.976C67.5786 29.3787 67.6586 28.824 67.8186 28.312C67.9786 27.7947 68.208 27.3467 68.5066 26.968C68.8053 26.5893 69.1706 26.2933 69.6026 26.08C70.04 25.8613 70.5306 25.752 71.0746 25.752C71.5706 25.752 71.9946 25.8373 72.3466 26.008C72.704 26.1733 73.0213 26.4053 73.2986 26.704V22.216H74.7226ZM78.4758 25.896V34H77.0518V25.896H78.4758ZM78.7798 23.352C78.7798 23.4907 78.7504 23.6213 78.6918 23.744C78.6384 23.8613 78.5638 23.968 78.4678 24.064C78.3771 24.1547 78.2678 24.2267 78.1398 24.28C78.0171 24.3333 77.8864 24.36 77.7478 24.36C77.6091 24.36 77.4784 24.3333 77.3558 24.28C77.2384 24.2267 77.1344 24.1547 77.0438 24.064C76.9531 23.968 76.8811 23.8613 76.8278 23.744C76.7744 23.6213 76.7478 23.4907 76.7478 23.352C76.7478 23.2133 76.7744 23.0827 76.8278 22.96C76.8811 22.832 76.9531 22.7227 77.0438 22.632C77.1344 22.536 77.2384 22.4613 77.3558 22.408C77.4784 22.3547 77.6091 22.328 77.7478 22.328C77.8864 22.328 78.0171 22.3547 78.1398 22.408C78.2678 22.4613 78.3771 22.536 78.4678 22.632C78.5638 22.7227 78.6384 22.832 78.6918 22.96C78.7504 23.0827 78.7798 23.2133 78.7798 23.352ZM82.2875 22.216V34H80.8635V22.216H82.2875ZM86.0688 22.216V34H84.6447V22.216H86.0688ZM91.794 25.768C92.386 25.768 92.9193 25.8667 93.394 26.064C93.8687 26.2613 94.274 26.5413 94.61 26.904C94.946 27.2667 95.202 27.7067 95.378 28.224C95.5593 28.736 95.65 29.3093 95.65 29.944C95.65 30.584 95.5593 31.16 95.378 31.672C95.202 32.184 94.946 32.6213 94.61 32.984C94.274 33.3467 93.8687 33.6267 93.394 33.824C92.9193 34.016 92.386 34.112 91.794 34.112C91.1967 34.112 90.658 34.016 90.178 33.824C89.7033 33.6267 89.298 33.3467 88.962 32.984C88.626 32.6213 88.3673 32.184 88.186 31.672C88.01 31.16 87.922 30.584 87.922 29.944C87.922 29.3093 88.01 28.736 88.186 28.224C88.3673 27.7067 88.626 27.2667 88.962 26.904C89.298 26.5413 89.7033 26.2613 90.178 26.064C90.658 25.8667 91.1967 25.768 91.794 25.768ZM91.794 33C92.594 33 93.1913 32.7333 93.586 32.2C93.9807 31.6613 94.178 30.912 94.178 29.952C94.178 28.9867 93.9807 28.2347 93.586 27.696C93.1913 27.1573 92.594 26.888 91.794 26.888C91.3887 26.888 91.034 26.9573 90.73 27.096C90.4313 27.2347 90.1807 27.4347 89.978 27.696C89.7807 27.9573 89.6313 28.28 89.53 28.664C89.434 29.0427 89.386 29.472 89.386 29.952C89.386 30.912 89.5833 31.6613 89.978 32.2C90.378 32.7333 90.9833 33 91.794 33ZM102.176 27.232C102.112 27.3493 102.013 27.408 101.88 27.408C101.8 27.408 101.709 27.3787 101.608 27.32C101.507 27.2613 101.381 27.1973 101.232 27.128C101.088 27.0533 100.915 26.9867 100.712 26.928C100.509 26.864 100.269 26.832 99.9921 26.832C99.7521 26.832 99.5361 26.864 99.3441 26.928C99.1521 26.9867 98.9868 27.0693 98.8481 27.176C98.7148 27.2827 98.6108 27.408 98.5361 27.552C98.4668 27.6907 98.4321 27.8427 98.4321 28.008C98.4321 28.216 98.4908 28.3893 98.6081 28.528C98.7308 28.6667 98.8908 28.7867 99.0881 28.888C99.2855 28.9893 99.5095 29.08 99.7601 29.16C100.011 29.2347 100.267 29.3173 100.528 29.408C100.795 29.4933 101.053 29.5893 101.304 29.696C101.555 29.8027 101.779 29.936 101.976 30.096C102.173 30.256 102.331 30.4533 102.448 30.688C102.571 30.9173 102.632 31.1947 102.632 31.52C102.632 31.8933 102.565 32.24 102.432 32.56C102.299 32.8747 102.101 33.1493 101.84 33.384C101.579 33.6133 101.259 33.7947 100.88 33.928C100.501 34.0613 100.064 34.128 99.5681 34.128C99.0028 34.128 98.4908 34.0373 98.0321 33.856C97.5735 33.6693 97.1841 33.432 96.8641 33.144L97.2001 32.6C97.2428 32.5307 97.2935 32.4773 97.3521 32.44C97.4108 32.4027 97.4855 32.384 97.5761 32.384C97.6721 32.384 97.7735 32.4213 97.8801 32.496C97.9868 32.5707 98.1148 32.6533 98.2641 32.744C98.4188 32.8347 98.6055 32.9173 98.8241 32.992C99.0428 33.0667 99.3148 33.104 99.6401 33.104C99.9175 33.104 100.16 33.0693 100.368 33C100.576 32.9253 100.749 32.8267 100.888 32.704C101.027 32.5813 101.128 32.44 101.192 32.28C101.261 32.12 101.296 31.9493 101.296 31.768C101.296 31.544 101.235 31.36 101.112 31.216C100.995 31.0667 100.837 30.9413 100.64 30.84C100.443 30.7333 100.216 30.6427 99.9601 30.568C99.7095 30.488 99.4508 30.4053 99.1841 30.32C98.9228 30.2347 98.6641 30.1387 98.4081 30.032C98.1575 29.92 97.9335 29.7813 97.7361 29.616C97.5388 29.4507 97.3788 29.248 97.2561 29.008C97.1388 28.7627 97.0801 28.4667 97.0801 28.12C97.0801 27.8107 97.1441 27.5147 97.2721 27.232C97.4001 26.944 97.5868 26.6933 97.8321 26.48C98.0775 26.2613 98.3788 26.088 98.7361 25.96C99.0935 25.832 99.5015 25.768 99.9601 25.768C100.493 25.768 100.971 25.8533 101.392 26.024C101.819 26.1893 102.187 26.4187 102.496 26.712L102.176 27.232ZM105.162 34.168C105.093 34.3547 104.983 34.4933 104.834 34.584C104.69 34.6747 104.541 34.72 104.386 34.72H103.786L108.594 22.744C108.658 22.5733 108.754 22.4427 108.882 22.352C109.015 22.2613 109.167 22.216 109.338 22.216H109.946L105.162 34.168ZM126.804 22.536L123.228 34H121.836L118.932 25.256C118.906 25.1707 118.879 25.08 118.852 24.984C118.831 24.888 118.807 24.7867 118.78 24.68C118.754 24.7867 118.727 24.888 118.7 24.984C118.674 25.08 118.647 25.1707 118.62 25.256L115.7 34H114.308L110.732 22.536H112.02C112.159 22.536 112.274 22.5707 112.364 22.64C112.46 22.7093 112.522 22.7973 112.548 22.904L114.916 30.872C114.954 31.016 114.988 31.1707 115.02 31.336C115.058 31.5013 115.092 31.6773 115.124 31.864C115.162 31.6773 115.199 31.5013 115.236 31.336C115.279 31.1653 115.324 31.0107 115.372 30.872L118.068 22.904C118.1 22.8133 118.162 22.7307 118.252 22.656C118.348 22.576 118.463 22.536 118.596 22.536H119.044C119.183 22.536 119.295 22.5707 119.38 22.64C119.466 22.7093 119.53 22.7973 119.572 22.904L122.26 30.872C122.308 31.0107 122.351 31.16 122.388 31.32C122.431 31.48 122.471 31.648 122.508 31.824C122.535 31.648 122.564 31.48 122.596 31.32C122.628 31.16 122.663 31.0107 122.7 30.872L125.076 22.904C125.103 22.808 125.162 22.7227 125.252 22.648C125.348 22.5733 125.463 22.536 125.596 22.536H126.804ZM128.839 27.52C129.095 26.9653 129.41 26.5333 129.783 26.224C130.157 25.9093 130.613 25.752 131.151 25.752C131.322 25.752 131.485 25.7707 131.639 25.808C131.799 25.8453 131.941 25.904 132.063 25.984L131.959 27.048C131.927 27.1813 131.847 27.248 131.719 27.248C131.645 27.248 131.535 27.232 131.391 27.2C131.247 27.168 131.085 27.152 130.903 27.152C130.647 27.152 130.418 27.1893 130.215 27.264C130.018 27.3387 129.839 27.4507 129.679 27.6C129.525 27.744 129.383 27.9253 129.255 28.144C129.133 28.3573 129.021 28.6027 128.919 28.88V34H127.487V25.896H128.303C128.458 25.896 128.565 25.9253 128.623 25.984C128.682 26.0427 128.722 26.144 128.743 26.288L128.839 27.52ZM137.583 30.352C136.927 30.3733 136.367 30.4267 135.903 30.512C135.444 30.592 135.068 30.6987 134.775 30.832C134.487 30.9653 134.276 31.1227 134.143 31.304C134.015 31.4853 133.951 31.688 133.951 31.912C133.951 32.1253 133.985 32.3093 134.055 32.464C134.124 32.6187 134.217 32.7467 134.335 32.848C134.457 32.944 134.599 33.016 134.759 33.064C134.924 33.1067 135.1 33.128 135.287 33.128C135.537 33.128 135.767 33.104 135.975 33.056C136.183 33.0027 136.377 32.928 136.559 32.832C136.745 32.736 136.921 32.6213 137.087 32.488C137.257 32.3547 137.423 32.2027 137.583 32.032V30.352ZM132.983 27.04C133.431 26.608 133.913 26.2853 134.431 26.072C134.948 25.8587 135.521 25.752 136.151 25.752C136.604 25.752 137.007 25.8267 137.359 25.976C137.711 26.1253 138.007 26.3333 138.247 26.6C138.487 26.8667 138.668 27.1893 138.791 27.568C138.913 27.9467 138.975 28.3627 138.975 28.816V34H138.343C138.204 34 138.097 33.9787 138.023 33.936C137.948 33.888 137.889 33.7973 137.847 33.664L137.687 32.896C137.473 33.0933 137.265 33.2693 137.062 33.424C136.86 33.5733 136.647 33.7013 136.423 33.808C136.199 33.9093 135.959 33.9867 135.703 34.04C135.452 34.0987 135.172 34.128 134.863 34.128C134.548 34.128 134.252 34.0853 133.975 34C133.697 33.9093 133.455 33.776 133.247 33.6C133.044 33.424 132.881 33.2027 132.759 32.936C132.641 32.664 132.583 32.344 132.583 31.976C132.583 31.656 132.671 31.3493 132.847 31.056C133.023 30.7573 133.308 30.4933 133.703 30.264C134.097 30.0347 134.612 29.848 135.247 29.704C135.881 29.5547 136.66 29.4693 137.583 29.448V28.816C137.583 28.1867 137.447 27.712 137.175 27.392C136.903 27.0667 136.505 26.904 135.983 26.904C135.631 26.904 135.335 26.9493 135.095 27.04C134.86 27.1253 134.655 27.224 134.479 27.336C134.308 27.4427 134.159 27.5413 134.031 27.632C133.908 27.7173 133.785 27.76 133.663 27.76C133.567 27.76 133.484 27.736 133.415 27.688C133.345 27.6347 133.287 27.5707 133.238 27.496L132.983 27.04ZM142.576 32.048C142.837 32.4 143.122 32.648 143.432 32.792C143.741 32.936 144.088 33.008 144.472 33.008C145.229 33.008 145.81 32.7387 146.216 32.2C146.621 31.6613 146.824 30.8933 146.824 29.896C146.824 29.368 146.776 28.9147 146.68 28.536C146.589 28.1573 146.456 27.848 146.28 27.608C146.104 27.3627 145.888 27.184 145.632 27.072C145.376 26.96 145.085 26.904 144.76 26.904C144.296 26.904 143.888 27.0107 143.536 27.224C143.189 27.4373 142.869 27.7387 142.576 28.128V32.048ZM142.504 27.152C142.845 26.7307 143.24 26.392 143.688 26.136C144.136 25.88 144.648 25.752 145.224 25.752C145.693 25.752 146.117 25.8427 146.496 26.024C146.874 26.2 147.197 26.464 147.464 26.816C147.73 27.1627 147.936 27.5947 148.08 28.112C148.224 28.6293 148.296 29.224 148.296 29.896C148.296 30.4933 148.216 31.0507 148.056 31.568C147.896 32.08 147.664 32.5253 147.36 32.904C147.061 33.2773 146.693 33.5733 146.256 33.792C145.824 34.0053 145.336 34.112 144.792 34.112C144.296 34.112 143.869 34.0293 143.512 33.864C143.16 33.6933 142.848 33.4587 142.576 33.16V36.744H141.144V25.896H142C142.202 25.896 142.328 25.9947 142.376 26.192L142.504 27.152ZM154.832 27.232C154.768 27.3493 154.67 27.408 154.536 27.408C154.456 27.408 154.366 27.3787 154.264 27.32C154.163 27.2613 154.038 27.1973 153.888 27.128C153.744 27.0533 153.571 26.9867 153.368 26.928C153.166 26.864 152.926 26.832 152.648 26.832C152.408 26.832 152.192 26.864 152 26.928C151.808 26.9867 151.643 27.0693 151.504 27.176C151.371 27.2827 151.267 27.408 151.192 27.552C151.123 27.6907 151.088 27.8427 151.088 28.008C151.088 28.216 151.147 28.3893 151.264 28.528C151.387 28.6667 151.547 28.7867 151.744 28.888C151.942 28.9893 152.166 29.08 152.416 29.16C152.667 29.2347 152.923 29.3173 153.184 29.408C153.451 29.4933 153.71 29.5893 153.96 29.696C154.211 29.8027 154.435 29.936 154.632 30.096C154.83 30.256 154.987 30.4533 155.104 30.688C155.227 30.9173 155.288 31.1947 155.288 31.52C155.288 31.8933 155.222 32.24 155.088 32.56C154.955 32.8747 154.758 33.1493 154.496 33.384C154.235 33.6133 153.915 33.7947 153.536 33.928C153.158 34.0613 152.72 34.128 152.224 34.128C151.659 34.128 151.147 34.0373 150.688 33.856C150.23 33.6693 149.84 33.432 149.52 33.144L149.856 32.6C149.899 32.5307 149.95 32.4773 150.008 32.44C150.067 32.4027 150.142 32.384 150.232 32.384C150.328 32.384 150.43 32.4213 150.536 32.496C150.643 32.5707 150.771 32.6533 150.92 32.744C151.075 32.8347 151.262 32.9173 151.48 32.992C151.699 33.0667 151.971 33.104 152.296 33.104C152.574 33.104 152.816 33.0693 153.024 33C153.232 32.9253 153.406 32.8267 153.544 32.704C153.683 32.5813 153.784 32.44 153.848 32.28C153.918 32.12 153.952 31.9493 153.952 31.768C153.952 31.544 153.891 31.36 153.768 31.216C153.651 31.0667 153.494 30.9413 153.296 30.84C153.099 30.7333 152.872 30.6427 152.616 30.568C152.366 30.488 152.107 30.4053 151.84 30.32C151.579 30.2347 151.32 30.1387 151.064 30.032C150.814 29.92 150.59 29.7813 150.392 29.616C150.195 29.4507 150.035 29.248 149.912 29.008C149.795 28.7627 149.736 28.4667 149.736 28.12C149.736 27.8107 149.8 27.5147 149.928 27.232C150.056 26.944 150.243 26.6933 150.488 26.48C150.734 26.2613 151.035 26.088 151.392 25.96C151.75 25.832 152.158 25.768 152.616 25.768C153.15 25.768 153.627 25.8533 154.048 26.024C154.475 26.1893 154.843 26.4187 155.152 26.712L154.832 27.232Z" fill="#242E30"/>
<path d="M275.64 32.992C276.013 32.992 276.347 32.9413 276.64 32.84C276.939 32.7333 277.189 32.5867 277.392 32.4C277.6 32.208 277.757 31.9813 277.864 31.72C277.976 31.4533 278.032 31.16 278.032 30.84C278.032 30.4453 277.965 30.1093 277.832 29.832C277.704 29.5493 277.528 29.32 277.304 29.144C277.085 28.968 276.832 28.84 276.544 28.76C276.256 28.6747 275.955 28.632 275.64 28.632C275.325 28.632 275.024 28.6747 274.736 28.76C274.448 28.84 274.192 28.968 273.968 29.144C273.749 29.32 273.573 29.5493 273.44 29.832C273.312 30.1093 273.248 30.4453 273.248 30.84C273.248 31.16 273.301 31.4533 273.408 31.72C273.52 31.9813 273.677 32.208 273.88 32.4C274.088 32.5867 274.339 32.7333 274.632 32.84C274.931 32.9413 275.267 32.992 275.64 32.992ZM275.64 23.512C275.299 23.512 274.997 23.5627 274.736 23.664C274.48 23.7653 274.264 23.904 274.088 24.08C273.917 24.256 273.787 24.4613 273.696 24.696C273.611 24.9307 273.568 25.1813 273.568 25.448C273.568 25.7093 273.605 25.9627 273.68 26.208C273.755 26.4533 273.875 26.672 274.04 26.864C274.205 27.0507 274.419 27.2027 274.68 27.32C274.947 27.432 275.267 27.488 275.64 27.488C276.013 27.488 276.331 27.432 276.592 27.32C276.859 27.2027 277.075 27.0507 277.24 26.864C277.405 26.672 277.525 26.4533 277.6 26.208C277.675 25.9627 277.712 25.7093 277.712 25.448C277.712 25.1813 277.667 24.9307 277.576 24.696C277.491 24.4613 277.36 24.256 277.184 24.08C277.013 23.904 276.797 23.7653 276.536 23.664C276.28 23.5627 275.981 23.512 275.64 23.512ZM277.28 28.024C277.995 28.2267 278.544 28.5653 278.928 29.04C279.312 29.5147 279.504 30.1227 279.504 30.864C279.504 31.3653 279.408 31.8187 279.216 32.224C279.029 32.624 278.765 32.9653 278.424 33.248C278.088 33.5307 277.683 33.7493 277.208 33.904C276.733 34.0533 276.211 34.128 275.64 34.128C275.069 34.128 274.547 34.0533 274.072 33.904C273.597 33.7493 273.189 33.5307 272.848 33.248C272.507 32.9653 272.243 32.624 272.056 32.224C271.869 31.8187 271.776 31.3653 271.776 30.864C271.776 30.1227 271.968 29.5147 272.352 29.04C272.736 28.5653 273.285 28.2267 274 28.024C273.397 27.8 272.941 27.4667 272.632 27.024C272.328 26.576 272.176 26.0427 272.176 25.424C272.176 25.0027 272.259 24.608 272.424 24.24C272.589 23.872 272.824 23.552 273.128 23.28C273.432 23.008 273.795 22.7947 274.216 22.64C274.643 22.4853 275.117 22.408 275.64 22.408C276.157 22.408 276.629 22.4853 277.056 22.64C277.483 22.7947 277.848 23.008 278.152 23.28C278.456 23.552 278.691 23.872 278.856 24.24C279.021 24.608 279.104 25.0027 279.104 25.424C279.104 26.0427 278.949 26.576 278.64 27.024C278.336 27.4667 277.883 27.8 277.28 28.024Z" fill="#242E30"/>
<defs>
<filter id="filter0_d_20_470" x="0" y="0" width="313" height="57" filterUnits="userSpaceOnUse" color-interpolation-filters="sRGB">
<feFlood flood-opacity="0" result="BackgroundImageFix"/>
<feColorMatrix in="SourceAlpha" type="matrix" values="0 0 0 0 0 0 0 0 0 0 0 0 0 0 0 0 0 0 127 0" result="hardAlpha"/>
<feMorphology radius="1" operator="dilate" in="SourceAlpha" result="effect1_dropShadow_20_470"/>
<feOffset/>
<feGaussianBlur stdDeviation="1.5"/>
<feComposite in2="hardAlpha" operator="out"/>
<feColorMatrix type="matrix" values="0 0 0 0 0.937255 0 0 0 0 0.929412 0 0 0 0 0.917647 0 0 0 1 0"/>
<feBlend mode="normal" in2="BackgroundImageFix" result="effect1_dropShadow_20_470"/>
<feBlend mode="normal" in="SourceGraphic" in2="effect1_dropShadow_20_470" result="shape"/>
</filter>
</defs>
</svg>
