<svg width="322" height="116" viewBox="0 0 322 116" fill="none" xmlns="http://www.w3.org/2000/svg">
<rect width="322" height="116" rx="58" fill="#EBEBEB"/>
<path d="M74.512 36.632C74.5973 36.632 74.672 36.6667 74.736 36.736L75.352 37.4C74.8827 37.944 74.312 38.368 73.64 38.672C72.9733 38.976 72.1653 39.128 71.216 39.128C70.3947 39.128 69.648 38.9867 68.976 38.704C68.304 38.416 67.7307 38.016 67.256 37.504C66.7813 36.9867 66.4133 36.368 66.152 35.648C65.8907 34.928 65.76 34.136 65.76 33.272C65.76 32.408 65.896 31.616 66.168 30.896C66.44 30.176 66.8213 29.5573 67.312 29.04C67.808 28.5227 68.4 28.1227 69.088 27.84C69.776 27.552 70.536 27.408 71.368 27.408C72.184 27.408 72.904 27.5387 73.528 27.8C74.152 28.0613 74.7013 28.416 75.176 28.864L74.664 29.576C74.632 29.6293 74.5893 29.6747 74.536 29.712C74.488 29.744 74.4213 29.76 74.336 29.76C74.24 29.76 74.1227 29.7093 73.984 29.608C73.8453 29.5013 73.664 29.384 73.44 29.256C73.216 29.128 72.936 29.0133 72.6 28.912C72.264 28.8053 71.8507 28.752 71.36 28.752C70.768 28.752 70.2267 28.856 69.736 29.064C69.2453 29.2667 68.8213 29.5627 68.464 29.952C68.112 30.3413 67.8373 30.816 67.64 31.376C67.4427 31.936 67.344 32.568 67.344 33.272C67.344 33.9867 67.4453 34.624 67.648 35.184C67.856 35.744 68.136 36.2187 68.488 36.608C68.8453 36.992 69.264 37.2853 69.744 37.488C70.2293 37.6907 70.752 37.792 71.312 37.792C71.6533 37.792 71.96 37.7733 72.232 37.736C72.5093 37.6933 72.7627 37.6293 72.992 37.544C73.2267 37.4587 73.4427 37.352 73.64 37.224C73.8427 37.0907 74.0427 36.9333 74.24 36.752C74.3307 36.672 74.4213 36.632 74.512 36.632ZM81.2075 35.352C80.5515 35.3733 79.9915 35.4267 79.5275 35.512C79.0688 35.592 78.6928 35.6987 78.3995 35.832C78.1115 35.9653 77.9008 36.1227 77.7675 36.304C77.6395 36.4853 77.5755 36.688 77.5755 36.912C77.5755 37.1253 77.6102 37.3093 77.6795 37.464C77.7488 37.6187 77.8422 37.7467 77.9595 37.848C78.0822 37.944 78.2235 38.016 78.3835 38.064C78.5488 38.1067 78.7248 38.128 78.9115 38.128C79.1622 38.128 79.3915 38.104 79.5995 38.056C79.8075 38.0027 80.0022 37.928 80.1835 37.832C80.3702 37.736 80.5462 37.6213 80.7115 37.488C80.8822 37.3547 81.0475 37.2027 81.2075 37.032V35.352ZM76.6075 32.04C77.0555 31.608 77.5382 31.2853 78.0555 31.072C78.5728 30.8587 79.1462 30.752 79.7755 30.752C80.2288 30.752 80.6315 30.8267 80.9835 30.976C81.3355 31.1253 81.6315 31.3333 81.8715 31.6C82.1115 31.8667 82.2928 32.1893 82.4155 32.568C82.5382 32.9467 82.5995 33.3627 82.5995 33.816V39H81.9675C81.8288 39 81.7222 38.9787 81.6475 38.936C81.5728 38.888 81.5142 38.7973 81.4715 38.664L81.3115 37.896C81.0982 38.0933 80.8902 38.2693 80.6875 38.424C80.4848 38.5733 80.2715 38.7013 80.0475 38.808C79.8235 38.9093 79.5835 38.9867 79.3275 39.04C79.0768 39.0987 78.7968 39.128 78.4875 39.128C78.1728 39.128 77.8768 39.0853 77.5995 39C77.3222 38.9093 77.0795 38.776 76.8715 38.6C76.6688 38.424 76.5062 38.2027 76.3835 37.936C76.2662 37.664 76.2075 37.344 76.2075 36.976C76.2075 36.656 76.2955 36.3493 76.4715 36.056C76.6475 35.7573 76.9328 35.4933 77.3275 35.264C77.7222 35.0347 78.2368 34.848 78.8715 34.704C79.5062 34.5547 80.2848 34.4693 81.2075 34.448V33.816C81.2075 33.1867 81.0715 32.712 80.7995 32.392C80.5275 32.0667 80.1302 31.904 79.6075 31.904C79.2555 31.904 78.9595 31.9493 78.7195 32.04C78.4848 32.1253 78.2795 32.224 78.1035 32.336C77.9328 32.4427 77.7835 32.5413 77.6555 32.632C77.5328 32.7173 77.4102 32.76 77.2875 32.76C77.1915 32.76 77.1088 32.736 77.0395 32.688C76.9702 32.6347 76.9115 32.5707 76.8635 32.496L76.6075 32.04ZM86.2406 27.216V39H84.8166V27.216H86.2406ZM90.0219 27.216V39H88.5979V27.216H90.0219ZM97.7551 34.064C97.7551 33.7333 97.7071 33.432 97.6111 33.16C97.5205 32.8827 97.3845 32.6453 97.2031 32.448C97.0271 32.2453 96.8111 32.0907 96.5551 31.984C96.2991 31.872 96.0085 31.816 95.6831 31.816C95.0005 31.816 94.4591 32.016 94.0591 32.416C93.6645 32.8107 93.4191 33.36 93.3231 34.064H97.7551ZM98.9071 37.864C98.7311 38.0773 98.5205 38.264 98.2751 38.424C98.0298 38.5787 97.7658 38.7067 97.4831 38.808C97.2058 38.9093 96.9178 38.984 96.6191 39.032C96.3205 39.0853 96.0245 39.112 95.7311 39.112C95.1711 39.112 94.6538 39.0187 94.1791 38.832C93.7098 38.64 93.3018 38.3627 92.9551 38C92.6138 37.632 92.3471 37.1787 92.1551 36.64C91.9631 36.1013 91.8671 35.4827 91.8671 34.784C91.8671 34.2187 91.9525 33.6907 92.1231 33.2C92.2991 32.7093 92.5498 32.2853 92.8751 31.928C93.2005 31.5653 93.5978 31.2827 94.0671 31.08C94.5365 30.872 95.0645 30.768 95.6511 30.768C96.1365 30.768 96.5845 30.8507 96.9951 31.016C97.4111 31.176 97.7685 31.4107 98.0671 31.72C98.3711 32.024 98.6085 32.4027 98.7791 32.856C98.9498 33.304 99.0351 33.816 99.0351 34.392C99.0351 34.616 99.0111 34.7653 98.9631 34.84C98.9151 34.9147 98.8245 34.952 98.6911 34.952H93.2751C93.2911 35.464 93.3605 35.9093 93.4831 36.288C93.6111 36.6667 93.7871 36.984 94.0111 37.24C94.2351 37.4907 94.5018 37.68 94.8111 37.808C95.1205 37.9307 95.4671 37.992 95.8511 37.992C96.2085 37.992 96.5151 37.952 96.7711 37.872C97.0325 37.7867 97.2565 37.696 97.4431 37.6C97.6298 37.504 97.7845 37.416 97.9071 37.336C98.0351 37.2507 98.1445 37.208 98.2351 37.208C98.3525 37.208 98.4431 37.2533 98.5071 37.344L98.9071 37.864ZM108.598 33.48C109.041 33.48 109.43 33.4213 109.766 33.304C110.107 33.1867 110.393 33.024 110.622 32.816C110.857 32.6027 111.033 32.3493 111.15 32.056C111.267 31.7627 111.326 31.44 111.326 31.088C111.326 30.3573 111.099 29.7867 110.646 29.376C110.198 28.9653 109.515 28.76 108.598 28.76H106.758V33.48H108.598ZM108.598 27.536C109.323 27.536 109.953 27.6213 110.486 27.792C111.025 27.9573 111.47 28.1947 111.822 28.504C112.174 28.8133 112.435 29.1867 112.606 29.624C112.782 30.0613 112.87 30.5493 112.87 31.088C112.87 31.6213 112.777 32.1093 112.59 32.552C112.403 32.9947 112.129 33.376 111.766 33.696C111.409 34.016 110.963 34.2667 110.43 34.448C109.902 34.624 109.291 34.712 108.598 34.712H106.758V39H105.214V27.536H108.598ZM115.683 32.52C115.939 31.9653 116.254 31.5333 116.627 31.224C117 30.9093 117.456 30.752 117.995 30.752C118.166 30.752 118.328 30.7707 118.483 30.808C118.643 30.8453 118.784 30.904 118.907 30.984L118.803 32.048C118.771 32.1813 118.691 32.248 118.563 32.248C118.488 32.248 118.379 32.232 118.235 32.2C118.091 32.168 117.928 32.152 117.747 32.152C117.491 32.152 117.262 32.1893 117.059 32.264C116.862 32.3387 116.683 32.4507 116.523 32.6C116.368 32.744 116.227 32.9253 116.099 33.144C115.976 33.3573 115.864 33.6027 115.763 33.88V39H114.331V30.896H115.147C115.302 30.896 115.408 30.9253 115.467 30.984C115.526 31.0427 115.566 31.144 115.587 31.288L115.683 32.52ZM126.823 30.896V39H125.975C125.773 39 125.645 38.9013 125.591 38.704L125.479 37.832C125.127 38.2213 124.733 38.536 124.295 38.776C123.858 39.0107 123.357 39.128 122.791 39.128C122.349 39.128 121.957 39.056 121.615 38.912C121.279 38.7627 120.997 38.5547 120.767 38.288C120.538 38.0213 120.365 37.6987 120.247 37.32C120.135 36.9413 120.079 36.5227 120.079 36.064V30.896H121.503V36.064C121.503 36.6773 121.642 37.152 121.919 37.488C122.202 37.824 122.631 37.992 123.207 37.992C123.629 37.992 124.021 37.8933 124.383 37.696C124.751 37.4933 125.09 37.216 125.399 36.864V30.896H126.823ZM134.505 34.064C134.505 33.7333 134.457 33.432 134.361 33.16C134.27 32.8827 134.134 32.6453 133.953 32.448C133.777 32.2453 133.561 32.0907 133.305 31.984C133.049 31.872 132.758 31.816 132.433 31.816C131.75 31.816 131.209 32.016 130.809 32.416C130.414 32.8107 130.169 33.36 130.073 34.064H134.505ZM135.657 37.864C135.481 38.0773 135.27 38.264 135.025 38.424C134.78 38.5787 134.516 38.7067 134.233 38.808C133.956 38.9093 133.668 38.984 133.369 39.032C133.07 39.0853 132.774 39.112 132.481 39.112C131.921 39.112 131.404 39.0187 130.929 38.832C130.46 38.64 130.052 38.3627 129.705 38C129.364 37.632 129.097 37.1787 128.905 36.64C128.713 36.1013 128.617 35.4827 128.617 34.784C128.617 34.2187 128.702 33.6907 128.873 33.2C129.049 32.7093 129.3 32.2853 129.625 31.928C129.95 31.5653 130.348 31.2827 130.817 31.08C131.286 30.872 131.814 30.768 132.401 30.768C132.886 30.768 133.334 30.8507 133.745 31.016C134.161 31.176 134.518 31.4107 134.817 31.72C135.121 32.024 135.358 32.4027 135.529 32.856C135.7 33.304 135.785 33.816 135.785 34.392C135.785 34.616 135.761 34.7653 135.713 34.84C135.665 34.9147 135.574 34.952 135.441 34.952H130.025C130.041 35.464 130.11 35.9093 130.233 36.288C130.361 36.6667 130.537 36.984 130.761 37.24C130.985 37.4907 131.252 37.68 131.561 37.808C131.87 37.9307 132.217 37.992 132.601 37.992C132.958 37.992 133.265 37.952 133.521 37.872C133.782 37.7867 134.006 37.696 134.193 37.6C134.38 37.504 134.534 37.416 134.657 37.336C134.785 37.2507 134.894 37.208 134.985 37.208C135.102 37.208 135.193 37.2533 135.257 37.344L135.657 37.864ZM138.966 37.048C139.228 37.4 139.513 37.648 139.822 37.792C140.137 37.936 140.481 38.008 140.854 38.008C141.617 38.008 142.201 37.7387 142.606 37.2C143.012 36.6613 143.214 35.8587 143.214 34.792C143.214 33.8 143.033 33.072 142.67 32.608C142.313 32.1387 141.801 31.904 141.134 31.904C140.67 31.904 140.265 32.0107 139.918 32.224C139.577 32.4373 139.26 32.7387 138.966 33.128V37.048ZM138.966 32.064C139.308 31.6693 139.692 31.3547 140.118 31.12C140.55 30.8853 141.046 30.768 141.606 30.768C142.081 30.768 142.508 30.8587 142.886 31.04C143.27 31.2213 143.596 31.4853 143.862 31.832C144.129 32.1733 144.332 32.5893 144.47 33.08C144.614 33.5707 144.686 34.1227 144.686 34.736C144.686 35.392 144.606 35.9893 144.446 36.528C144.286 37.0667 144.054 37.528 143.75 37.912C143.452 38.2907 143.086 38.5867 142.654 38.8C142.222 39.008 141.737 39.112 141.198 39.112C140.665 39.112 140.214 39.0133 139.846 38.816C139.484 38.6133 139.166 38.328 138.894 37.96L138.822 38.696C138.78 38.8987 138.657 39 138.454 39H137.534V27.216H138.966V32.064ZM150.879 35.352C150.223 35.3733 149.663 35.4267 149.199 35.512C148.741 35.592 148.365 35.6987 148.071 35.832C147.783 35.9653 147.573 36.1227 147.439 36.304C147.311 36.4853 147.247 36.688 147.247 36.912C147.247 37.1253 147.282 37.3093 147.351 37.464C147.421 37.6187 147.514 37.7467 147.631 37.848C147.754 37.944 147.895 38.016 148.055 38.064C148.221 38.1067 148.397 38.128 148.583 38.128C148.834 38.128 149.063 38.104 149.271 38.056C149.479 38.0027 149.674 37.928 149.855 37.832C150.042 37.736 150.218 37.6213 150.383 37.488C150.554 37.3547 150.719 37.2027 150.879 37.032V35.352ZM146.279 32.04C146.727 31.608 147.21 31.2853 147.727 31.072C148.245 30.8587 148.818 30.752 149.447 30.752C149.901 30.752 150.303 30.8267 150.655 30.976C151.007 31.1253 151.303 31.3333 151.543 31.6C151.783 31.8667 151.965 32.1893 152.087 32.568C152.21 32.9467 152.271 33.3627 152.271 33.816V39H151.639C151.501 39 151.394 38.9787 151.319 38.936C151.245 38.888 151.186 38.7973 151.143 38.664L150.983 37.896C150.77 38.0933 150.562 38.2693 150.359 38.424C150.157 38.5733 149.943 38.7013 149.719 38.808C149.495 38.9093 149.255 38.9867 148.999 39.04C148.749 39.0987 148.469 39.128 148.159 39.128C147.845 39.128 147.549 39.0853 147.271 39C146.994 38.9093 146.751 38.776 146.543 38.6C146.341 38.424 146.178 38.2027 146.055 37.936C145.938 37.664 145.879 37.344 145.879 36.976C145.879 36.656 145.967 36.3493 146.143 36.056C146.319 35.7573 146.605 35.4933 146.999 35.264C147.394 35.0347 147.909 34.848 148.543 34.704C149.178 34.5547 149.957 34.4693 150.879 34.448V33.816C150.879 33.1867 150.743 32.712 150.471 32.392C150.199 32.0667 149.802 31.904 149.279 31.904C148.927 31.904 148.631 31.9493 148.391 32.04C148.157 32.1253 147.951 32.224 147.775 32.336C147.605 32.4427 147.455 32.5413 147.327 32.632C147.205 32.7173 147.082 32.76 146.959 32.76C146.863 32.76 146.781 32.736 146.711 32.688C146.642 32.6347 146.583 32.5707 146.535 32.496L146.279 32.04ZM154.353 40.936C154.31 40.8987 154.281 40.864 154.265 40.832C154.249 40.8 154.241 40.76 154.241 40.712C154.241 40.6747 154.251 40.6373 154.273 40.6C154.299 40.5627 154.329 40.528 154.361 40.496C154.414 40.4373 154.481 40.36 154.561 40.264C154.646 40.168 154.731 40.0533 154.817 39.92C154.902 39.792 154.979 39.648 155.049 39.488C155.123 39.3333 155.177 39.168 155.209 38.992C155.193 38.9973 155.174 39 155.153 39C155.137 39 155.121 39 155.105 39C154.827 39 154.601 38.9093 154.425 38.728C154.254 38.5413 154.169 38.304 154.169 38.016C154.169 37.7653 154.254 37.552 154.425 37.376C154.601 37.2 154.833 37.112 155.121 37.112C155.281 37.112 155.422 37.1413 155.545 37.2C155.667 37.2587 155.769 37.3413 155.849 37.448C155.934 37.5493 155.998 37.6693 156.041 37.808C156.083 37.9413 156.105 38.088 156.105 38.248C156.105 38.488 156.07 38.7387 156.001 39C155.937 39.256 155.838 39.5093 155.705 39.76C155.577 40.016 155.419 40.264 155.233 40.504C155.046 40.744 154.833 40.9653 154.593 41.168L154.353 40.936ZM162.071 30.64C162.146 30.1173 162.29 29.656 162.503 29.256C162.717 28.8507 162.986 28.512 163.311 28.24C163.642 27.968 164.018 27.7627 164.439 27.624C164.866 27.48 165.325 27.408 165.815 27.408C166.301 27.408 166.749 27.4773 167.159 27.616C167.57 27.7547 167.922 27.952 168.215 28.208C168.514 28.464 168.746 28.7733 168.911 29.136C169.077 29.4987 169.159 29.9013 169.159 30.344C169.159 30.7067 169.111 31.032 169.015 31.32C168.925 31.6027 168.791 31.8507 168.615 32.064C168.445 32.2773 168.237 32.4587 167.991 32.608C167.746 32.7573 167.471 32.88 167.167 32.976C167.914 33.168 168.474 33.4987 168.847 33.968C169.226 34.432 169.415 35.0133 169.415 35.712C169.415 36.24 169.314 36.7147 169.111 37.136C168.914 37.5573 168.642 37.9173 168.295 38.216C167.949 38.5093 167.543 38.736 167.079 38.896C166.621 39.0507 166.127 39.128 165.599 39.128C164.991 39.128 164.471 39.0533 164.039 38.904C163.607 38.7493 163.242 38.5387 162.943 38.272C162.645 38.0053 162.399 37.6907 162.207 37.328C162.015 36.96 161.853 36.5627 161.719 36.136L162.335 35.88C162.495 35.8107 162.65 35.792 162.799 35.824C162.954 35.856 163.066 35.944 163.135 36.088C163.205 36.2373 163.29 36.416 163.391 36.624C163.498 36.832 163.642 37.032 163.823 37.224C164.005 37.416 164.234 37.5787 164.511 37.712C164.794 37.8453 165.151 37.912 165.583 37.912C165.983 37.912 166.333 37.848 166.631 37.72C166.935 37.5867 167.186 37.416 167.383 37.208C167.586 37 167.738 36.768 167.839 36.512C167.941 36.256 167.991 36.0027 167.991 35.752C167.991 35.4427 167.951 35.16 167.871 34.904C167.791 34.648 167.642 34.4267 167.423 34.24C167.205 34.0533 166.903 33.9067 166.519 33.8C166.141 33.6933 165.653 33.64 165.055 33.64V32.608C165.546 32.6027 165.962 32.5493 166.303 32.448C166.65 32.3467 166.93 32.208 167.143 32.032C167.362 31.856 167.519 31.6453 167.615 31.4C167.717 31.1547 167.767 30.8827 167.767 30.584C167.767 30.2533 167.714 29.9653 167.607 29.72C167.506 29.4747 167.365 29.272 167.183 29.112C167.002 28.952 166.786 28.832 166.535 28.752C166.29 28.672 166.023 28.632 165.735 28.632C165.447 28.632 165.178 28.6747 164.927 28.76C164.682 28.8453 164.463 28.9653 164.271 29.12C164.085 29.2693 163.927 29.448 163.799 29.656C163.671 29.864 163.581 30.0933 163.527 30.344C163.458 30.5307 163.37 30.656 163.263 30.72C163.162 30.7787 163.013 30.7947 162.815 30.768L162.071 30.64ZM173.209 31.864C173.806 31.736 174.355 31.672 174.857 31.672C175.454 31.672 175.982 31.76 176.441 31.936C176.899 32.112 177.281 32.3547 177.585 32.664C177.894 32.9733 178.126 33.3387 178.281 33.76C178.441 34.1813 178.521 34.64 178.521 35.136C178.521 35.744 178.414 36.2933 178.201 36.784C177.993 37.2747 177.702 37.696 177.329 38.048C176.961 38.3947 176.526 38.6613 176.025 38.848C175.523 39.0347 174.982 39.128 174.401 39.128C174.065 39.128 173.742 39.0933 173.433 39.024C173.123 38.96 172.833 38.872 172.561 38.76C172.294 38.648 172.046 38.52 171.817 38.376C171.587 38.232 171.385 38.08 171.209 37.92L171.649 37.312C171.745 37.1733 171.87 37.104 172.025 37.104C172.131 37.104 172.251 37.1467 172.385 37.232C172.518 37.312 172.681 37.4027 172.873 37.504C173.065 37.6053 173.289 37.6987 173.545 37.784C173.806 37.864 174.115 37.904 174.473 37.904C174.873 37.904 175.233 37.84 175.553 37.712C175.873 37.584 176.147 37.4027 176.377 37.168C176.606 36.928 176.782 36.6427 176.905 36.312C177.027 35.9813 177.089 35.6107 177.089 35.2C177.089 34.8427 177.035 34.52 176.929 34.232C176.827 33.944 176.67 33.6987 176.457 33.496C176.249 33.2933 175.987 33.136 175.673 33.024C175.358 32.912 174.99 32.856 174.569 32.856C174.281 32.856 173.979 32.88 173.665 32.928C173.355 32.976 173.038 33.0533 172.713 33.16L171.817 32.896L172.737 27.536H178.169V28.16C178.169 28.3627 178.105 28.5307 177.977 28.664C177.854 28.792 177.641 28.856 177.337 28.856H173.737L173.209 31.864ZM188.394 33.272C188.394 34.2747 188.284 35.144 188.066 35.88C187.852 36.6107 187.559 37.216 187.186 37.696C186.812 38.176 186.37 38.5333 185.858 38.768C185.351 39.0027 184.807 39.12 184.226 39.12C183.639 39.12 183.092 39.0027 182.586 38.768C182.084 38.5333 181.647 38.176 181.274 37.696C180.9 37.216 180.607 36.6107 180.394 35.88C180.18 35.144 180.074 34.2747 180.074 33.272C180.074 32.2693 180.18 31.4 180.394 30.664C180.607 29.928 180.9 29.32 181.274 28.84C181.647 28.3547 182.084 27.9947 182.586 27.76C183.092 27.5253 183.639 27.408 184.226 27.408C184.807 27.408 185.351 27.5253 185.858 27.76C186.37 27.9947 186.812 28.3547 187.186 28.84C187.559 29.32 187.852 29.928 188.066 30.664C188.284 31.4 188.394 32.2693 188.394 33.272ZM186.914 33.272C186.914 32.3973 186.839 31.664 186.69 31.072C186.546 30.4747 186.348 29.9947 186.098 29.632C185.852 29.2693 185.567 29.0107 185.242 28.856C184.916 28.696 184.578 28.616 184.226 28.616C183.874 28.616 183.535 28.696 183.21 28.856C182.884 29.0107 182.599 29.2693 182.354 29.632C182.108 29.9947 181.911 30.4747 181.762 31.072C181.618 31.664 181.546 32.3973 181.546 33.272C181.546 34.1467 181.618 34.88 181.762 35.472C181.911 36.064 182.108 36.5413 182.354 36.904C182.599 37.2667 182.884 37.528 183.21 37.688C183.535 37.8427 183.874 37.92 184.226 37.92C184.578 37.92 184.916 37.8427 185.242 37.688C185.567 37.528 185.852 37.2667 186.098 36.904C186.348 36.5413 186.546 36.064 186.69 35.472C186.839 34.88 186.914 34.1467 186.914 33.272ZM197.019 37.912V39H190.875V37.912H193.331V30.096C193.331 29.8613 193.339 29.624 193.355 29.384L191.315 31.136C191.246 31.1947 191.176 31.232 191.107 31.248C191.038 31.2587 190.974 31.2587 190.915 31.248C190.856 31.2373 190.8 31.216 190.747 31.184C190.699 31.152 190.662 31.1173 190.635 31.08L190.187 30.464L193.603 27.512H194.763V37.912H197.019ZM200.42 30.904C200.42 31.2667 200.471 31.592 200.572 31.88C200.679 32.1627 200.828 32.4027 201.02 32.6C201.218 32.7973 201.455 32.9467 201.732 33.048C202.015 33.1493 202.33 33.2 202.676 33.2C203.06 33.2 203.399 33.1387 203.692 33.016C203.991 32.888 204.242 32.72 204.444 32.512C204.647 32.304 204.802 32.064 204.908 31.792C205.015 31.52 205.068 31.2373 205.068 30.944C205.068 30.5867 205.01 30.264 204.892 29.976C204.78 29.6827 204.623 29.4347 204.42 29.232C204.218 29.0293 203.975 28.8747 203.692 28.768C203.415 28.656 203.108 28.6 202.772 28.6C202.42 28.6 202.1 28.6587 201.812 28.776C201.524 28.888 201.276 29.0453 201.068 29.248C200.86 29.4507 200.7 29.6933 200.588 29.976C200.476 30.2587 200.42 30.568 200.42 30.904ZM203.748 34.432C203.866 34.2773 203.975 34.1307 204.076 33.992C204.178 33.8533 204.274 33.7147 204.364 33.576C204.071 33.8107 203.74 33.9893 203.372 34.112C203.004 34.2347 202.615 34.296 202.204 34.296C201.772 34.296 201.362 34.224 200.972 34.08C200.588 33.936 200.25 33.7253 199.956 33.448C199.663 33.1653 199.428 32.8213 199.252 32.416C199.082 32.0053 198.996 31.536 198.996 31.008C198.996 30.5067 199.09 30.0373 199.276 29.6C199.463 29.1627 199.724 28.7813 200.06 28.456C200.396 28.1307 200.796 27.8747 201.26 27.688C201.724 27.5013 202.234 27.408 202.788 27.408C203.338 27.408 203.836 27.4987 204.284 27.68C204.732 27.8613 205.116 28.1147 205.436 28.44C205.756 28.7653 206.002 29.1547 206.172 29.608C206.348 30.0613 206.436 30.5627 206.436 31.112C206.436 31.4427 206.404 31.7573 206.34 32.056C206.282 32.3493 206.194 32.64 206.076 32.928C205.964 33.2107 205.826 33.4933 205.66 33.776C205.495 34.0533 205.308 34.3387 205.1 34.632L202.308 38.664C202.239 38.7653 202.14 38.848 202.012 38.912C201.884 38.9707 201.738 39 201.572 39H200.26L203.748 34.432ZM72.968 61.696V63H66.464V51.536H68.008V61.696H72.968ZM78.7388 59.352C78.0828 59.3733 77.5228 59.4267 77.0588 59.512C76.6001 59.592 76.2241 59.6987 75.9308 59.832C75.6428 59.9653 75.4321 60.1227 75.2988 60.304C75.1708 60.4853 75.1068 60.688 75.1068 60.912C75.1068 61.1253 75.1414 61.3093 75.2108 61.464C75.2801 61.6187 75.3734 61.7467 75.4908 61.848C75.6134 61.944 75.7548 62.016 75.9148 62.064C76.0801 62.1067 76.2561 62.128 76.4428 62.128C76.6934 62.128 76.9228 62.104 77.1308 62.056C77.3388 62.0027 77.5334 61.928 77.7148 61.832C77.9014 61.736 78.0774 61.6213 78.2428 61.488C78.4134 61.3547 78.5788 61.2027 78.7388 61.032V59.352ZM74.1388 56.04C74.5868 55.608 75.0694 55.2853 75.5868 55.072C76.1041 54.8587 76.6774 54.752 77.3068 54.752C77.7601 54.752 78.1628 54.8267 78.5148 54.976C78.8668 55.1253 79.1628 55.3333 79.4028 55.6C79.6428 55.8667 79.8241 56.1893 79.9468 56.568C80.0694 56.9467 80.1308 57.3627 80.1308 57.816V63H79.4988C79.3601 63 79.2534 62.9787 79.1788 62.936C79.1041 62.888 79.0454 62.7973 79.0028 62.664L78.8428 61.896C78.6294 62.0933 78.4214 62.2693 78.2188 62.424C78.0161 62.5733 77.8028 62.7013 77.5788 62.808C77.3548 62.9093 77.1148 62.9867 76.8588 63.04C76.6081 63.0987 76.3281 63.128 76.0188 63.128C75.7041 63.128 75.4081 63.0853 75.1308 63C74.8534 62.9093 74.6108 62.776 74.4028 62.6C74.2001 62.424 74.0374 62.2027 73.9148 61.936C73.7974 61.664 73.7388 61.344 73.7388 60.976C73.7388 60.656 73.8268 60.3493 74.0028 60.056C74.1788 59.7573 74.4641 59.4933 74.8588 59.264C75.2534 59.0347 75.7681 58.848 76.4028 58.704C77.0374 58.5547 77.8161 58.4693 78.7388 58.448V57.816C78.7388 57.1867 78.6028 56.712 78.3308 56.392C78.0588 56.0667 77.6614 55.904 77.1388 55.904C76.7868 55.904 76.4908 55.9493 76.2508 56.04C76.0161 56.1253 75.8108 56.224 75.6348 56.336C75.4641 56.4427 75.3148 56.5413 75.1868 56.632C75.0641 56.7173 74.9414 56.76 74.8188 56.76C74.7228 56.76 74.6401 56.736 74.5708 56.688C74.5014 56.6347 74.4428 56.5707 74.3947 56.496L74.1388 56.04ZM87.0199 56.232C86.9559 56.3493 86.8572 56.408 86.7239 56.408C86.6439 56.408 86.5532 56.3787 86.4519 56.32C86.3505 56.2613 86.2252 56.1973 86.0759 56.128C85.9319 56.0533 85.7585 55.9867 85.5559 55.928C85.3532 55.864 85.1132 55.832 84.8359 55.832C84.5959 55.832 84.3799 55.864 84.1879 55.928C83.9959 55.9867 83.8305 56.0693 83.6919 56.176C83.5585 56.2827 83.4545 56.408 83.3799 56.552C83.3105 56.6907 83.2759 56.8427 83.2759 57.008C83.2759 57.216 83.3345 57.3893 83.4519 57.528C83.5745 57.6667 83.7345 57.7867 83.9319 57.888C84.1292 57.9893 84.3532 58.08 84.6039 58.16C84.8545 58.2347 85.1105 58.3173 85.3719 58.408C85.6385 58.4933 85.8972 58.5893 86.1479 58.696C86.3985 58.8027 86.6225 58.936 86.8199 59.096C87.0172 59.256 87.1745 59.4533 87.2919 59.688C87.4145 59.9173 87.4759 60.1947 87.4759 60.52C87.4759 60.8933 87.4092 61.24 87.2759 61.56C87.1425 61.8747 86.9452 62.1493 86.6839 62.384C86.4225 62.6133 86.1025 62.7947 85.7239 62.928C85.3452 63.0613 84.9079 63.128 84.4119 63.128C83.8465 63.128 83.3345 63.0373 82.8759 62.856C82.4172 62.6693 82.0279 62.432 81.7079 62.144L82.0439 61.6C82.0865 61.5307 82.1372 61.4773 82.1959 61.44C82.2545 61.4027 82.3292 61.384 82.4199 61.384C82.5159 61.384 82.6172 61.4213 82.7239 61.496C82.8305 61.5707 82.9585 61.6533 83.1079 61.744C83.2625 61.8347 83.4492 61.9173 83.6679 61.992C83.8865 62.0667 84.1585 62.104 84.4839 62.104C84.7612 62.104 85.0039 62.0693 85.2119 62C85.4199 61.9253 85.5932 61.8267 85.7319 61.704C85.8705 61.5813 85.9719 61.44 86.0359 61.28C86.1052 61.12 86.1399 60.9493 86.1399 60.768C86.1399 60.544 86.0785 60.36 85.9559 60.216C85.8385 60.0667 85.6812 59.9413 85.4839 59.84C85.2865 59.7333 85.0599 59.6427 84.8039 59.568C84.5532 59.488 84.2945 59.4053 84.0279 59.32C83.7665 59.2347 83.5079 59.1387 83.2519 59.032C83.0012 58.92 82.7772 58.7813 82.5799 58.616C82.3825 58.4507 82.2225 58.248 82.0999 58.008C81.9825 57.7627 81.9239 57.4667 81.9239 57.12C81.9239 56.8107 81.9879 56.5147 82.1159 56.232C82.2439 55.944 82.4305 55.6933 82.6759 55.48C82.9212 55.2613 83.2225 55.088 83.5799 54.96C83.9372 54.832 84.3452 54.768 84.8039 54.768C85.3372 54.768 85.8145 54.8533 86.2359 55.024C86.6625 55.1893 87.0305 55.4187 87.3399 55.712L87.0199 56.232ZM97.0355 57.48C97.4782 57.48 97.8675 57.4213 98.2035 57.304C98.5448 57.1867 98.8302 57.024 99.0595 56.816C99.2942 56.6027 99.4702 56.3493 99.5875 56.056C99.7048 55.7627 99.7635 55.44 99.7635 55.088C99.7635 54.3573 99.5368 53.7867 99.0835 53.376C98.6355 52.9653 97.9528 52.76 97.0355 52.76H95.1955V57.48H97.0355ZM97.0355 51.536C97.7608 51.536 98.3902 51.6213 98.9235 51.792C99.4622 51.9573 99.9075 52.1947 100.26 52.504C100.612 52.8133 100.873 53.1867 101.043 53.624C101.22 54.0613 101.308 54.5493 101.308 55.088C101.308 55.6213 101.214 56.1093 101.028 56.552C100.841 56.9947 100.566 57.376 100.204 57.696C99.8462 58.016 99.4008 58.2667 98.8675 58.448C98.3395 58.624 97.7288 58.712 97.0355 58.712H95.1955V63H93.6515V51.536H97.0355ZM107.067 59.352C106.411 59.3733 105.851 59.4267 105.387 59.512C104.928 59.592 104.552 59.6987 104.259 59.832C103.971 59.9653 103.76 60.1227 103.627 60.304C103.499 60.4853 103.435 60.688 103.435 60.912C103.435 61.1253 103.47 61.3093 103.539 61.464C103.608 61.6187 103.702 61.7467 103.819 61.848C103.942 61.944 104.083 62.016 104.243 62.064C104.408 62.1067 104.584 62.128 104.771 62.128C105.022 62.128 105.251 62.104 105.459 62.056C105.667 62.0027 105.862 61.928 106.043 61.832C106.23 61.736 106.406 61.6213 106.571 61.488C106.742 61.3547 106.907 61.2027 107.067 61.032V59.352ZM102.467 56.04C102.915 55.608 103.398 55.2853 103.915 55.072C104.432 54.8587 105.006 54.752 105.635 54.752C106.088 54.752 106.491 54.8267 106.843 54.976C107.195 55.1253 107.491 55.3333 107.731 55.6C107.971 55.8667 108.152 56.1893 108.275 56.568C108.398 56.9467 108.459 57.3627 108.459 57.816V63H107.827C107.688 63 107.582 62.9787 107.507 62.936C107.432 62.888 107.374 62.7973 107.331 62.664L107.171 61.896C106.958 62.0933 106.75 62.2693 106.547 62.424C106.344 62.5733 106.131 62.7013 105.907 62.808C105.683 62.9093 105.443 62.9867 105.187 63.04C104.936 63.0987 104.656 63.128 104.347 63.128C104.032 63.128 103.736 63.0853 103.459 63C103.182 62.9093 102.939 62.776 102.731 62.6C102.528 62.424 102.366 62.2027 102.243 61.936C102.126 61.664 102.067 61.344 102.067 60.976C102.067 60.656 102.155 60.3493 102.331 60.056C102.507 59.7573 102.792 59.4933 103.187 59.264C103.582 59.0347 104.096 58.848 104.731 58.704C105.366 58.5547 106.144 58.4693 107.067 58.448V57.816C107.067 57.1867 106.931 56.712 106.659 56.392C106.387 56.0667 105.99 55.904 105.467 55.904C105.115 55.904 104.819 55.9493 104.579 56.04C104.344 56.1253 104.139 56.224 103.963 56.336C103.792 56.4427 103.643 56.5413 103.515 56.632C103.392 56.7173 103.27 56.76 103.147 56.76C103.051 56.76 102.968 56.736 102.899 56.688C102.83 56.6347 102.771 56.5707 102.723 56.496L102.467 56.04ZM112.1 51.216V63H110.676V51.216H112.1ZM114.409 63V54.896H115.265C115.468 54.896 115.593 54.9947 115.641 55.192L115.745 56.024C116.044 55.656 116.38 55.3547 116.753 55.12C117.127 54.8853 117.559 54.768 118.049 54.768C118.593 54.768 119.033 54.92 119.369 55.224C119.711 55.528 119.956 55.9387 120.105 56.456C120.223 56.1627 120.372 55.9093 120.553 55.696C120.74 55.4827 120.948 55.3067 121.177 55.168C121.407 55.0293 121.649 54.928 121.905 54.864C122.167 54.8 122.431 54.768 122.697 54.768C123.124 54.768 123.503 54.8373 123.833 54.976C124.169 55.1093 124.452 55.3067 124.681 55.568C124.916 55.8293 125.095 56.152 125.217 56.536C125.34 56.9147 125.401 57.3493 125.401 57.84V63H123.969V57.84C123.969 57.2053 123.831 56.7253 123.553 56.4C123.276 56.0693 122.876 55.904 122.353 55.904C122.119 55.904 121.895 55.9467 121.681 56.032C121.473 56.112 121.289 56.232 121.129 56.392C120.969 56.552 120.841 56.7547 120.745 57C120.655 57.24 120.609 57.52 120.609 57.84V63H119.177V57.84C119.177 57.1893 119.047 56.704 118.785 56.384C118.524 56.064 118.143 55.904 117.641 55.904C117.289 55.904 116.964 56 116.665 56.192C116.367 56.3787 116.092 56.6347 115.841 56.96V63H114.409ZM131.958 59.352C131.302 59.3733 130.742 59.4267 130.278 59.512C129.819 59.592 129.443 59.6987 129.15 59.832C128.862 59.9653 128.651 60.1227 128.518 60.304C128.39 60.4853 128.326 60.688 128.326 60.912C128.326 61.1253 128.36 61.3093 128.43 61.464C128.499 61.6187 128.592 61.7467 128.71 61.848C128.832 61.944 128.974 62.016 129.134 62.064C129.299 62.1067 129.475 62.128 129.662 62.128C129.912 62.128 130.142 62.104 130.35 62.056C130.558 62.0027 130.752 61.928 130.934 61.832C131.12 61.736 131.296 61.6213 131.462 61.488C131.632 61.3547 131.798 61.2027 131.958 61.032V59.352ZM127.358 56.04C127.806 55.608 128.288 55.2853 128.806 55.072C129.323 54.8587 129.896 54.752 130.526 54.752C130.979 54.752 131.382 54.8267 131.734 54.976C132.086 55.1253 132.382 55.3333 132.622 55.6C132.862 55.8667 133.043 56.1893 133.166 56.568C133.288 56.9467 133.35 57.3627 133.35 57.816V63H132.718C132.579 63 132.472 62.9787 132.398 62.936C132.323 62.888 132.264 62.7973 132.222 62.664L132.062 61.896C131.848 62.0933 131.64 62.2693 131.438 62.424C131.235 62.5733 131.022 62.7013 130.798 62.808C130.574 62.9093 130.334 62.9867 130.078 63.04C129.827 63.0987 129.547 63.128 129.238 63.128C128.923 63.128 128.627 63.0853 128.35 63C128.072 62.9093 127.83 62.776 127.622 62.6C127.419 62.424 127.256 62.2027 127.134 61.936C127.016 61.664 126.958 61.344 126.958 60.976C126.958 60.656 127.046 60.3493 127.222 60.056C127.398 59.7573 127.683 59.4933 128.078 59.264C128.472 59.0347 128.987 58.848 129.622 58.704C130.256 58.5547 131.035 58.4693 131.958 58.448V57.816C131.958 57.1867 131.822 56.712 131.55 56.392C131.278 56.0667 130.88 55.904 130.358 55.904C130.006 55.904 129.71 55.9493 129.47 56.04C129.235 56.1253 129.03 56.224 128.854 56.336C128.683 56.4427 128.534 56.5413 128.406 56.632C128.283 56.7173 128.16 56.76 128.038 56.76C127.942 56.76 127.859 56.736 127.79 56.688C127.72 56.6347 127.662 56.5707 127.613 56.496L127.358 56.04ZM140.239 56.232C140.175 56.3493 140.076 56.408 139.943 56.408C139.863 56.408 139.772 56.3787 139.671 56.32C139.569 56.2613 139.444 56.1973 139.295 56.128C139.151 56.0533 138.977 55.9867 138.775 55.928C138.572 55.864 138.332 55.832 138.055 55.832C137.815 55.832 137.599 55.864 137.407 55.928C137.215 55.9867 137.049 56.0693 136.911 56.176C136.777 56.2827 136.673 56.408 136.599 56.552C136.529 56.6907 136.495 56.8427 136.495 57.008C136.495 57.216 136.553 57.3893 136.671 57.528C136.793 57.6667 136.953 57.7867 137.151 57.888C137.348 57.9893 137.572 58.08 137.823 58.16C138.073 58.2347 138.329 58.3173 138.591 58.408C138.857 58.4933 139.116 58.5893 139.367 58.696C139.617 58.8027 139.841 58.936 140.039 59.096C140.236 59.256 140.393 59.4533 140.511 59.688C140.633 59.9173 140.695 60.1947 140.695 60.52C140.695 60.8933 140.628 61.24 140.495 61.56C140.361 61.8747 140.164 62.1493 139.903 62.384C139.641 62.6133 139.321 62.7947 138.943 62.928C138.564 63.0613 138.127 63.128 137.631 63.128C137.065 63.128 136.553 63.0373 136.095 62.856C135.636 62.6693 135.247 62.432 134.927 62.144L135.263 61.6C135.305 61.5307 135.356 61.4773 135.415 61.44C135.473 61.4027 135.548 61.384 135.639 61.384C135.735 61.384 135.836 61.4213 135.943 61.496C136.049 61.5707 136.177 61.6533 136.327 61.744C136.481 61.8347 136.668 61.9173 136.887 61.992C137.105 62.0667 137.377 62.104 137.703 62.104C137.98 62.104 138.223 62.0693 138.431 62C138.639 61.9253 138.812 61.8267 138.951 61.704C139.089 61.5813 139.191 61.44 139.255 61.28C139.324 61.12 139.359 60.9493 139.359 60.768C139.359 60.544 139.297 60.36 139.175 60.216C139.057 60.0667 138.9 59.9413 138.703 59.84C138.505 59.7333 138.279 59.6427 138.023 59.568C137.772 59.488 137.513 59.4053 137.247 59.32C136.985 59.2347 136.727 59.1387 136.471 59.032C136.22 58.92 135.996 58.7813 135.799 58.616C135.601 58.4507 135.441 58.248 135.319 58.008C135.201 57.7627 135.143 57.4667 135.143 57.12C135.143 56.8107 135.207 56.5147 135.335 56.232C135.463 55.944 135.649 55.6933 135.895 55.48C136.14 55.2613 136.441 55.088 136.799 54.96C137.156 54.832 137.564 54.768 138.023 54.768C138.556 54.768 139.033 54.8533 139.455 55.024C139.881 55.1893 140.249 55.4187 140.559 55.712L140.239 56.232ZM151.814 56.824C151.548 56.4667 151.26 56.2187 150.95 56.08C150.641 55.936 150.294 55.864 149.91 55.864C149.158 55.864 148.58 56.1333 148.174 56.672C147.769 57.2107 147.566 57.9787 147.566 58.976C147.566 59.504 147.612 59.9573 147.702 60.336C147.793 60.7093 147.926 61.0187 148.102 61.264C148.278 61.504 148.494 61.68 148.75 61.792C149.006 61.904 149.297 61.96 149.622 61.96C150.092 61.96 150.5 61.8533 150.846 61.64C151.198 61.4267 151.521 61.1253 151.814 60.736V56.824ZM153.238 51.216V63H152.39C152.188 63 152.06 62.9013 152.006 62.704L151.878 61.72C151.532 62.136 151.137 62.472 150.694 62.728C150.252 62.984 149.74 63.112 149.158 63.112C148.694 63.112 148.273 63.024 147.894 62.848C147.516 62.6667 147.193 62.4027 146.926 62.056C146.66 61.7093 146.454 61.2773 146.31 60.76C146.166 60.2427 146.094 59.648 146.094 58.976C146.094 58.3787 146.174 57.824 146.334 57.312C146.494 56.7947 146.724 56.3467 147.022 55.968C147.321 55.5893 147.686 55.2933 148.118 55.08C148.556 54.8613 149.046 54.752 149.59 54.752C150.086 54.752 150.51 54.8373 150.862 55.008C151.22 55.1733 151.537 55.4053 151.814 55.704V51.216H153.238ZM160.911 58.064C160.911 57.7333 160.863 57.432 160.767 57.16C160.677 56.8827 160.541 56.6453 160.359 56.448C160.183 56.2453 159.967 56.0907 159.711 55.984C159.455 55.872 159.165 55.816 158.839 55.816C158.157 55.816 157.615 56.016 157.215 56.416C156.821 56.8107 156.575 57.36 156.479 58.064H160.911ZM162.063 61.864C161.887 62.0773 161.677 62.264 161.431 62.424C161.186 62.5787 160.922 62.7067 160.639 62.808C160.362 62.9093 160.074 62.984 159.775 63.032C159.477 63.0853 159.181 63.112 158.887 63.112C158.327 63.112 157.81 63.0187 157.335 62.832C156.866 62.64 156.458 62.3627 156.111 62C155.77 61.632 155.503 61.1787 155.311 60.64C155.119 60.1013 155.023 59.4827 155.023 58.784C155.023 58.2187 155.109 57.6907 155.279 57.2C155.455 56.7093 155.706 56.2853 156.031 55.928C156.357 55.5653 156.754 55.2827 157.223 55.08C157.693 54.872 158.221 54.768 158.807 54.768C159.293 54.768 159.741 54.8507 160.151 55.016C160.567 55.176 160.925 55.4107 161.223 55.72C161.527 56.024 161.765 56.4027 161.935 56.856C162.106 57.304 162.191 57.816 162.191 58.392C162.191 58.616 162.167 58.7653 162.119 58.84C162.071 58.9147 161.981 58.952 161.847 58.952H156.431C156.447 59.464 156.517 59.9093 156.639 60.288C156.767 60.6667 156.943 60.984 157.167 61.24C157.391 61.4907 157.658 61.68 157.967 61.808C158.277 61.9307 158.623 61.992 159.007 61.992C159.365 61.992 159.671 61.952 159.927 61.872C160.189 61.7867 160.413 61.696 160.599 61.6C160.786 61.504 160.941 61.416 161.063 61.336C161.191 61.2507 161.301 61.208 161.391 61.208C161.509 61.208 161.599 61.2533 161.663 61.344L162.063 61.864ZM177.682 57.488V61.888C177.106 62.304 176.49 62.616 175.834 62.824C175.184 63.0267 174.469 63.128 173.69 63.128C172.768 63.128 171.936 62.9867 171.194 62.704C170.453 62.416 169.818 62.016 169.29 61.504C168.768 60.9867 168.365 60.368 168.082 59.648C167.8 58.928 167.658 58.136 167.658 57.272C167.658 56.3973 167.794 55.6 168.066 54.88C168.344 54.16 168.736 53.544 169.242 53.032C169.749 52.5147 170.365 52.1147 171.09 51.832C171.816 51.5493 172.626 51.408 173.522 51.408C173.976 51.408 174.397 51.4427 174.786 51.512C175.176 51.576 175.536 51.672 175.866 51.8C176.197 51.9227 176.504 52.0747 176.786 52.256C177.069 52.432 177.333 52.632 177.578 52.856L177.138 53.56C177.069 53.6667 176.978 53.736 176.866 53.768C176.76 53.7947 176.64 53.768 176.506 53.688C176.378 53.6133 176.232 53.5227 176.066 53.416C175.901 53.3093 175.698 53.208 175.458 53.112C175.224 53.0107 174.944 52.9253 174.618 52.856C174.298 52.7867 173.917 52.752 173.474 52.752C172.829 52.752 172.245 52.8587 171.722 53.072C171.2 53.28 170.754 53.5813 170.386 53.976C170.018 54.3653 169.736 54.84 169.538 55.4C169.341 55.9547 169.242 56.5787 169.242 57.272C169.242 57.992 169.344 58.6373 169.546 59.208C169.754 59.7733 170.048 60.256 170.426 60.656C170.81 61.0507 171.274 61.352 171.818 61.56C172.362 61.768 172.973 61.872 173.65 61.872C174.184 61.872 174.656 61.8133 175.066 61.696C175.482 61.5733 175.888 61.4053 176.282 61.192V58.672H174.498C174.397 58.672 174.314 58.6427 174.25 58.584C174.192 58.5253 174.162 58.4533 174.162 58.368V57.488H177.682ZM180.949 56.52C181.205 55.9653 181.519 55.5333 181.893 55.224C182.266 54.9093 182.722 54.752 183.261 54.752C183.431 54.752 183.594 54.7707 183.749 54.808C183.909 54.8453 184.05 54.904 184.173 54.984L184.069 56.048C184.037 56.1813 183.957 56.248 183.829 56.248C183.754 56.248 183.645 56.232 183.501 56.2C183.357 56.168 183.194 56.152 183.013 56.152C182.757 56.152 182.527 56.1893 182.325 56.264C182.127 56.3387 181.949 56.4507 181.789 56.6C181.634 56.744 181.493 56.9253 181.365 57.144C181.242 57.3573 181.13 57.6027 181.029 57.88V63H179.597V54.896H180.413C180.567 54.896 180.674 54.9253 180.733 54.984C180.791 55.0427 180.831 55.144 180.853 55.288L180.949 56.52ZM189.692 59.352C189.036 59.3733 188.476 59.4267 188.012 59.512C187.553 59.592 187.177 59.6987 186.884 59.832C186.596 59.9653 186.385 60.1227 186.252 60.304C186.124 60.4853 186.06 60.688 186.06 60.912C186.06 61.1253 186.095 61.3093 186.164 61.464C186.233 61.6187 186.327 61.7467 186.444 61.848C186.567 61.944 186.708 62.016 186.868 62.064C187.033 62.1067 187.209 62.128 187.396 62.128C187.647 62.128 187.876 62.104 188.084 62.056C188.292 62.0027 188.487 61.928 188.668 61.832C188.855 61.736 189.031 61.6213 189.196 61.488C189.367 61.3547 189.532 61.2027 189.692 61.032V59.352ZM185.092 56.04C185.54 55.608 186.023 55.2853 186.54 55.072C187.057 54.8587 187.631 54.752 188.26 54.752C188.713 54.752 189.116 54.8267 189.468 54.976C189.82 55.1253 190.116 55.3333 190.356 55.6C190.596 55.8667 190.777 56.1893 190.9 56.568C191.023 56.9467 191.084 57.3627 191.084 57.816V63H190.452C190.313 63 190.207 62.9787 190.132 62.936C190.057 62.888 189.999 62.7973 189.956 62.664L189.796 61.896C189.583 62.0933 189.375 62.2693 189.172 62.424C188.969 62.5733 188.756 62.7013 188.532 62.808C188.308 62.9093 188.068 62.9867 187.812 63.04C187.561 63.0987 187.281 63.128 186.972 63.128C186.657 63.128 186.361 63.0853 186.084 63C185.807 62.9093 185.564 62.776 185.356 62.6C185.153 62.424 184.991 62.2027 184.868 61.936C184.751 61.664 184.692 61.344 184.692 60.976C184.692 60.656 184.78 60.3493 184.956 60.056C185.132 59.7573 185.417 59.4933 185.812 59.264C186.207 59.0347 186.721 58.848 187.356 58.704C187.991 58.5547 188.769 58.4693 189.692 58.448V57.816C189.692 57.1867 189.556 56.712 189.284 56.392C189.012 56.0667 188.615 55.904 188.092 55.904C187.74 55.904 187.444 55.9493 187.204 56.04C186.969 56.1253 186.764 56.224 186.588 56.336C186.417 56.4427 186.268 56.5413 186.14 56.632C186.017 56.7173 185.895 56.76 185.772 56.76C185.676 56.76 185.593 56.736 185.524 56.688C185.455 56.6347 185.396 56.5707 185.348 56.496L185.092 56.04ZM194.597 56.072C194.773 55.8747 194.96 55.696 195.157 55.536C195.354 55.376 195.562 55.24 195.781 55.128C196.005 55.0107 196.24 54.9227 196.485 54.864C196.736 54.8 197.005 54.768 197.293 54.768C197.736 54.768 198.125 54.8427 198.461 54.992C198.802 55.136 199.085 55.344 199.309 55.616C199.538 55.8827 199.712 56.2053 199.829 56.584C199.946 56.9627 200.005 57.3813 200.005 57.84V63H198.573V57.84C198.573 57.2267 198.432 56.752 198.149 56.416C197.872 56.0747 197.448 55.904 196.877 55.904C196.456 55.904 196.061 56.0053 195.693 56.208C195.33 56.4107 194.994 56.6853 194.685 57.032V63H193.253V54.896H194.109C194.312 54.896 194.437 54.9947 194.485 55.192L194.597 56.072ZM214.653 60.632C214.738 60.632 214.813 60.6667 214.877 60.736L215.493 61.4C215.023 61.944 214.453 62.368 213.781 62.672C213.114 62.976 212.306 63.128 211.357 63.128C210.535 63.128 209.789 62.9867 209.117 62.704C208.445 62.416 207.871 62.016 207.397 61.504C206.922 60.9867 206.554 60.368 206.293 59.648C206.031 58.928 205.901 58.136 205.901 57.272C205.901 56.408 206.037 55.616 206.309 54.896C206.581 54.176 206.962 53.5573 207.453 53.04C207.949 52.5227 208.541 52.1227 209.229 51.84C209.917 51.552 210.677 51.408 211.509 51.408C212.325 51.408 213.045 51.5387 213.669 51.8C214.293 52.0613 214.842 52.416 215.317 52.864L214.805 53.576C214.773 53.6293 214.73 53.6747 214.677 53.712C214.629 53.744 214.562 53.76 214.477 53.76C214.381 53.76 214.263 53.7093 214.125 53.608C213.986 53.5013 213.805 53.384 213.581 53.256C213.357 53.128 213.077 53.0133 212.741 52.912C212.405 52.8053 211.991 52.752 211.501 52.752C210.909 52.752 210.367 52.856 209.877 53.064C209.386 53.2667 208.962 53.5627 208.605 53.952C208.253 54.3413 207.978 54.816 207.781 55.376C207.583 55.936 207.485 56.568 207.485 57.272C207.485 57.9867 207.586 58.624 207.789 59.184C207.997 59.744 208.277 60.2187 208.629 60.608C208.986 60.992 209.405 61.2853 209.885 61.488C210.37 61.6907 210.893 61.792 211.453 61.792C211.794 61.792 212.101 61.7733 212.373 61.736C212.65 61.6933 212.903 61.6293 213.133 61.544C213.367 61.4587 213.583 61.352 213.781 61.224C213.983 61.0907 214.183 60.9333 214.381 60.752C214.471 60.672 214.562 60.632 214.653 60.632ZM221.348 59.352C220.692 59.3733 220.132 59.4267 219.668 59.512C219.209 59.592 218.833 59.6987 218.54 59.832C218.252 59.9653 218.041 60.1227 217.908 60.304C217.78 60.4853 217.716 60.688 217.716 60.912C217.716 61.1253 217.751 61.3093 217.82 61.464C217.889 61.6187 217.983 61.7467 218.1 61.848C218.223 61.944 218.364 62.016 218.524 62.064C218.689 62.1067 218.865 62.128 219.052 62.128C219.303 62.128 219.532 62.104 219.74 62.056C219.948 62.0027 220.143 61.928 220.324 61.832C220.511 61.736 220.687 61.6213 220.852 61.488C221.023 61.3547 221.188 61.2027 221.348 61.032V59.352ZM216.748 56.04C217.196 55.608 217.679 55.2853 218.196 55.072C218.713 54.8587 219.287 54.752 219.916 54.752C220.369 54.752 220.772 54.8267 221.124 54.976C221.476 55.1253 221.772 55.3333 222.012 55.6C222.252 55.8667 222.433 56.1893 222.556 56.568C222.679 56.9467 222.74 57.3627 222.74 57.816V63H222.108C221.969 63 221.863 62.9787 221.788 62.936C221.713 62.888 221.655 62.7973 221.612 62.664L221.452 61.896C221.239 62.0933 221.031 62.2693 220.828 62.424C220.625 62.5733 220.412 62.7013 220.188 62.808C219.964 62.9093 219.724 62.9867 219.468 63.04C219.217 63.0987 218.937 63.128 218.628 63.128C218.313 63.128 218.017 63.0853 217.74 63C217.463 62.9093 217.22 62.776 217.012 62.6C216.809 62.424 216.647 62.2027 216.524 61.936C216.407 61.664 216.348 61.344 216.348 60.976C216.348 60.656 216.436 60.3493 216.612 60.056C216.788 59.7573 217.073 59.4933 217.468 59.264C217.863 59.0347 218.377 58.848 219.012 58.704C219.647 58.5547 220.425 58.4693 221.348 58.448V57.816C221.348 57.1867 221.212 56.712 220.94 56.392C220.668 56.0667 220.271 55.904 219.748 55.904C219.396 55.904 219.1 55.9493 218.86 56.04C218.625 56.1253 218.42 56.224 218.244 56.336C218.073 56.4427 217.924 56.5413 217.796 56.632C217.673 56.7173 217.551 56.76 217.428 56.76C217.332 56.76 217.249 56.736 217.18 56.688C217.111 56.6347 217.052 56.5707 217.004 56.496L216.748 56.04ZM226.253 56.072C226.429 55.8747 226.616 55.696 226.813 55.536C227.011 55.376 227.219 55.24 227.437 55.128C227.661 55.0107 227.896 54.9227 228.141 54.864C228.392 54.8 228.661 54.768 228.949 54.768C229.392 54.768 229.781 54.8427 230.117 54.992C230.459 55.136 230.741 55.344 230.965 55.616C231.195 55.8827 231.368 56.2053 231.485 56.584C231.603 56.9627 231.661 57.3813 231.661 57.84V63H230.229V57.84C230.229 57.2267 230.088 56.752 229.805 56.416C229.528 56.0747 229.104 55.904 228.533 55.904C228.112 55.904 227.717 56.0053 227.349 56.208C226.987 56.4107 226.651 56.6853 226.341 57.032V63H224.909V54.896H225.765C225.968 54.896 226.093 54.9947 226.141 55.192L226.253 56.072ZM238.223 59.352C237.567 59.3733 237.007 59.4267 236.543 59.512C236.084 59.592 235.708 59.6987 235.415 59.832C235.127 59.9653 234.916 60.1227 234.783 60.304C234.655 60.4853 234.591 60.688 234.591 60.912C234.591 61.1253 234.626 61.3093 234.695 61.464C234.764 61.6187 234.858 61.7467 234.975 61.848C235.098 61.944 235.239 62.016 235.399 62.064C235.564 62.1067 235.74 62.128 235.927 62.128C236.178 62.128 236.407 62.104 236.615 62.056C236.823 62.0027 237.018 61.928 237.199 61.832C237.386 61.736 237.562 61.6213 237.727 61.488C237.898 61.3547 238.063 61.2027 238.223 61.032V59.352ZM233.623 56.04C234.071 55.608 234.554 55.2853 235.071 55.072C235.588 54.8587 236.162 54.752 236.791 54.752C237.244 54.752 237.647 54.8267 237.999 54.976C238.351 55.1253 238.647 55.3333 238.887 55.6C239.127 55.8667 239.308 56.1893 239.431 56.568C239.554 56.9467 239.615 57.3627 239.615 57.816V63H238.983C238.844 63 238.738 62.9787 238.663 62.936C238.588 62.888 238.53 62.7973 238.487 62.664L238.327 61.896C238.114 62.0933 237.906 62.2693 237.703 62.424C237.5 62.5733 237.287 62.7013 237.063 62.808C236.839 62.9093 236.599 62.9867 236.343 63.04C236.092 63.0987 235.812 63.128 235.503 63.128C235.188 63.128 234.892 63.0853 234.615 63C234.338 62.9093 234.095 62.776 233.887 62.6C233.684 62.424 233.522 62.2027 233.399 61.936C233.282 61.664 233.223 61.344 233.223 60.976C233.223 60.656 233.311 60.3493 233.487 60.056C233.663 59.7573 233.948 59.4933 234.343 59.264C234.738 59.0347 235.252 58.848 235.887 58.704C236.522 58.5547 237.3 58.4693 238.223 58.448V57.816C238.223 57.1867 238.087 56.712 237.815 56.392C237.543 56.0667 237.146 55.904 236.623 55.904C236.271 55.904 235.975 55.9493 235.735 56.04C235.5 56.1253 235.295 56.224 235.119 56.336C234.948 56.4427 234.799 56.5413 234.671 56.632C234.548 56.7173 234.426 56.76 234.303 56.76C234.207 56.76 234.124 56.736 234.055 56.688C233.986 56.6347 233.927 56.5707 233.879 56.496L233.623 56.04ZM243.136 56.52C243.392 55.9653 243.707 55.5333 244.08 55.224C244.454 54.9093 244.91 54.752 245.448 54.752C245.619 54.752 245.782 54.7707 245.936 54.808C246.096 54.8453 246.238 54.904 246.36 54.984L246.256 56.048C246.224 56.1813 246.144 56.248 246.016 56.248C245.942 56.248 245.832 56.232 245.688 56.2C245.544 56.168 245.382 56.152 245.2 56.152C244.944 56.152 244.715 56.1893 244.512 56.264C244.315 56.3387 244.136 56.4507 243.976 56.6C243.822 56.744 243.68 56.9253 243.552 57.144C243.43 57.3573 243.318 57.6027 243.216 57.88V63H241.784V54.896H242.6C242.755 54.896 242.862 54.9253 242.92 54.984C242.979 55.0427 243.019 55.144 243.04 55.288L243.136 56.52ZM249.116 54.896V63H247.692V54.896H249.116ZM249.42 52.352C249.42 52.4907 249.391 52.6213 249.332 52.744C249.279 52.8613 249.204 52.968 249.108 53.064C249.018 53.1547 248.908 53.2267 248.78 53.28C248.658 53.3333 248.527 53.36 248.388 53.36C248.25 53.36 248.119 53.3333 247.996 53.28C247.879 53.2267 247.775 53.1547 247.684 53.064C247.594 52.968 247.522 52.8613 247.468 52.744C247.415 52.6213 247.388 52.4907 247.388 52.352C247.388 52.2133 247.415 52.0827 247.468 51.96C247.522 51.832 247.594 51.7227 247.684 51.632C247.775 51.536 247.879 51.4613 247.996 51.408C248.119 51.3547 248.25 51.328 248.388 51.328C248.527 51.328 248.658 51.3547 248.78 51.408C248.908 51.4613 249.018 51.536 249.108 51.632C249.204 51.7227 249.279 51.832 249.332 51.96C249.391 52.0827 249.42 52.2133 249.42 52.352ZM255.848 59.352C255.192 59.3733 254.632 59.4267 254.168 59.512C253.709 59.592 253.333 59.6987 253.04 59.832C252.752 59.9653 252.541 60.1227 252.408 60.304C252.28 60.4853 252.216 60.688 252.216 60.912C252.216 61.1253 252.251 61.3093 252.32 61.464C252.389 61.6187 252.483 61.7467 252.6 61.848C252.723 61.944 252.864 62.016 253.024 62.064C253.189 62.1067 253.365 62.128 253.552 62.128C253.803 62.128 254.032 62.104 254.24 62.056C254.448 62.0027 254.643 61.928 254.824 61.832C255.011 61.736 255.187 61.6213 255.352 61.488C255.523 61.3547 255.688 61.2027 255.848 61.032V59.352ZM251.248 56.04C251.696 55.608 252.179 55.2853 252.696 55.072C253.213 54.8587 253.787 54.752 254.416 54.752C254.869 54.752 255.272 54.8267 255.624 54.976C255.976 55.1253 256.272 55.3333 256.512 55.6C256.752 55.8667 256.933 56.1893 257.056 56.568C257.179 56.9467 257.24 57.3627 257.24 57.816V63H256.608C256.469 63 256.363 62.9787 256.288 62.936C256.213 62.888 256.155 62.7973 256.112 62.664L255.952 61.896C255.739 62.0933 255.531 62.2693 255.328 62.424C255.125 62.5733 254.912 62.7013 254.688 62.808C254.464 62.9093 254.224 62.9867 253.968 63.04C253.717 63.0987 253.437 63.128 253.128 63.128C252.813 63.128 252.517 63.0853 252.24 63C251.963 62.9093 251.72 62.776 251.512 62.6C251.309 62.424 251.147 62.2027 251.024 61.936C250.907 61.664 250.848 61.344 250.848 60.976C250.848 60.656 250.936 60.3493 251.112 60.056C251.288 59.7573 251.573 59.4933 251.968 59.264C252.363 59.0347 252.877 58.848 253.512 58.704C254.147 58.5547 254.925 58.4693 255.848 58.448V57.816C255.848 57.1867 255.712 56.712 255.44 56.392C255.168 56.0667 254.771 55.904 254.248 55.904C253.896 55.904 253.6 55.9493 253.36 56.04C253.125 56.1253 252.92 56.224 252.744 56.336C252.573 56.4427 252.424 56.5413 252.296 56.632C252.173 56.7173 252.051 56.76 251.928 56.76C251.832 56.76 251.749 56.736 251.68 56.688C251.611 56.6347 251.552 56.5707 251.504 56.496L251.248 56.04Z" fill="#242E30"/>
<path d="M70.922 84.169C70.8847 84.2203 70.8473 84.26 70.81 84.288C70.7727 84.316 70.7213 84.33 70.656 84.33C70.586 84.33 70.509 84.302 70.425 84.246C70.341 84.1853 70.236 84.12 70.11 84.05C69.9887 83.98 69.837 83.917 69.655 83.861C69.4777 83.8003 69.2583 83.77 68.997 83.77C68.647 83.77 68.339 83.833 68.073 83.959C67.807 84.0803 67.583 84.2577 67.401 84.491C67.2237 84.7243 67.0883 85.0067 66.995 85.338C66.9063 85.6693 66.862 86.0403 66.862 86.451C66.862 86.8803 66.911 87.263 67.009 87.599C67.107 87.9303 67.2447 88.2103 67.422 88.439C67.604 88.663 67.821 88.8357 68.073 88.957C68.3297 89.0737 68.6167 89.132 68.934 89.132C69.2373 89.132 69.487 89.097 69.683 89.027C69.879 88.9523 70.04 88.8707 70.166 88.782C70.2967 88.6933 70.404 88.614 70.488 88.544C70.5767 88.4693 70.663 88.432 70.747 88.432C70.8497 88.432 70.929 88.4717 70.985 88.551L71.335 89.006C71.181 89.1973 71.006 89.3607 70.81 89.496C70.614 89.6313 70.4017 89.7457 70.173 89.839C69.949 89.9277 69.7133 89.993 69.466 90.035C69.2187 90.077 68.9667 90.098 68.71 90.098C68.2667 90.098 67.8537 90.0163 67.471 89.853C67.093 89.6897 66.764 89.454 66.484 89.146C66.204 88.8333 65.9847 88.4507 65.826 87.998C65.6673 87.5453 65.588 87.0297 65.588 86.451C65.588 85.9237 65.6603 85.436 65.805 84.988C65.9543 84.54 66.169 84.155 66.449 83.833C66.7337 83.5063 67.0813 83.252 67.492 83.07C67.9073 82.888 68.3833 82.797 68.92 82.797C69.4193 82.797 69.858 82.8787 70.236 83.042C70.6187 83.2007 70.957 83.427 71.251 83.721L70.922 84.169ZM76.5155 86.808C75.9415 86.8267 75.4515 86.8733 75.0455 86.948C74.6442 87.018 74.3152 87.1113 74.0585 87.228C73.8065 87.3447 73.6222 87.4823 73.5055 87.641C73.3935 87.7997 73.3375 87.977 73.3375 88.173C73.3375 88.3597 73.3679 88.5207 73.4285 88.656C73.4892 88.7913 73.5709 88.9033 73.6735 88.992C73.7809 89.076 73.9045 89.139 74.0445 89.181C74.1892 89.2183 74.3432 89.237 74.5065 89.237C74.7259 89.237 74.9265 89.216 75.1085 89.174C75.2905 89.1273 75.4609 89.062 75.6195 88.978C75.7829 88.894 75.9369 88.7937 76.0815 88.677C76.2309 88.5603 76.3755 88.4273 76.5155 88.278V86.808ZM72.4905 83.91C72.8825 83.532 73.3049 83.2497 73.7575 83.063C74.2102 82.8763 74.7119 82.783 75.2625 82.783C75.6592 82.783 76.0115 82.8483 76.3195 82.979C76.6275 83.1097 76.8865 83.2917 77.0965 83.525C77.3065 83.7583 77.4652 84.0407 77.5725 84.372C77.6799 84.7033 77.7335 85.0673 77.7335 85.464V90H77.1805C77.0592 90 76.9659 89.9813 76.9005 89.944C76.8352 89.902 76.7839 89.8227 76.7465 89.706L76.6065 89.034C76.4199 89.2067 76.2379 89.3607 76.0605 89.496C75.8832 89.6267 75.6965 89.7387 75.5005 89.832C75.3045 89.9207 75.0945 89.9883 74.8705 90.035C74.6512 90.0863 74.4062 90.112 74.1355 90.112C73.8602 90.112 73.6012 90.0747 73.3585 90C73.1159 89.9207 72.9035 89.804 72.7215 89.65C72.5442 89.496 72.4019 89.3023 72.2945 89.069C72.1919 88.831 72.1405 88.551 72.1405 88.229C72.1405 87.949 72.2175 87.6807 72.3715 87.424C72.5255 87.1627 72.7752 86.9317 73.1205 86.731C73.4659 86.5303 73.9162 86.367 74.4715 86.241C75.0269 86.1103 75.7082 86.0357 76.5155 86.017V85.464C76.5155 84.9133 76.3965 84.498 76.1585 84.218C75.9205 83.9333 75.5729 83.791 75.1155 83.791C74.8075 83.791 74.5485 83.8307 74.3385 83.91C74.1332 83.9847 73.9535 84.071 73.7995 84.169C73.6502 84.2623 73.5195 84.3487 73.4075 84.428C73.3002 84.5027 73.1929 84.54 73.0855 84.54C73.0015 84.54 72.9292 84.519 72.8685 84.477C72.8079 84.4303 72.7565 84.3743 72.7145 84.309L72.4905 83.91ZM79.6315 90V82.909H80.3805C80.5579 82.909 80.6675 82.9953 80.7095 83.168L80.8005 83.896C81.0619 83.574 81.3559 83.3103 81.6825 83.105C82.0092 82.8997 82.3872 82.797 82.8165 82.797C83.2925 82.797 83.6775 82.93 83.9715 83.196C84.2702 83.462 84.4849 83.8213 84.6155 84.274C84.7182 84.0173 84.8489 83.7957 85.0075 83.609C85.1709 83.4223 85.3529 83.2683 85.5535 83.147C85.7542 83.0257 85.9665 82.937 86.1905 82.881C86.4192 82.825 86.6502 82.797 86.8835 82.797C87.2569 82.797 87.5882 82.8577 87.8775 82.979C88.1715 83.0957 88.4189 83.2683 88.6195 83.497C88.8249 83.7257 88.9812 84.008 89.0885 84.344C89.1959 84.6753 89.2495 85.0557 89.2495 85.485V90H87.9965V85.485C87.9965 84.9297 87.8752 84.5097 87.6325 84.225C87.3899 83.9357 87.0399 83.791 86.5825 83.791C86.3772 83.791 86.1812 83.8283 85.9945 83.903C85.8125 83.973 85.6515 84.078 85.5115 84.218C85.3715 84.358 85.2595 84.5353 85.1755 84.75C85.0962 84.96 85.0565 85.205 85.0565 85.485V90H83.8035V85.485C83.8035 84.9157 83.6892 84.491 83.4605 84.211C83.2319 83.931 82.8982 83.791 82.4595 83.791C82.1515 83.791 81.8669 83.875 81.6055 84.043C81.3442 84.2063 81.1039 84.4303 80.8845 84.715V90H79.6315ZM92.3963 88.292C92.6249 88.6 92.8746 88.817 93.1453 88.943C93.4206 89.069 93.7216 89.132 94.0483 89.132C94.7156 89.132 95.2266 88.8963 95.5813 88.425C95.9359 87.9537 96.1133 87.2513 96.1133 86.318C96.1133 85.45 95.9546 84.813 95.6373 84.407C95.3246 83.9963 94.8766 83.791 94.2933 83.791C93.8873 83.791 93.5326 83.8843 93.2293 84.071C92.9306 84.2577 92.6529 84.5213 92.3963 84.862V88.292ZM92.3963 83.931C92.6949 83.5857 93.0309 83.3103 93.4043 83.105C93.7823 82.8997 94.2163 82.797 94.7063 82.797C95.1216 82.797 95.4949 82.8763 95.8263 83.035C96.1623 83.1937 96.4469 83.4247 96.6803 83.728C96.9136 84.0267 97.0909 84.3907 97.2123 84.82C97.3383 85.2493 97.4013 85.7323 97.4013 86.269C97.4013 86.843 97.3313 87.3657 97.1912 87.837C97.0513 88.3083 96.8483 88.712 96.5823 89.048C96.3209 89.3793 96.0013 89.6383 95.6233 89.825C95.2453 90.007 94.8206 90.098 94.3493 90.098C93.8826 90.098 93.4883 90.0117 93.1663 89.839C92.8489 89.6617 92.5713 89.412 92.3333 89.09L92.2703 89.734C92.2329 89.9113 92.1256 90 91.9483 90H91.1433V79.689H92.3963V83.931ZM100.293 82.909V90H99.0472V82.909H100.293ZM100.559 80.683C100.559 80.8043 100.534 80.9187 100.482 81.026C100.436 81.1287 100.37 81.222 100.286 81.306C100.207 81.3853 100.111 81.4483 99.9992 81.495C99.8919 81.5417 99.7776 81.565 99.6562 81.565C99.5349 81.565 99.4206 81.5417 99.3132 81.495C99.2106 81.4483 99.1196 81.3853 99.0402 81.306C98.9609 81.222 98.8979 81.1287 98.8512 81.026C98.8046 80.9187 98.7812 80.8043 98.7812 80.683C98.7812 80.5617 98.8046 80.4473 98.8512 80.34C98.8979 80.228 98.9609 80.1323 99.0402 80.053C99.1196 79.969 99.2106 79.9037 99.3132 79.857C99.4206 79.8103 99.5349 79.787 99.6562 79.787C99.7776 79.787 99.8919 79.8103 99.9992 79.857C100.111 79.9037 100.207 79.969 100.286 80.053C100.37 80.1323 100.436 80.228 100.482 80.34C100.534 80.4473 100.559 80.5617 100.559 80.683ZM106.184 86.808C105.61 86.8267 105.12 86.8733 104.714 86.948C104.312 87.018 103.983 87.1113 103.727 87.228C103.475 87.3447 103.29 87.4823 103.174 87.641C103.062 87.7997 103.006 87.977 103.006 88.173C103.006 88.3597 103.036 88.5207 103.097 88.656C103.157 88.7913 103.239 88.9033 103.342 88.992C103.449 89.076 103.573 89.139 103.713 89.181C103.857 89.2183 104.011 89.237 104.175 89.237C104.394 89.237 104.595 89.216 104.777 89.174C104.959 89.1273 105.129 89.062 105.288 88.978C105.451 88.894 105.605 88.7937 105.75 88.677C105.899 88.5603 106.044 88.4273 106.184 88.278V86.808ZM102.159 83.91C102.551 83.532 102.973 83.2497 103.426 83.063C103.878 82.8763 104.38 82.783 104.931 82.783C105.327 82.783 105.68 82.8483 105.988 82.979C106.296 83.1097 106.555 83.2917 106.765 83.525C106.975 83.7583 107.133 84.0407 107.241 84.372C107.348 84.7033 107.402 85.0673 107.402 85.464V90H106.849C106.727 90 106.634 89.9813 106.569 89.944C106.503 89.902 106.452 89.8227 106.415 89.706L106.275 89.034C106.088 89.2067 105.906 89.3607 105.729 89.496C105.551 89.6267 105.365 89.7387 105.169 89.832C104.973 89.9207 104.763 89.9883 104.539 90.035C104.319 90.0863 104.074 90.112 103.804 90.112C103.528 90.112 103.269 90.0747 103.027 90C102.784 89.9207 102.572 89.804 102.39 89.65C102.212 89.496 102.07 89.3023 101.963 89.069C101.86 88.831 101.809 88.551 101.809 88.229C101.809 87.949 101.886 87.6807 102.04 87.424C102.194 87.1627 102.443 86.9317 102.789 86.731C103.134 86.5303 103.584 86.367 104.14 86.241C104.695 86.1103 105.376 86.0357 106.184 86.017V85.464C106.184 84.9133 106.065 84.498 105.827 84.218C105.589 83.9333 105.241 83.791 104.784 83.791C104.476 83.791 104.217 83.8307 104.007 83.91C103.801 83.9847 103.622 84.071 103.468 84.169C103.318 84.2623 103.188 84.3487 103.076 84.428C102.968 84.5027 102.861 84.54 102.754 84.54C102.67 84.54 102.597 84.519 102.537 84.477C102.476 84.4303 102.425 84.3743 102.383 84.309L102.159 83.91ZM110.483 84.33C110.707 83.8447 110.982 83.4667 111.309 83.196C111.635 82.9207 112.034 82.783 112.506 82.783C112.655 82.783 112.797 82.7993 112.933 82.832C113.073 82.8647 113.196 82.916 113.304 82.986L113.213 83.917C113.185 84.0337 113.115 84.092 113.003 84.092C112.937 84.092 112.842 84.078 112.716 84.05C112.59 84.022 112.447 84.008 112.289 84.008C112.065 84.008 111.864 84.0407 111.687 84.106C111.514 84.1713 111.358 84.2693 111.218 84.4C111.082 84.526 110.959 84.6847 110.847 84.876C110.739 85.0627 110.641 85.2773 110.553 85.52V90H109.3V82.909H110.014C110.149 82.909 110.242 82.9347 110.294 82.986C110.345 83.0373 110.38 83.126 110.399 83.252L110.483 84.33ZM122.3 84.596C122.067 84.2833 121.815 84.0663 121.544 83.945C121.274 83.819 120.97 83.756 120.634 83.756C119.976 83.756 119.47 83.9917 119.115 84.463C118.761 84.9343 118.583 85.6063 118.583 86.479C118.583 86.941 118.623 87.3377 118.702 87.669C118.782 87.9957 118.898 88.2663 119.052 88.481C119.206 88.691 119.395 88.845 119.619 88.943C119.843 89.041 120.098 89.09 120.382 89.09C120.793 89.09 121.15 88.9967 121.453 88.81C121.761 88.6233 122.044 88.3597 122.3 88.019V84.596ZM123.546 79.689V90H122.804C122.627 90 122.515 89.9137 122.468 89.741L122.356 88.88C122.053 89.244 121.708 89.538 121.32 89.762C120.933 89.986 120.485 90.098 119.976 90.098C119.57 90.098 119.202 90.021 118.87 89.867C118.539 89.7083 118.257 89.4773 118.023 89.174C117.79 88.8707 117.61 88.4927 117.484 88.04C117.358 87.5873 117.295 87.067 117.295 86.479C117.295 85.9563 117.365 85.471 117.505 85.023C117.645 84.5703 117.846 84.1783 118.107 83.847C118.369 83.5157 118.688 83.2567 119.066 83.07C119.449 82.8787 119.878 82.783 120.354 82.783C120.788 82.783 121.159 82.8577 121.467 83.007C121.78 83.1517 122.058 83.3547 122.3 83.616V79.689H123.546ZM126.83 82.909V90H125.584V82.909H126.83ZM127.096 80.683C127.096 80.8043 127.071 80.9187 127.019 81.026C126.973 81.1287 126.907 81.222 126.823 81.306C126.744 81.3853 126.648 81.4483 126.536 81.495C126.429 81.5417 126.315 81.565 126.193 81.565C126.072 81.565 125.958 81.5417 125.85 81.495C125.748 81.4483 125.657 81.3853 125.577 81.306C125.498 81.222 125.435 81.1287 125.388 81.026C125.342 80.9187 125.318 80.8043 125.318 80.683C125.318 80.5617 125.342 80.4473 125.388 80.34C125.435 80.228 125.498 80.1323 125.577 80.053C125.657 79.969 125.748 79.9037 125.85 79.857C125.958 79.8103 126.072 79.787 126.193 79.787C126.315 79.787 126.429 79.8103 126.536 79.857C126.648 79.9037 126.744 79.969 126.823 80.053C126.907 80.1323 126.973 80.228 127.019 80.34C127.071 80.4473 127.096 80.5617 127.096 80.683ZM130.061 84.33C130.285 83.8447 130.56 83.4667 130.887 83.196C131.213 82.9207 131.612 82.783 132.084 82.783C132.233 82.783 132.375 82.7993 132.511 82.832C132.651 82.8647 132.774 82.916 132.882 82.986L132.791 83.917C132.763 84.0337 132.693 84.092 132.581 84.092C132.515 84.092 132.42 84.078 132.294 84.05C132.168 84.022 132.025 84.008 131.867 84.008C131.643 84.008 131.442 84.0407 131.265 84.106C131.092 84.1713 130.936 84.2693 130.796 84.4C130.66 84.526 130.537 84.6847 130.425 84.876C130.317 85.0627 130.219 85.2773 130.131 85.52V90H128.878V82.909H129.592C129.727 82.909 129.82 82.9347 129.872 82.986C129.923 83.0373 129.958 83.126 129.977 83.252L130.061 84.33ZM138.436 85.681C138.436 85.3917 138.394 85.128 138.31 84.89C138.231 84.6473 138.112 84.4397 137.953 84.267C137.799 84.0897 137.61 83.9543 137.386 83.861C137.162 83.763 136.908 83.714 136.623 83.714C136.026 83.714 135.552 83.889 135.202 84.239C134.857 84.5843 134.642 85.065 134.558 85.681H138.436ZM139.444 89.006C139.29 89.1927 139.106 89.356 138.891 89.496C138.676 89.6313 138.445 89.7433 138.198 89.832C137.955 89.9207 137.703 89.986 137.442 90.028C137.181 90.0747 136.922 90.098 136.665 90.098C136.175 90.098 135.722 90.0163 135.307 89.853C134.896 89.685 134.539 89.4423 134.236 89.125C133.937 88.803 133.704 88.4063 133.536 87.935C133.368 87.4637 133.284 86.9223 133.284 86.311C133.284 85.8163 133.359 85.3543 133.508 84.925C133.662 84.4957 133.881 84.1247 134.166 83.812C134.451 83.4947 134.798 83.2473 135.209 83.07C135.62 82.888 136.082 82.797 136.595 82.797C137.02 82.797 137.412 82.8693 137.771 83.014C138.135 83.154 138.448 83.3593 138.709 83.63C138.975 83.896 139.183 84.2273 139.332 84.624C139.481 85.016 139.556 85.464 139.556 85.968C139.556 86.164 139.535 86.2947 139.493 86.36C139.451 86.4253 139.372 86.458 139.255 86.458H134.516C134.53 86.906 134.591 87.2957 134.698 87.627C134.81 87.9583 134.964 88.236 135.16 88.46C135.356 88.6793 135.589 88.845 135.86 88.957C136.131 89.0643 136.434 89.118 136.77 89.118C137.083 89.118 137.351 89.083 137.575 89.013C137.804 88.9383 138 88.859 138.163 88.775C138.326 88.691 138.462 88.614 138.569 88.544C138.681 88.4693 138.777 88.432 138.856 88.432C138.959 88.432 139.038 88.4717 139.094 88.551L139.444 89.006ZM146.022 84.169C145.984 84.2203 145.947 84.26 145.91 84.288C145.872 84.316 145.821 84.33 145.756 84.33C145.686 84.33 145.609 84.302 145.525 84.246C145.441 84.1853 145.336 84.12 145.21 84.05C145.088 83.98 144.937 83.917 144.755 83.861C144.577 83.8003 144.358 83.77 144.097 83.77C143.747 83.77 143.439 83.833 143.173 83.959C142.907 84.0803 142.683 84.2577 142.501 84.491C142.323 84.7243 142.188 85.0067 142.095 85.338C142.006 85.6693 141.962 86.0403 141.962 86.451C141.962 86.8803 142.011 87.263 142.109 87.599C142.207 87.9303 142.344 88.2103 142.522 88.439C142.704 88.663 142.921 88.8357 143.173 88.957C143.429 89.0737 143.716 89.132 144.034 89.132C144.337 89.132 144.587 89.097 144.783 89.027C144.979 88.9523 145.14 88.8707 145.266 88.782C145.396 88.6933 145.504 88.614 145.588 88.544C145.676 88.4693 145.763 88.432 145.847 88.432C145.949 88.432 146.029 88.4717 146.085 88.551L146.435 89.006C146.281 89.1973 146.106 89.3607 145.91 89.496C145.714 89.6313 145.501 89.7457 145.273 89.839C145.049 89.9277 144.813 89.993 144.566 90.035C144.318 90.077 144.066 90.098 143.81 90.098C143.366 90.098 142.953 90.0163 142.571 89.853C142.193 89.6897 141.864 89.454 141.584 89.146C141.304 88.8333 141.084 88.4507 140.926 87.998C140.767 87.5453 140.688 87.0297 140.688 86.451C140.688 85.9237 140.76 85.436 140.905 84.988C141.054 84.54 141.269 84.155 141.549 83.833C141.833 83.5063 142.181 83.252 142.592 83.07C143.007 82.888 143.483 82.797 144.02 82.797C144.519 82.797 144.958 82.8787 145.336 83.042C145.718 83.2007 146.057 83.427 146.351 83.721L146.022 84.169ZM152.584 84.169C152.547 84.2203 152.509 84.26 152.472 84.288C152.435 84.316 152.383 84.33 152.318 84.33C152.248 84.33 152.171 84.302 152.087 84.246C152.003 84.1853 151.898 84.12 151.772 84.05C151.651 83.98 151.499 83.917 151.317 83.861C151.14 83.8003 150.92 83.77 150.659 83.77C150.309 83.77 150.001 83.833 149.735 83.959C149.469 84.0803 149.245 84.2577 149.063 84.491C148.886 84.7243 148.75 85.0067 148.657 85.338C148.568 85.6693 148.524 86.0403 148.524 86.451C148.524 86.8803 148.573 87.263 148.671 87.599C148.769 87.9303 148.907 88.2103 149.084 88.439C149.266 88.663 149.483 88.8357 149.735 88.957C149.992 89.0737 150.279 89.132 150.596 89.132C150.899 89.132 151.149 89.097 151.345 89.027C151.541 88.9523 151.702 88.8707 151.828 88.782C151.959 88.6933 152.066 88.614 152.15 88.544C152.239 88.4693 152.325 88.432 152.409 88.432C152.512 88.432 152.591 88.4717 152.647 88.551L152.997 89.006C152.843 89.1973 152.668 89.3607 152.472 89.496C152.276 89.6313 152.064 89.7457 151.835 89.839C151.611 89.9277 151.375 89.993 151.128 90.035C150.881 90.077 150.629 90.098 150.372 90.098C149.929 90.098 149.516 90.0163 149.133 89.853C148.755 89.6897 148.426 89.454 148.146 89.146C147.866 88.8333 147.647 88.4507 147.488 87.998C147.329 87.5453 147.25 87.0297 147.25 86.451C147.25 85.9237 147.322 85.436 147.467 84.988C147.616 84.54 147.831 84.155 148.111 83.833C148.396 83.5063 148.743 83.252 149.154 83.07C149.569 82.888 150.045 82.797 150.582 82.797C151.081 82.797 151.52 82.8787 151.898 83.042C152.281 83.2007 152.619 83.427 152.913 83.721L152.584 84.169ZM155.651 82.909V90H154.405V82.909H155.651ZM155.917 80.683C155.917 80.8043 155.891 80.9187 155.84 81.026C155.793 81.1287 155.728 81.222 155.644 81.306C155.564 81.3853 155.469 81.4483 155.357 81.495C155.249 81.5417 155.135 81.565 155.014 81.565C154.892 81.565 154.778 81.5417 154.671 81.495C154.568 81.4483 154.477 81.3853 154.398 81.306C154.318 81.222 154.255 81.1287 154.209 81.026C154.162 80.9187 154.139 80.8043 154.139 80.683C154.139 80.5617 154.162 80.4473 154.209 80.34C154.255 80.228 154.318 80.1323 154.398 80.053C154.477 79.969 154.568 79.9037 154.671 79.857C154.778 79.8103 154.892 79.787 155.014 79.787C155.135 79.787 155.249 79.8103 155.357 79.857C155.469 79.9037 155.564 79.969 155.644 80.053C155.728 80.1323 155.793 80.228 155.84 80.34C155.891 80.4473 155.917 80.5617 155.917 80.683ZM160.687 82.797C161.205 82.797 161.672 82.8833 162.087 83.056C162.502 83.2287 162.857 83.4737 163.151 83.791C163.445 84.1083 163.669 84.4933 163.823 84.946C163.982 85.394 164.061 85.8957 164.061 86.451C164.061 87.011 163.982 87.515 163.823 87.963C163.669 88.411 163.445 88.7937 163.151 89.111C162.857 89.4283 162.502 89.6733 162.087 89.846C161.672 90.014 161.205 90.098 160.687 90.098C160.164 90.098 159.693 90.014 159.273 89.846C158.858 89.6733 158.503 89.4283 158.209 89.111C157.915 88.7937 157.689 88.411 157.53 87.963C157.376 87.515 157.299 87.011 157.299 86.451C157.299 85.8957 157.376 85.394 157.53 84.946C157.689 84.4933 157.915 84.1083 158.209 83.791C158.503 83.4737 158.858 83.2287 159.273 83.056C159.693 82.8833 160.164 82.797 160.687 82.797ZM160.687 89.125C161.387 89.125 161.91 88.8917 162.255 88.425C162.6 87.9537 162.773 87.298 162.773 86.458C162.773 85.6133 162.6 84.9553 162.255 84.484C161.91 84.0127 161.387 83.777 160.687 83.777C160.332 83.777 160.022 83.8377 159.756 83.959C159.495 84.0803 159.275 84.2553 159.098 84.484C158.925 84.7127 158.795 84.995 158.706 85.331C158.622 85.6623 158.58 86.038 158.58 86.458C158.58 87.298 158.753 87.9537 159.098 88.425C159.448 88.8917 159.978 89.125 160.687 89.125ZM162.731 79.857L161.1 81.663C161.035 81.733 160.969 81.7843 160.904 81.817C160.843 81.845 160.764 81.859 160.666 81.859H159.924L160.96 80.165C161.025 80.0577 161.095 79.9807 161.17 79.934C161.249 79.8827 161.364 79.857 161.513 79.857H162.731ZM166.817 83.938C166.971 83.7653 167.135 83.609 167.307 83.469C167.48 83.329 167.662 83.21 167.853 83.112C168.049 83.0093 168.255 82.9323 168.469 82.881C168.689 82.825 168.924 82.797 169.176 82.797C169.564 82.797 169.904 82.8623 170.198 82.993C170.497 83.119 170.744 83.301 170.94 83.539C171.141 83.7723 171.293 84.0547 171.395 84.386C171.498 84.7173 171.549 85.0837 171.549 85.485V90H170.296V85.485C170.296 84.9483 170.173 84.533 169.925 84.239C169.683 83.9403 169.312 83.791 168.812 83.791C168.444 83.791 168.098 83.8797 167.776 84.057C167.459 84.2343 167.165 84.4747 166.894 84.778V90H165.641V82.909H166.39C166.568 82.909 166.677 82.9953 166.719 83.168L166.817 83.938Z" fill="#242E30"/>
<path d="M65 93.57H172.466V94.193H65V93.57Z" fill="#242E30"/>
<path d="M53.5 31.3333C53.5 37.1667 46 42.1667 46 42.1667C46 42.1667 38.5 37.1667 38.5 31.3333C38.5 29.3442 39.2902 27.4366 40.6967 26.03C42.1032 24.6235 44.0109 23.8333 46 23.8333C47.9891 23.8333 49.8968 24.6235 51.3033 26.03C52.7098 27.4366 53.5 29.3442 53.5 31.3333Z" stroke="#242E30" stroke-linecap="round" stroke-linejoin="round"/>
<path d="M46 33.8333C47.3807 33.8333 48.5 32.714 48.5 31.3333C48.5 29.9526 47.3807 28.8333 46 28.8333C44.6193 28.8333 43.5 29.9526 43.5 31.3333C43.5 32.714 44.6193 33.8333 46 33.8333Z" stroke="#242E30" stroke-linecap="round" stroke-linejoin="round"/>
<rect x="36" y="23" width="20" height="20" stroke="black"/>
</svg>
