<svg width="1013" height="120" viewBox="0 0 1013 120" fill="none" xmlns="http://www.w3.org/2000/svg">
<g filter="url(#filter0_d_20_59)">
<rect x="14" y="11" width="985" height="93" rx="46.5" fill="white"/>
</g>
<path d="M78.6066 65.2295C84.4735 65.2295 89.2295 60.4734 89.2295 54.6066C89.2295 48.7397 84.4735 43.9836 78.6066 43.9836C72.7397 43.9836 67.9836 48.7397 67.9836 54.6066C67.9836 60.4734 72.7397 65.2295 78.6066 65.2295Z" stroke="#FF8000" stroke-width="2.65574" stroke-linecap="round" stroke-linejoin="round"/>
<path d="M91.8854 67.8852L86.1091 62.109" stroke="#FF8000" stroke-width="2.65574" stroke-linecap="round" stroke-linejoin="round"/>
<path opacity="0.8" d="M127.058 62.0198C127.646 62.0198 128.152 61.9525 128.577 61.818C129.002 61.6834 129.349 61.4957 129.618 61.2549C129.894 61.0071 130.096 60.7167 130.223 60.3839C130.351 60.0439 130.415 59.6721 130.415 59.2685C130.415 58.4824 130.135 57.8627 129.575 57.4094C129.016 56.9491 128.177 56.7189 127.058 56.7189H123.765V62.0198H127.058ZM123.765 50.0584V55.253H126.484C127.065 55.253 127.568 55.1892 127.993 55.0618C128.425 54.9343 128.779 54.7572 129.055 54.5306C129.338 54.304 129.547 54.0313 129.682 53.7126C129.816 53.3869 129.884 53.0328 129.884 52.6504C129.884 51.7509 129.614 51.0959 129.076 50.6851C128.538 50.2673 127.702 50.0584 126.569 50.0584H123.765ZM126.569 48.433C127.504 48.433 128.308 48.5251 128.981 48.7092C129.66 48.8934 130.216 49.1554 130.648 49.4953C131.087 49.8353 131.41 50.2531 131.615 50.7488C131.82 51.2375 131.923 51.7899 131.923 52.406C131.923 52.7814 131.863 53.1426 131.743 53.4896C131.629 53.8295 131.456 54.1482 131.222 54.4456C130.988 54.7431 130.691 55.0122 130.33 55.253C129.976 55.4867 129.558 55.6779 129.076 55.8266C130.195 56.0391 131.034 56.4392 131.594 57.027C132.16 57.6077 132.444 58.3726 132.444 59.3216C132.444 59.966 132.323 60.5538 132.083 61.085C131.849 61.6161 131.502 62.0729 131.041 62.4553C130.588 62.8378 130.029 63.1352 129.363 63.3477C128.697 63.553 127.94 63.6557 127.09 63.6557H121.715V48.433H126.569ZM144.049 52.8947V63.6557H142.923C142.654 63.6557 142.484 63.5247 142.413 63.2627L142.264 62.1048C141.797 62.6218 141.273 63.0396 140.692 63.3583C140.112 63.6699 139.446 63.8257 138.695 63.8257C138.107 63.8257 137.587 63.7301 137.134 63.5389C136.687 63.3406 136.312 63.0644 136.008 62.7103C135.703 62.3562 135.473 61.9277 135.317 61.4249C135.168 60.9221 135.094 60.3662 135.094 59.7571V52.8947H136.985V59.7571C136.985 60.5715 137.169 61.2018 137.537 61.648C137.913 62.0942 138.483 62.3172 139.248 62.3172C139.807 62.3172 140.328 62.1862 140.809 61.9242C141.298 61.6551 141.747 61.2868 142.158 60.8194V52.8947H144.049ZM153.74 54.6687C153.655 54.8245 153.524 54.9024 153.347 54.9024C153.24 54.9024 153.12 54.8635 152.985 54.7856C152.851 54.7077 152.685 54.6227 152.486 54.5306C152.295 54.4315 152.065 54.3429 151.796 54.265C151.527 54.1801 151.208 54.1376 150.84 54.1376C150.521 54.1376 150.234 54.1801 149.979 54.265C149.724 54.3429 149.505 54.4527 149.321 54.5944C149.144 54.736 149.005 54.9024 148.906 55.0936C148.814 55.2778 148.768 55.4796 148.768 55.6991C148.768 55.9753 148.846 56.2055 149.002 56.3896C149.165 56.5738 149.377 56.7331 149.639 56.8677C149.901 57.0022 150.199 57.1226 150.532 57.2288C150.864 57.328 151.204 57.4378 151.551 57.5582C151.905 57.6715 152.249 57.7989 152.582 57.9406C152.915 58.0822 153.212 58.2593 153.474 58.4717C153.736 58.6842 153.945 58.9462 154.101 59.2578C154.264 59.5624 154.345 59.9306 154.345 60.3626C154.345 60.8584 154.257 61.3187 154.08 61.7436C153.903 62.1614 153.641 62.5262 153.294 62.8378C152.947 63.1423 152.522 63.3831 152.019 63.5601C151.516 63.7372 150.935 63.8257 150.277 63.8257C149.526 63.8257 148.846 63.7053 148.237 63.4645C147.628 63.2166 147.111 62.9015 146.686 62.5191L147.132 61.7967C147.189 61.7046 147.256 61.6338 147.334 61.5843C147.412 61.5347 147.511 61.5099 147.632 61.5099C147.759 61.5099 147.894 61.5595 148.035 61.6586C148.177 61.7578 148.347 61.8675 148.545 61.9879C148.75 62.1083 148.998 62.2181 149.289 62.3172C149.579 62.4164 149.94 62.466 150.372 62.466C150.741 62.466 151.063 62.4199 151.339 62.3279C151.615 62.2287 151.845 62.0977 152.029 61.9348C152.214 61.7719 152.348 61.5843 152.433 61.3718C152.525 61.1593 152.571 60.9327 152.571 60.6919C152.571 60.3945 152.49 60.1502 152.327 59.9589C152.171 59.7606 151.962 59.5942 151.7 59.4597C151.438 59.318 151.137 59.1976 150.797 59.0985C150.464 58.9923 150.121 58.8825 149.767 58.7692C149.42 58.6559 149.076 58.5284 148.736 58.3867C148.403 58.238 148.106 58.0539 147.844 57.8344C147.582 57.6148 147.369 57.3457 147.207 57.027C147.051 56.7012 146.973 56.3082 146.973 55.8479C146.973 55.4371 147.058 55.0441 147.228 54.6687C147.398 54.2863 147.646 53.9534 147.971 53.6702C148.297 53.3798 148.697 53.1496 149.172 52.9797C149.646 52.8097 150.188 52.7247 150.797 52.7247C151.505 52.7247 152.139 52.838 152.699 53.0646C153.265 53.2842 153.754 53.5887 154.165 53.9782L153.74 54.6687ZM164.578 54.8068C164.521 54.8847 164.464 54.9449 164.408 54.9874C164.351 55.0299 164.273 55.0511 164.174 55.0511C164.068 55.0511 163.951 55.0086 163.823 54.9237C163.696 54.8316 163.537 54.7325 163.345 54.6262C163.161 54.52 162.931 54.4244 162.655 54.3394C162.386 54.2473 162.053 54.2013 161.656 54.2013C161.125 54.2013 160.658 54.2969 160.254 54.4881C159.85 54.6723 159.51 54.9414 159.234 55.2955C158.965 55.6496 158.76 56.078 158.618 56.5808C158.484 57.0837 158.416 57.6467 158.416 58.2699C158.416 58.9214 158.491 59.5022 158.639 60.0121C158.788 60.5149 158.997 60.9398 159.266 61.2868C159.542 61.6267 159.872 61.8888 160.254 62.0729C160.644 62.25 161.079 62.3385 161.561 62.3385C162.021 62.3385 162.4 62.2854 162.697 62.1791C162.995 62.0658 163.239 61.9419 163.43 61.8073C163.629 61.6728 163.792 61.5524 163.919 61.4462C164.054 61.3328 164.185 61.2762 164.312 61.2762C164.468 61.2762 164.588 61.3364 164.673 61.4568L165.204 62.1473C164.971 62.4376 164.705 62.6855 164.408 62.8909C164.11 63.0963 163.788 63.2698 163.441 63.4114C163.101 63.546 162.743 63.6451 162.368 63.7088C161.993 63.7726 161.61 63.8045 161.221 63.8045C160.548 63.8045 159.921 63.6805 159.341 63.4326C158.767 63.1848 158.268 62.8271 157.843 62.3597C157.418 61.8852 157.085 61.3045 156.844 60.6176C156.603 59.9306 156.483 59.1481 156.483 58.2699C156.483 57.4696 156.593 56.7296 156.812 56.0497C157.039 55.3698 157.365 54.7856 157.79 54.2969C158.222 53.8012 158.749 53.4152 159.372 53.139C160.003 52.8628 160.725 52.7247 161.539 52.7247C162.297 52.7247 162.963 52.8486 163.537 53.0965C164.117 53.3373 164.631 53.6808 165.077 54.1269L164.578 54.8068ZM173.491 58.8117C172.62 58.84 171.876 58.9108 171.26 59.0241C170.651 59.1304 170.152 59.272 169.762 59.449C169.38 59.6261 169.1 59.835 168.923 60.0758C168.753 60.3166 168.668 60.5857 168.668 60.8831C168.668 61.1664 168.714 61.4107 168.806 61.6161C168.898 61.8215 169.022 61.9915 169.178 62.126C169.341 62.2535 169.529 62.3491 169.741 62.4128C169.961 62.4695 170.194 62.4978 170.442 62.4978C170.775 62.4978 171.08 62.466 171.356 62.4022C171.632 62.3314 171.891 62.2323 172.131 62.1048C172.379 61.9773 172.613 61.825 172.832 61.648C173.059 61.4709 173.279 61.2691 173.491 61.0425V58.8117ZM167.383 54.4138C167.978 53.8401 168.619 53.4117 169.306 53.1284C169.993 52.8451 170.754 52.7035 171.59 52.7035C172.192 52.7035 172.726 52.8026 173.194 53.0009C173.661 53.1992 174.054 53.4754 174.373 53.8295C174.691 54.1836 174.932 54.6121 175.095 55.1149C175.258 55.6177 175.339 56.1701 175.339 56.7721V63.6557H174.5C174.316 63.6557 174.175 63.6274 174.075 63.5707C173.976 63.507 173.898 63.3866 173.842 63.2096L173.629 62.1898C173.346 62.4518 173.07 62.6855 172.801 62.8909C172.531 63.0892 172.248 63.2591 171.951 63.4008C171.653 63.5353 171.335 63.638 170.995 63.7088C170.662 63.7867 170.29 63.8257 169.879 63.8257C169.461 63.8257 169.068 63.769 168.7 63.6557C168.332 63.5353 168.01 63.3583 167.733 63.1246C167.464 62.8909 167.248 62.597 167.085 62.2429C166.93 61.8817 166.852 61.4568 166.852 60.9681C166.852 60.5432 166.969 60.136 167.202 59.7465C167.436 59.3499 167.815 58.9993 168.339 58.6948C168.863 58.3903 169.546 58.1424 170.389 57.9512C171.232 57.7529 172.266 57.6396 173.491 57.6113V56.7721C173.491 55.9364 173.311 55.3061 172.949 54.8812C172.588 54.4492 172.061 54.2332 171.367 54.2332C170.899 54.2332 170.506 54.2934 170.187 54.4138C169.876 54.5271 169.603 54.6581 169.369 54.8068C169.143 54.9485 168.944 55.0795 168.775 55.1999C168.612 55.3132 168.449 55.3698 168.286 55.3698C168.158 55.3698 168.049 55.338 167.957 55.2742C167.864 55.2034 167.787 55.1184 167.723 55.0193L167.383 54.4138ZM180.44 55.0511C180.78 54.3146 181.198 53.741 181.694 53.3302C182.189 52.9124 182.795 52.7035 183.51 52.7035C183.737 52.7035 183.953 52.7283 184.158 52.7778C184.37 52.8274 184.558 52.9053 184.721 53.0115L184.583 54.4244C184.54 54.6014 184.434 54.69 184.264 54.69C184.165 54.69 184.02 54.6687 183.829 54.6262C183.638 54.5837 183.422 54.5625 183.181 54.5625C182.841 54.5625 182.536 54.6121 182.267 54.7112C182.005 54.8104 181.768 54.9591 181.555 55.1574C181.35 55.3486 181.162 55.5894 180.992 55.8797C180.83 56.163 180.681 56.4888 180.546 56.857V63.6557H178.645V52.8947H179.728C179.934 52.8947 180.075 52.9336 180.153 53.0115C180.231 53.0894 180.284 53.224 180.313 53.4152L180.44 55.0511ZM194.008 55.0511C194.348 54.3146 194.766 53.741 195.262 53.3302C195.758 52.9124 196.363 52.7035 197.078 52.7035C197.305 52.7035 197.521 52.7283 197.726 52.7778C197.939 52.8274 198.126 52.9053 198.289 53.0115L198.151 54.4244C198.109 54.6014 198.003 54.69 197.833 54.69C197.733 54.69 197.588 54.6687 197.397 54.6262C197.206 54.5837 196.99 54.5625 196.749 54.5625C196.409 54.5625 196.105 54.6121 195.835 54.7112C195.573 54.8104 195.336 54.9591 195.124 55.1574C194.918 55.3486 194.731 55.5894 194.561 55.8797C194.398 56.163 194.249 56.4888 194.115 56.857V63.6557H192.213V52.8947H193.297C193.502 52.8947 193.644 52.9336 193.722 53.0115C193.799 53.0894 193.853 53.224 193.881 53.4152L194.008 55.0511ZM207.144 57.1014C207.144 56.6623 207.08 56.2622 206.952 55.901C206.832 55.5327 206.651 55.2176 206.411 54.9555C206.177 54.6864 205.89 54.481 205.55 54.3394C205.21 54.1907 204.824 54.1163 204.392 54.1163C203.486 54.1163 202.767 54.3819 202.236 54.913C201.712 55.4371 201.386 56.1666 201.259 57.1014H207.144ZM208.673 62.1473C208.44 62.4306 208.16 62.6784 207.834 62.8909C207.508 63.0963 207.158 63.2662 206.782 63.4008C206.414 63.5353 206.032 63.6345 205.635 63.6982C205.239 63.769 204.846 63.8045 204.456 63.8045C203.712 63.8045 203.025 63.6805 202.395 63.4326C201.772 63.1777 201.23 62.8094 200.77 62.3279C200.317 61.8392 199.963 61.2372 199.708 60.522C199.453 59.8067 199.325 58.9852 199.325 58.0574C199.325 57.3067 199.438 56.6056 199.665 55.9541C199.899 55.3026 200.232 54.7395 200.664 54.265C201.096 53.7835 201.623 53.4081 202.246 53.139C202.87 52.8628 203.571 52.7247 204.35 52.7247C204.994 52.7247 205.589 52.8345 206.134 53.054C206.687 53.2665 207.161 53.5781 207.558 53.9888C207.962 54.3925 208.277 54.8953 208.503 55.4973C208.73 56.0922 208.843 56.7721 208.843 57.5369C208.843 57.8344 208.811 58.0326 208.748 58.1318C208.684 58.2309 208.564 58.2805 208.387 58.2805H201.195C201.216 58.9604 201.308 59.5517 201.471 60.0546C201.641 60.5574 201.875 60.9787 202.172 61.3187C202.47 61.6515 202.824 61.9029 203.234 62.0729C203.645 62.2358 204.105 62.3172 204.615 62.3172C205.09 62.3172 205.497 62.2641 205.837 62.1579C206.184 62.0446 206.481 61.9242 206.729 61.7967C206.977 61.6692 207.183 61.5524 207.345 61.4462C207.515 61.3328 207.661 61.2762 207.781 61.2762C207.937 61.2762 208.057 61.3364 208.142 61.4568L208.673 62.1473ZM217.858 54.6687C217.773 54.8245 217.642 54.9024 217.465 54.9024C217.359 54.9024 217.239 54.8635 217.104 54.7856C216.97 54.7077 216.803 54.6227 216.605 54.5306C216.414 54.4315 216.183 54.3429 215.914 54.265C215.645 54.1801 215.327 54.1376 214.958 54.1376C214.64 54.1376 214.353 54.1801 214.098 54.265C213.843 54.3429 213.623 54.4527 213.439 54.5944C213.262 54.736 213.124 54.9024 213.025 55.0936C212.933 55.2778 212.887 55.4796 212.887 55.6991C212.887 55.9753 212.965 56.2055 213.121 56.3896C213.283 56.5738 213.496 56.7331 213.758 56.8677C214.02 57.0022 214.317 57.1226 214.65 57.2288C214.983 57.328 215.323 57.4378 215.67 57.5582C216.024 57.6715 216.368 57.7989 216.7 57.9406C217.033 58.0822 217.331 58.2593 217.593 58.4717C217.855 58.6842 218.064 58.9462 218.22 59.2578C218.382 59.5624 218.464 59.9306 218.464 60.3626C218.464 60.8584 218.375 61.3187 218.198 61.7436C218.021 62.1614 217.759 62.5262 217.412 62.8378C217.065 63.1423 216.64 63.3831 216.137 63.5601C215.635 63.7372 215.054 63.8257 214.395 63.8257C213.645 63.8257 212.965 63.7053 212.356 63.4645C211.747 63.2166 211.23 62.9015 210.805 62.5191L211.251 61.7967C211.308 61.7046 211.375 61.6338 211.453 61.5843C211.531 61.5347 211.63 61.5099 211.75 61.5099C211.878 61.5099 212.012 61.5595 212.154 61.6586C212.295 61.7578 212.465 61.8675 212.664 61.9879C212.869 62.1083 213.117 62.2181 213.407 62.3172C213.698 62.4164 214.059 62.466 214.491 62.466C214.859 62.466 215.181 62.4199 215.458 62.3279C215.734 62.2287 215.964 62.0977 216.148 61.9348C216.332 61.7719 216.467 61.5843 216.552 61.3718C216.644 61.1593 216.69 60.9327 216.69 60.6919C216.69 60.3945 216.608 60.1502 216.446 59.9589C216.29 59.7606 216.081 59.5942 215.819 59.4597C215.557 59.318 215.256 59.1976 214.916 59.0985C214.583 58.9923 214.239 58.8825 213.885 58.7692C213.538 58.6559 213.195 58.5284 212.855 58.3867C212.522 58.238 212.225 58.0539 211.963 57.8344C211.701 57.6148 211.488 57.3457 211.325 57.027C211.169 56.7012 211.092 56.3082 211.092 55.8479C211.092 55.4371 211.177 55.0441 211.346 54.6687C211.516 54.2863 211.764 53.9534 212.09 53.6702C212.416 53.3798 212.816 53.1496 213.29 52.9797C213.765 52.8097 214.307 52.7247 214.916 52.7247C215.624 52.7247 216.258 52.838 216.817 53.0646C217.384 53.2842 217.873 53.5887 218.283 53.9782L217.858 54.6687ZM224.511 63.8257C223.661 63.8257 223.006 63.5885 222.546 63.114C222.092 62.6395 221.866 61.9561 221.866 61.0637V54.4775H220.57C220.456 54.4775 220.361 54.4456 220.283 54.3819C220.205 54.3111 220.166 54.2048 220.166 54.0632V53.309L221.929 53.0859L222.365 49.7609C222.386 49.6547 222.432 49.5697 222.503 49.506C222.581 49.4351 222.68 49.3997 222.801 49.3997H223.757V53.1071H226.869V54.4775H223.757V60.9363C223.757 61.3895 223.866 61.7259 224.086 61.9454C224.305 62.165 224.589 62.2747 224.936 62.2747C225.134 62.2747 225.304 62.25 225.446 62.2004C225.594 62.1437 225.722 62.0835 225.828 62.0198C225.934 61.9561 226.023 61.8994 226.094 61.8498C226.172 61.7932 226.239 61.7648 226.295 61.7648C226.395 61.7648 226.483 61.825 226.561 61.9454L227.113 62.8484C226.788 63.1529 226.395 63.3937 225.934 63.5707C225.474 63.7407 224.999 63.8257 224.511 63.8257ZM235.078 58.8117C234.207 58.84 233.464 58.9108 232.848 59.0241C232.239 59.1304 231.739 59.272 231.35 59.449C230.967 59.6261 230.688 59.835 230.511 60.0758C230.341 60.3166 230.256 60.5857 230.256 60.8831C230.256 61.1664 230.302 61.4107 230.394 61.6161C230.486 61.8215 230.61 61.9915 230.766 62.126C230.928 62.2535 231.116 62.3491 231.329 62.4128C231.548 62.4695 231.782 62.4978 232.03 62.4978C232.363 62.4978 232.667 62.466 232.943 62.4022C233.219 62.3314 233.478 62.2323 233.719 62.1048C233.967 61.9773 234.2 61.825 234.42 61.648C234.646 61.4709 234.866 61.2691 235.078 61.0425V58.8117ZM228.97 54.4138C229.565 53.8401 230.206 53.4117 230.893 53.1284C231.58 52.8451 232.341 52.7035 233.177 52.7035C233.779 52.7035 234.314 52.8026 234.781 53.0009C235.248 53.1992 235.642 53.4754 235.96 53.8295C236.279 54.1836 236.52 54.6121 236.683 55.1149C236.845 55.6177 236.927 56.1701 236.927 56.7721V63.6557H236.088C235.904 63.6557 235.762 63.6274 235.663 63.5707C235.564 63.507 235.486 63.3866 235.429 63.2096L235.217 62.1898C234.933 62.4518 234.657 62.6855 234.388 62.8909C234.119 63.0892 233.836 63.2591 233.538 63.4008C233.241 63.5353 232.922 63.638 232.582 63.7088C232.249 63.7867 231.877 63.8257 231.467 63.8257C231.049 63.8257 230.656 63.769 230.288 63.6557C229.919 63.5353 229.597 63.3583 229.321 63.1246C229.052 62.8909 228.836 62.597 228.673 62.2429C228.517 61.8817 228.439 61.4568 228.439 60.9681C228.439 60.5432 228.556 60.136 228.79 59.7465C229.023 59.3499 229.402 58.9993 229.926 58.6948C230.45 58.3903 231.134 58.1424 231.977 57.9512C232.819 57.7529 233.853 57.6396 235.078 57.6113V56.7721C235.078 55.9364 234.898 55.3061 234.537 54.8812C234.176 54.4492 233.648 54.2332 232.954 54.2332C232.486 54.2332 232.093 54.2934 231.775 54.4138C231.463 54.5271 231.19 54.6581 230.957 54.8068C230.73 54.9485 230.532 55.0795 230.362 55.1999C230.199 55.3132 230.036 55.3698 229.873 55.3698C229.746 55.3698 229.636 55.338 229.544 55.2742C229.452 55.2034 229.374 55.1184 229.31 55.0193L228.97 54.4138ZM249.081 52.8947V63.6557H247.955C247.686 63.6557 247.516 63.5247 247.445 63.2627L247.296 62.1048C246.829 62.6218 246.305 63.0396 245.724 63.3583C245.143 63.6699 244.478 63.8257 243.727 63.8257C243.139 63.8257 242.619 63.7301 242.165 63.5389C241.719 63.3406 241.344 63.0644 241.039 62.7103C240.735 62.3562 240.505 61.9277 240.349 61.4249C240.2 60.9221 240.126 60.3662 240.126 59.7571V52.8947H242.017V59.7571C242.017 60.5715 242.201 61.2018 242.569 61.648C242.945 62.0942 243.515 62.3172 244.279 62.3172C244.839 62.3172 245.359 62.1862 245.841 61.9242C246.33 61.6551 246.779 61.2868 247.19 60.8194V52.8947H249.081ZM254.299 55.0511C254.639 54.3146 255.057 53.741 255.553 53.3302C256.049 52.9124 256.654 52.7035 257.369 52.7035C257.596 52.7035 257.812 52.7283 258.017 52.7778C258.23 52.8274 258.418 52.9053 258.58 53.0115L258.442 54.4244C258.4 54.6014 258.294 54.69 258.124 54.69C258.025 54.69 257.879 54.6687 257.688 54.6262C257.497 54.5837 257.281 54.5625 257.04 54.5625C256.7 54.5625 256.396 54.6121 256.127 54.7112C255.865 54.8104 255.627 54.9591 255.415 55.1574C255.209 55.3486 255.022 55.5894 254.852 55.8797C254.689 56.163 254.54 56.4888 254.406 56.857V63.6557H252.504V52.8947H253.588C253.793 52.8947 253.935 52.9336 254.013 53.0115C254.09 53.0894 254.144 53.224 254.172 53.4152L254.299 55.0511ZM266.334 58.8117C265.463 58.84 264.719 58.9108 264.103 59.0241C263.494 59.1304 262.995 59.272 262.605 59.449C262.223 59.6261 261.943 59.835 261.766 60.0758C261.596 60.3166 261.511 60.5857 261.511 60.8831C261.511 61.1664 261.557 61.4107 261.649 61.6161C261.741 61.8215 261.865 61.9915 262.021 62.126C262.184 62.2535 262.372 62.3491 262.584 62.4128C262.804 62.4695 263.037 62.4978 263.285 62.4978C263.618 62.4978 263.923 62.466 264.199 62.4022C264.475 62.3314 264.734 62.2323 264.974 62.1048C265.222 61.9773 265.456 61.825 265.675 61.648C265.902 61.4709 266.122 61.2691 266.334 61.0425V58.8117ZM260.226 54.4138C260.821 53.8401 261.462 53.4117 262.149 53.1284C262.836 52.8451 263.597 52.7035 264.433 52.7035C265.034 52.7035 265.569 52.8026 266.037 53.0009C266.504 53.1992 266.897 53.4754 267.216 53.8295C267.534 54.1836 267.775 54.6121 267.938 55.1149C268.101 55.6177 268.182 56.1701 268.182 56.7721V63.6557H267.343C267.159 63.6557 267.017 63.6274 266.918 63.5707C266.819 63.507 266.741 63.3866 266.685 63.2096L266.472 62.1898C266.189 62.4518 265.913 62.6855 265.644 62.8909C265.374 63.0892 265.091 63.2591 264.794 63.4008C264.496 63.5353 264.178 63.638 263.838 63.7088C263.505 63.7867 263.133 63.8257 262.722 63.8257C262.304 63.8257 261.911 63.769 261.543 63.6557C261.175 63.5353 260.853 63.3583 260.576 63.1246C260.307 62.8909 260.091 62.597 259.928 62.2429C259.773 61.8817 259.695 61.4568 259.695 60.9681C259.695 60.5432 259.812 60.136 260.045 59.7465C260.279 59.3499 260.658 58.9993 261.182 58.6948C261.706 58.3903 262.389 58.1424 263.232 57.9512C264.075 57.7529 265.109 57.6396 266.334 57.6113V56.7721C266.334 55.9364 266.153 55.3061 265.792 54.8812C265.431 54.4492 264.903 54.2332 264.209 54.2332C263.742 54.2332 263.349 54.2934 263.03 54.4138C262.719 54.5271 262.446 54.6581 262.212 54.8068C261.986 54.9485 261.787 55.0795 261.617 55.1999C261.455 55.3132 261.292 55.3698 261.129 55.3698C261.001 55.3698 260.892 55.338 260.799 55.2742C260.707 55.2034 260.63 55.1184 260.566 55.0193L260.226 54.4138ZM273.272 54.4563C273.506 54.1942 273.754 53.957 274.016 53.7445C274.278 53.5321 274.554 53.3515 274.845 53.2027C275.142 53.0469 275.454 52.9301 275.779 52.8522C276.112 52.7672 276.47 52.7247 276.852 52.7247C277.44 52.7247 277.957 52.8239 278.403 53.0222C278.856 53.2134 279.232 53.4896 279.529 53.8507C279.834 54.2048 280.064 54.6333 280.22 55.1361C280.376 55.6389 280.453 56.1949 280.453 56.8039V63.6557H278.552V56.8039C278.552 55.9895 278.364 55.3592 277.989 54.913C277.621 54.4598 277.058 54.2332 276.3 54.2332C275.74 54.2332 275.216 54.3677 274.728 54.6368C274.246 54.906 273.8 55.2707 273.389 55.731V63.6557H271.488V52.8947H272.624C272.893 52.8947 273.06 53.0257 273.124 53.2877L273.272 54.4563ZM286.918 63.8257C286.068 63.8257 285.413 63.5885 284.953 63.114C284.5 62.6395 284.273 61.9561 284.273 61.0637V54.4775H282.977C282.864 54.4775 282.768 54.4456 282.69 54.3819C282.612 54.3111 282.573 54.2048 282.573 54.0632V53.309L284.337 53.0859L284.772 49.7609C284.794 49.6547 284.84 49.5697 284.91 49.506C284.988 49.4351 285.087 49.3997 285.208 49.3997H286.164V53.1071H289.276V54.4775H286.164V60.9363C286.164 61.3895 286.274 61.7259 286.493 61.9454C286.713 62.165 286.996 62.2747 287.343 62.2747C287.541 62.2747 287.711 62.25 287.853 62.2004C288.002 62.1437 288.129 62.0835 288.235 62.0198C288.342 61.9561 288.43 61.8994 288.501 61.8498C288.579 61.7932 288.646 61.7648 288.703 61.7648C288.802 61.7648 288.89 61.825 288.968 61.9454L289.521 62.8484C289.195 63.1529 288.802 63.3937 288.342 63.5707C287.881 63.7407 287.407 63.8257 286.918 63.8257ZM298.794 57.1014C298.794 56.6623 298.73 56.2622 298.603 55.901C298.482 55.5327 298.302 55.2176 298.061 54.9555C297.827 54.6864 297.54 54.481 297.201 54.3394C296.861 54.1907 296.475 54.1163 296.043 54.1163C295.136 54.1163 294.417 54.3819 293.886 54.913C293.362 55.4371 293.036 56.1666 292.909 57.1014H298.794ZM300.324 62.1473C300.09 62.4306 299.81 62.6784 299.484 62.8909C299.159 63.0963 298.808 63.2662 298.433 63.4008C298.065 63.5353 297.682 63.6345 297.285 63.6982C296.889 63.769 296.496 63.8045 296.106 63.8045C295.363 63.8045 294.676 63.6805 294.045 63.4326C293.422 63.1777 292.881 62.8094 292.42 62.3279C291.967 61.8392 291.613 61.2372 291.358 60.522C291.103 59.8067 290.975 58.9852 290.975 58.0574C290.975 57.3067 291.089 56.6056 291.315 55.9541C291.549 55.3026 291.882 54.7395 292.314 54.265C292.746 53.7835 293.274 53.4081 293.897 53.139C294.52 52.8628 295.221 52.7247 296 52.7247C296.645 52.7247 297.239 52.8345 297.785 53.054C298.337 53.2665 298.812 53.5781 299.208 53.9888C299.612 54.3925 299.927 54.8953 300.154 55.4973C300.38 56.0922 300.494 56.7721 300.494 57.5369C300.494 57.8344 300.462 58.0326 300.398 58.1318C300.334 58.2309 300.214 58.2805 300.037 58.2805H292.845C292.866 58.9604 292.958 59.5517 293.121 60.0546C293.291 60.5574 293.525 60.9787 293.822 61.3187C294.12 61.6515 294.474 61.9029 294.885 62.0729C295.295 62.2358 295.756 62.3172 296.266 62.3172C296.74 62.3172 297.147 62.2641 297.487 62.1579C297.834 62.0446 298.132 61.9242 298.38 61.7967C298.628 61.6692 298.833 61.5524 298.996 61.4462C299.166 61.3328 299.311 61.2762 299.431 61.2762C299.587 61.2762 299.708 61.3364 299.793 61.4568L300.324 62.1473ZM313.638 52.7247C314.424 52.7247 315.132 52.8557 315.763 53.1178C316.393 53.3798 316.931 53.7516 317.377 54.2332C317.823 54.7147 318.163 55.299 318.397 55.986C318.638 56.6658 318.758 57.4271 318.758 58.2699C318.758 59.1197 318.638 59.8846 318.397 60.5645C318.163 61.2443 317.823 61.825 317.377 62.3066C316.931 62.7882 316.393 63.16 315.763 63.422C315.132 63.677 314.424 63.8045 313.638 63.8045C312.845 63.8045 312.13 63.677 311.492 63.422C310.862 63.16 310.324 62.7882 309.877 62.3066C309.431 61.825 309.088 61.2443 308.847 60.5645C308.613 59.8846 308.497 59.1197 308.497 58.2699C308.497 57.4271 308.613 56.6658 308.847 55.986C309.088 55.299 309.431 54.7147 309.877 54.2332C310.324 53.7516 310.862 53.3798 311.492 53.1178C312.13 52.8557 312.845 52.7247 313.638 52.7247ZM313.638 62.3279C314.7 62.3279 315.493 61.9738 316.018 61.2656C316.542 60.5503 316.804 59.5553 316.804 58.2805C316.804 56.9987 316.542 56.0001 316.018 55.2848C315.493 54.5696 314.7 54.2119 313.638 54.2119C313.1 54.2119 312.629 54.304 312.225 54.4881C311.829 54.6723 311.496 54.9378 311.227 55.2848C310.965 55.6319 310.766 56.0603 310.632 56.5702C310.504 57.073 310.441 57.6431 310.441 58.2805C310.441 59.5553 310.703 60.5503 311.227 61.2656C311.758 61.9738 312.562 62.3279 313.638 62.3279ZM334.932 54.8068C334.875 54.8847 334.818 54.9449 334.762 54.9874C334.705 55.0299 334.627 55.0511 334.528 55.0511C334.422 55.0511 334.305 55.0086 334.177 54.9237C334.05 54.8316 333.891 54.7325 333.699 54.6262C333.515 54.52 333.285 54.4244 333.009 54.3394C332.74 54.2473 332.407 54.2013 332.01 54.2013C331.479 54.2013 331.012 54.2969 330.608 54.4881C330.204 54.6723 329.864 54.9414 329.588 55.2955C329.319 55.6496 329.114 56.078 328.972 56.5808C328.838 57.0837 328.77 57.6467 328.77 58.2699C328.77 58.9214 328.845 59.5022 328.993 60.0121C329.142 60.5149 329.351 60.9398 329.62 61.2868C329.896 61.6267 330.226 61.8888 330.608 62.0729C330.998 62.25 331.433 62.3385 331.915 62.3385C332.375 62.3385 332.754 62.2854 333.051 62.1791C333.349 62.0658 333.593 61.9419 333.784 61.8073C333.983 61.6728 334.145 61.5524 334.273 61.4462C334.408 61.3328 334.539 61.2762 334.666 61.2762C334.822 61.2762 334.942 61.3364 335.027 61.4568L335.558 62.1473C335.325 62.4376 335.059 62.6855 334.762 62.8909C334.464 63.0963 334.142 63.2698 333.795 63.4114C333.455 63.546 333.097 63.6451 332.722 63.7088C332.347 63.7726 331.964 63.8045 331.575 63.8045C330.902 63.8045 330.275 63.6805 329.694 63.4326C329.121 63.1848 328.622 62.8271 328.197 62.3597C327.772 61.8852 327.439 61.3045 327.198 60.6176C326.957 59.9306 326.837 59.1481 326.837 58.2699C326.837 57.4696 326.947 56.7296 327.166 56.0497C327.393 55.3698 327.719 54.7856 328.144 54.2969C328.576 53.8012 329.103 53.4152 329.726 53.139C330.357 52.8628 331.079 52.7247 331.893 52.7247C332.651 52.7247 333.317 52.8486 333.891 53.0965C334.471 53.3373 334.985 53.6808 335.431 54.1269L334.932 54.8068ZM342.362 52.7247C343.148 52.7247 343.857 52.8557 344.487 53.1178C345.117 53.3798 345.655 53.7516 346.102 54.2332C346.548 54.7147 346.888 55.299 347.121 55.986C347.362 56.6658 347.483 57.4271 347.483 58.2699C347.483 59.1197 347.362 59.8846 347.121 60.5645C346.888 61.2443 346.548 61.825 346.102 62.3066C345.655 62.7882 345.117 63.16 344.487 63.422C343.857 63.677 343.148 63.8045 342.362 63.8045C341.569 63.8045 340.854 63.677 340.216 63.422C339.586 63.16 339.048 62.7882 338.602 62.3066C338.156 61.825 337.812 61.2443 337.571 60.5645C337.338 59.8846 337.221 59.1197 337.221 58.2699C337.221 57.4271 337.338 56.6658 337.571 55.986C337.812 55.299 338.156 54.7147 338.602 54.2332C339.048 53.7516 339.586 53.3798 340.216 53.1178C340.854 52.8557 341.569 52.7247 342.362 52.7247ZM342.362 62.3279C343.425 62.3279 344.218 61.9738 344.742 61.2656C345.266 60.5503 345.528 59.5553 345.528 58.2805C345.528 56.9987 345.266 56.0001 344.742 55.2848C344.218 54.5696 343.425 54.2119 342.362 54.2119C341.824 54.2119 341.353 54.304 340.949 54.4881C340.553 54.6723 340.22 54.9378 339.951 55.2848C339.689 55.6319 339.491 56.0603 339.356 56.5702C339.229 57.073 339.165 57.6431 339.165 58.2805C339.165 59.5553 339.427 60.5503 339.951 61.2656C340.482 61.9738 341.286 62.3279 342.362 62.3279ZM357.795 54.8068C357.738 54.8847 357.682 54.9449 357.625 54.9874C357.568 55.0299 357.49 55.0511 357.391 55.0511C357.285 55.0511 357.168 55.0086 357.041 54.9237C356.913 54.8316 356.754 54.7325 356.563 54.6262C356.379 54.52 356.148 54.4244 355.872 54.3394C355.603 54.2473 355.27 54.2013 354.874 54.2013C354.343 54.2013 353.875 54.2969 353.471 54.4881C353.068 54.6723 352.728 54.9414 352.452 55.2955C352.183 55.6496 351.977 56.078 351.836 56.5808C351.701 57.0837 351.634 57.6467 351.634 58.2699C351.634 58.9214 351.708 59.5022 351.857 60.0121C352.005 60.5149 352.214 60.9398 352.484 61.2868C352.76 61.6267 353.089 61.8888 353.471 62.0729C353.861 62.25 354.296 62.3385 354.778 62.3385C355.238 62.3385 355.617 62.2854 355.915 62.1791C356.212 62.0658 356.456 61.9419 356.648 61.8073C356.846 61.6728 357.009 61.5524 357.136 61.4462C357.271 61.3328 357.402 61.2762 357.529 61.2762C357.685 61.2762 357.806 61.3364 357.891 61.4568L358.422 62.1473C358.188 62.4376 357.922 62.6855 357.625 62.8909C357.328 63.0963 357.005 63.2698 356.658 63.4114C356.318 63.546 355.961 63.6451 355.585 63.7088C355.21 63.7726 354.828 63.8045 354.438 63.8045C353.765 63.8045 353.139 63.6805 352.558 63.4326C351.984 63.1848 351.485 62.8271 351.06 62.3597C350.635 61.8852 350.302 61.3045 350.061 60.6176C349.821 59.9306 349.7 59.1481 349.7 58.2699C349.7 57.4696 349.81 56.7296 350.03 56.0497C350.256 55.3698 350.582 54.7856 351.007 54.2969C351.439 53.8012 351.967 53.4152 352.59 53.139C353.22 52.8628 353.942 52.7247 354.757 52.7247C355.515 52.7247 356.18 52.8486 356.754 53.0965C357.335 53.3373 357.848 53.6808 358.294 54.1269L357.795 54.8068ZM362.874 52.8947V63.6557H360.983V52.8947H362.874ZM363.277 49.5166C363.277 49.7007 363.238 49.8742 363.16 50.0371C363.09 50.1929 362.99 50.3346 362.863 50.462C362.743 50.5824 362.597 50.678 362.427 50.7488C362.265 50.8197 362.091 50.8551 361.907 50.8551C361.723 50.8551 361.549 50.8197 361.386 50.7488C361.231 50.678 361.092 50.5824 360.972 50.462C360.852 50.3346 360.756 50.1929 360.685 50.0371C360.614 49.8742 360.579 49.7007 360.579 49.5166C360.579 49.3325 360.614 49.1589 360.685 48.9961C360.756 48.8261 360.852 48.6809 360.972 48.5605C361.092 48.433 361.231 48.3339 361.386 48.2631C361.549 48.1923 361.723 48.1568 361.907 48.1568C362.091 48.1568 362.265 48.1923 362.427 48.2631C362.597 48.3339 362.743 48.433 362.863 48.5605C362.99 48.6809 363.09 48.8261 363.16 48.9961C363.238 49.1589 363.277 49.3325 363.277 49.5166ZM368.19 54.4563C368.424 54.1942 368.672 53.957 368.934 53.7445C369.196 53.5321 369.472 53.3515 369.762 53.2027C370.06 53.0469 370.371 52.9301 370.697 52.8522C371.03 52.7672 371.388 52.7247 371.77 52.7247C372.358 52.7247 372.875 52.8239 373.321 53.0222C373.774 53.2134 374.15 53.4896 374.447 53.8507C374.751 54.2048 374.982 54.6333 375.137 55.1361C375.293 55.6389 375.371 56.1949 375.371 56.8039V63.6557H373.47V56.8039C373.47 55.9895 373.282 55.3592 372.907 54.913C372.538 54.4598 371.975 54.2332 371.218 54.2332C370.658 54.2332 370.134 54.3677 369.645 54.6368C369.164 54.906 368.718 55.2707 368.307 55.731V63.6557H366.405V52.8947H367.542C367.811 52.8947 367.978 53.0257 368.041 53.2877L368.19 54.4563ZM384.509 58.8117C383.638 58.84 382.895 58.9108 382.279 59.0241C381.67 59.1304 381.17 59.272 380.781 59.449C380.398 59.6261 380.119 59.835 379.942 60.0758C379.772 60.3166 379.687 60.5857 379.687 60.8831C379.687 61.1664 379.733 61.4107 379.825 61.6161C379.917 61.8215 380.041 61.9915 380.196 62.126C380.359 62.2535 380.547 62.3491 380.759 62.4128C380.979 62.4695 381.213 62.4978 381.461 62.4978C381.793 62.4978 382.098 62.466 382.374 62.4022C382.65 62.3314 382.909 62.2323 383.15 62.1048C383.398 61.9773 383.631 61.825 383.851 61.648C384.077 61.4709 384.297 61.2691 384.509 61.0425V58.8117ZM378.401 54.4138C378.996 53.8401 379.637 53.4117 380.324 53.1284C381.011 52.8451 381.772 52.7035 382.608 52.7035C383.21 52.7035 383.745 52.8026 384.212 53.0009C384.679 53.1992 385.072 53.4754 385.391 53.8295C385.71 54.1836 385.951 54.6121 386.113 55.1149C386.276 55.6177 386.358 56.1701 386.358 56.7721V63.6557H385.519C385.334 63.6557 385.193 63.6274 385.094 63.5707C384.994 63.507 384.917 63.3866 384.86 63.2096L384.647 62.1898C384.364 62.4518 384.088 62.6855 383.819 62.8909C383.55 63.0892 383.266 63.2591 382.969 63.4008C382.672 63.5353 382.353 63.638 382.013 63.7088C381.68 63.7867 381.308 63.8257 380.898 63.8257C380.48 63.8257 380.087 63.769 379.718 63.6557C379.35 63.5353 379.028 63.3583 378.752 63.1246C378.483 62.8909 378.267 62.597 378.104 62.2429C377.948 61.8817 377.87 61.4568 377.87 60.9681C377.87 60.5432 377.987 60.136 378.221 59.7465C378.454 59.3499 378.833 58.9993 379.357 58.6948C379.881 58.3903 380.565 58.1424 381.407 57.9512C382.25 57.7529 383.284 57.6396 384.509 57.6113V56.7721C384.509 55.9364 384.329 55.3061 383.968 54.8812C383.606 54.4492 383.079 54.2332 382.385 54.2332C381.917 54.2332 381.524 54.2934 381.206 54.4138C380.894 54.5271 380.621 54.6581 380.388 54.8068C380.161 54.9485 379.963 55.0795 379.793 55.1999C379.63 55.3132 379.467 55.3698 379.304 55.3698C379.177 55.3698 379.067 55.338 378.975 55.2742C378.883 55.2034 378.805 55.1184 378.741 55.0193L378.401 54.4138Z" fill="#242E30"/>
<defs>
<filter id="filter0_d_20_59" x="0.721312" y="0.37705" width="1011.56" height="119.557" filterUnits="userSpaceOnUse" color-interpolation-filters="sRGB">
<feFlood flood-opacity="0" result="BackgroundImageFix"/>
<feColorMatrix in="SourceAlpha" type="matrix" values="0 0 0 0 0 0 0 0 0 0 0 0 0 0 0 0 0 0 127 0" result="hardAlpha"/>
<feMorphology radius="1.32787" operator="dilate" in="SourceAlpha" result="effect1_dropShadow_20_59"/>
<feOffset dy="2.65574"/>
<feGaussianBlur stdDeviation="5.97541"/>
<feComposite in2="hardAlpha" operator="out"/>
<feColorMatrix type="matrix" values="0 0 0 0 0 0 0 0 0 0 0 0 0 0 0 0 0 0 0.2 0"/>
<feBlend mode="normal" in2="BackgroundImageFix" result="effect1_dropShadow_20_59"/>
<feBlend mode="normal" in="SourceGraphic" in2="effect1_dropShadow_20_59" result="shape"/>
</filter>
</defs>
</svg>
