<svg width="40" height="14" viewBox="0 0 40 14" fill="none" xmlns="http://www.w3.org/2000/svg">
<path d="M7.475 7.178L6.243 3.811C6.18233 3.66167 6.11933 3.48433 6.054 3.279C5.98867 3.07367 5.92333 2.852 5.858 2.614C5.79733 2.852 5.73433 3.076 5.669 3.286C5.60367 3.49133 5.54067 3.671 5.48 3.825L4.255 7.178H7.475ZM10.8 11H9.344C9.18067 11 9.04767 10.9603 8.945 10.881C8.84233 10.797 8.76533 10.6943 8.714 10.573L7.958 8.508H3.765L3.009 10.573C2.97167 10.6803 2.89933 10.7783 2.792 10.867C2.68467 10.9557 2.55167 11 2.393 11H0.923L4.906 0.877999H6.824L10.8 11ZM17.4698 3.818L13.5568 12.974C13.5055 13.0953 13.4378 13.1863 13.3538 13.247C13.2745 13.3123 13.1508 13.345 12.9828 13.345H11.6948L13.0388 10.461L10.1338 3.818H11.6528C11.7881 3.818 11.8931 3.85067 11.9678 3.916C12.0471 3.98133 12.1055 4.056 12.1428 4.14L13.6688 7.864C13.7201 7.99 13.7621 8.116 13.7948 8.242C13.8321 8.368 13.8671 8.49633 13.8998 8.627C13.9418 8.49633 13.9838 8.368 14.0258 8.242C14.0678 8.11133 14.1145 7.983 14.1658 7.857L15.6078 4.14C15.6451 4.04667 15.7058 3.96967 15.7898 3.909C15.8785 3.84833 15.9765 3.818 16.0838 3.818H17.4698ZM24.5166 3.818V11H23.4596C23.2309 11 23.0863 10.895 23.0256 10.685L22.9066 10.111C22.6126 10.4097 22.2883 10.6523 21.9336 10.839C21.5789 11.021 21.1613 11.112 20.6806 11.112C20.2886 11.112 19.9409 11.0467 19.6376 10.916C19.3389 10.7807 19.0869 10.5917 18.8816 10.349C18.6763 10.1063 18.5199 9.81933 18.4126 9.488C18.3099 9.152 18.2586 8.78333 18.2586 8.382V3.818H19.9876V8.382C19.9876 8.82067 20.0879 9.16133 20.2886 9.404C20.4939 9.642 20.7996 9.761 21.2056 9.761C21.5043 9.761 21.7843 9.69567 22.0456 9.565C22.3069 9.42967 22.5543 9.24533 22.7876 9.012V3.818H24.5166ZM30.739 5.652C30.543 5.414 30.3283 5.246 30.095 5.148C29.8663 5.05 29.619 5.001 29.353 5.001C29.0916 5.001 28.856 5.05 28.646 5.148C28.436 5.246 28.2563 5.39533 28.107 5.596C27.9576 5.792 27.8433 6.044 27.764 6.352C27.6846 6.65533 27.645 7.01467 27.645 7.43C27.645 7.85 27.6776 8.207 27.743 8.501C27.813 8.79033 27.911 9.02833 28.037 9.215C28.163 9.397 28.317 9.53 28.499 9.614C28.681 9.69333 28.884 9.733 29.108 9.733C29.4673 9.733 29.773 9.65833 30.025 9.509C30.277 9.35967 30.515 9.14733 30.739 8.872V5.652ZM32.468 0.598V11H31.411C31.1823 11 31.0376 10.895 30.977 10.685L30.83 9.992C30.5406 10.3233 30.207 10.5917 29.829 10.797C29.4556 11.0023 29.0193 11.105 28.52 11.105C28.128 11.105 27.7686 11.0233 27.442 10.86C27.1153 10.6967 26.833 10.461 26.595 10.153C26.3616 9.84033 26.1796 9.45533 26.049 8.998C25.923 8.54067 25.86 8.018 25.86 7.43C25.86 6.898 25.9323 6.40333 26.077 5.946C26.2216 5.48867 26.4293 5.092 26.7 4.756C26.9706 4.42 27.295 4.15867 27.673 3.972C28.051 3.78067 28.4756 3.685 28.947 3.685C29.3483 3.685 29.6913 3.748 29.976 3.874C30.2606 4 30.515 4.17033 30.739 4.385V0.598H32.468ZM37.9683 7.934C37.469 7.95733 37.049 8.00167 36.7083 8.067C36.3676 8.12767 36.0946 8.207 35.8893 8.305C35.684 8.403 35.537 8.51733 35.4483 8.648C35.3596 8.77867 35.3153 8.921 35.3153 9.075C35.3153 9.37833 35.404 9.59533 35.5813 9.726C35.7633 9.85667 35.999 9.922 36.2883 9.922C36.643 9.922 36.9486 9.859 37.2053 9.733C37.4666 9.60233 37.721 9.40633 37.9683 9.145V7.934ZM34.0063 4.819C34.8323 4.063 35.8263 3.685 36.9883 3.685C37.4083 3.685 37.784 3.755 38.1153 3.895C38.4466 4.03033 38.7266 4.22167 38.9553 4.469C39.184 4.71167 39.3566 5.00333 39.4733 5.344C39.5946 5.68467 39.6553 6.058 39.6553 6.464V11H38.8713C38.708 11 38.582 10.9767 38.4933 10.93C38.4046 10.8787 38.3346 10.7783 38.2833 10.629L38.1293 10.111C37.9473 10.2743 37.77 10.419 37.5973 10.545C37.4246 10.6663 37.245 10.769 37.0583 10.853C36.8716 10.937 36.671 11 36.4563 11.042C36.2463 11.0887 36.013 11.112 35.7563 11.112C35.453 11.112 35.173 11.0723 34.9163 10.993C34.6596 10.909 34.438 10.7853 34.2513 10.622C34.0646 10.4587 33.92 10.2557 33.8173 10.013C33.7146 9.77033 33.6633 9.488 33.6633 9.166C33.6633 8.984 33.6936 8.80433 33.7543 8.627C33.815 8.445 33.913 8.27233 34.0483 8.109C34.1883 7.94567 34.368 7.79167 34.5873 7.647C34.8066 7.50233 35.075 7.37633 35.3923 7.269C35.7143 7.16167 36.0876 7.07533 36.5123 7.01C36.937 6.94 37.4223 6.898 37.9683 6.884V6.464C37.9683 5.98333 37.8656 5.62867 37.6603 5.4C37.455 5.16667 37.1586 5.05 36.7713 5.05C36.4913 5.05 36.258 5.08267 36.0713 5.148C35.8893 5.21333 35.7283 5.288 35.5883 5.372C35.4483 5.45133 35.32 5.52367 35.2033 5.589C35.0913 5.65433 34.9653 5.687 34.8253 5.687C34.704 5.687 34.6013 5.65667 34.5173 5.596C34.4333 5.53067 34.3656 5.456 34.3143 5.372L34.0063 4.819Z" fill="#242E30"/>
</svg>
