<svg width="148" height="164" viewBox="0 0 148 164" fill="none" xmlns="http://www.w3.org/2000/svg">
<path d="M74.9167 0.750166C74.0643 0.744036 73.2193 0.907791 72.4309 1.23187C71.6426 1.55594 70.9267 2.03385 70.325 2.63767L2.23338 70.721C1.3322 71.6213 0.71839 72.7688 0.469638 74.0181C0.220887 75.2674 0.348378 76.5624 0.835974 77.7393C1.32357 78.9161 2.14935 79.9218 3.20879 80.6291C4.26823 81.3364 5.51369 81.7135 6.78754 81.7127H19.1417C19.7108 81.7127 20.2566 81.9387 20.659 82.3412C21.0615 82.7436 21.2875 83.2894 21.2875 83.8585V156.817C21.2886 158.523 21.9674 160.16 23.1745 161.366C24.3817 162.572 26.0184 163.25 27.725 163.25H52.3209V134.513C49.7073 133.914 47.3596 132.481 45.6322 130.431C43.9048 128.38 42.8917 125.823 42.7459 123.146V92.5502C42.7459 91.9811 42.9719 91.4353 43.3744 91.0328C43.7768 90.6304 44.3226 90.4043 44.8917 90.4043H47.1417C47.4239 90.4038 47.7033 90.4589 47.9642 90.5665C48.225 90.6741 48.462 90.832 48.6617 91.0314C48.8614 91.2307 49.0199 91.4674 49.128 91.728C49.2361 91.9886 49.2917 92.268 49.2917 92.5502V106.033C49.2917 106.603 49.5178 107.148 49.9202 107.551C50.3226 107.953 50.8684 108.179 51.4375 108.179H53.6959C54.265 108.179 54.8108 107.953 55.2132 107.551C55.6156 107.148 55.8417 106.603 55.8417 106.033V86.0002C55.8417 85.431 56.0678 84.8853 56.4702 84.4828C56.8726 84.0804 57.4184 83.8543 57.9875 83.8543H59.3084C59.8775 83.8543 60.4233 84.0804 60.8257 84.4828C61.2281 84.8853 61.4542 85.431 61.4542 86.0002V106.029C61.4542 106.598 61.6803 107.144 62.0827 107.547C62.4851 107.949 63.0309 108.175 63.6 108.175H65.85C66.1322 108.176 66.4117 108.121 66.6725 108.013C66.9333 107.905 67.1704 107.747 67.3701 107.548C67.5698 107.349 67.7282 107.112 67.8363 106.851C67.9444 106.591 68 106.311 68 106.029V92.546C68 91.9769 68.2261 91.4311 68.6285 91.0287C69.031 90.6262 69.5768 90.4002 70.1459 90.4002H72.4042C72.9733 90.4002 73.5191 90.6262 73.9215 91.0287C74.324 91.4311 74.55 91.9769 74.55 92.546V123.142C74.404 125.82 73.3902 128.377 71.6621 130.428C69.9339 132.478 67.5852 133.911 64.9709 134.508V163.25H93.9375V138.954C89.0125 132.667 85.6584 126.025 85.6584 109.988C86.3546 102.002 89.9698 94.5541 95.8125 89.0668C96.5726 88.2576 97.567 87.7069 98.6561 87.4919C99.7452 87.2769 100.874 87.4086 101.885 87.8683C102.895 88.328 103.736 89.0927 104.29 90.055C104.843 91.0174 105.082 92.1289 104.971 93.2335V163.25H122.138C123.845 163.25 125.482 162.572 126.69 161.365C127.897 160.157 128.575 158.52 128.575 156.813V83.8585C128.575 83.2894 128.801 82.7436 129.204 82.3412C129.606 81.9387 130.152 81.7127 130.721 81.7127H141.208C142.474 81.712 143.712 81.3383 144.766 80.6382C145.82 79.938 146.645 78.9426 147.137 77.7763C147.629 76.61 147.766 75.3247 147.531 74.0809C147.296 72.8371 146.7 71.6902 145.817 70.7835L128.575 49.5252V25.9252C128.575 24.7869 128.123 23.6953 127.318 22.8905C126.513 22.0857 125.422 21.6335 124.283 21.6335H119.992C119.428 21.6335 118.87 21.7445 118.349 21.9602C117.829 22.1759 117.356 22.492 116.957 22.8905C116.559 23.289 116.242 23.7621 116.027 24.2828C115.811 24.8035 115.7 25.3616 115.7 25.9252V39.871L79.4834 2.70017C78.8891 2.0883 78.1787 1.60107 77.3939 1.26697C76.6091 0.93286 75.7655 0.758585 74.9125 0.754332L74.9167 0.750166Z" fill="#FF8000"/>
</svg>
