<svg width="36" height="12" viewBox="0 0 36 12" fill="none" xmlns="http://www.w3.org/2000/svg">
<path d="M3.417 5.967C3.76233 5.967 4.06333 5.925 4.32 5.841C4.57667 5.75233 4.789 5.62867 4.957 5.47C5.12967 5.30667 5.258 5.11067 5.342 4.882C5.426 4.64867 5.468 4.38967 5.468 4.105C5.468 3.83433 5.426 3.58933 5.342 3.37C5.258 3.15067 5.132 2.964 4.964 2.81C4.796 2.656 4.58367 2.53933 4.327 2.46C4.07033 2.376 3.767 2.334 3.417 2.334H2.01V5.967H3.417ZM3.417 0.877999C4.09367 0.877999 4.67933 0.957333 5.174 1.116C5.66867 1.27467 6.077 1.49633 6.399 1.781C6.721 2.06567 6.959 2.40633 7.113 2.803C7.27167 3.19967 7.351 3.63367 7.351 4.105C7.351 4.595 7.26933 5.04533 7.106 5.456C6.94267 5.862 6.69767 6.212 6.371 6.506C6.04433 6.8 5.63367 7.02867 5.139 7.192C4.649 7.35533 4.075 7.437 3.417 7.437H2.01V11H0.127V0.877999H3.417ZM12.8208 6.583C12.8208 6.359 12.7882 6.149 12.7228 5.953C12.6622 5.75233 12.5688 5.57733 12.4428 5.428C12.3168 5.27867 12.1558 5.162 11.9598 5.078C11.7685 4.98933 11.5445 4.945 11.2878 4.945C10.7885 4.945 10.3942 5.08733 10.1048 5.372C9.82018 5.65667 9.63818 6.06033 9.55884 6.583H12.8208ZM9.52384 7.626C9.55184 7.99467 9.61718 8.31433 9.71984 8.585C9.82251 8.851 9.95784 9.07267 10.1258 9.25C10.2938 9.42267 10.4922 9.55333 10.7208 9.642C10.9542 9.726 11.2108 9.768 11.4908 9.768C11.7708 9.768 12.0112 9.73533 12.2118 9.67C12.4172 9.60467 12.5945 9.53233 12.7438 9.453C12.8978 9.37367 13.0308 9.30133 13.1428 9.236C13.2595 9.17067 13.3715 9.138 13.4788 9.138C13.6235 9.138 13.7308 9.19167 13.8008 9.299L14.2978 9.929C14.1065 10.153 13.8918 10.342 13.6538 10.496C13.4158 10.6453 13.1662 10.7667 12.9048 10.86C12.6482 10.9487 12.3845 11.0117 12.1138 11.049C11.8478 11.0863 11.5888 11.105 11.3368 11.105C10.8375 11.105 10.3732 11.0233 9.94384 10.86C9.51451 10.692 9.14118 10.447 8.82384 10.125C8.50651 9.79833 8.25684 9.397 8.07484 8.921C7.89284 8.44033 7.80184 7.885 7.80184 7.255C7.80184 6.765 7.88118 6.30533 8.03984 5.876C8.19851 5.442 8.42484 5.06633 8.71884 4.749C9.01751 4.427 9.37918 4.17267 9.80384 3.986C10.2332 3.79933 10.7162 3.706 11.2528 3.706C11.7055 3.706 12.1232 3.77833 12.5058 3.923C12.8885 4.06767 13.2175 4.28 13.4928 4.56C13.7682 4.83533 13.9828 5.176 14.1368 5.582C14.2955 5.98333 14.3748 6.443 14.3748 6.961C14.3748 7.22233 14.3468 7.39967 14.2908 7.493C14.2348 7.58167 14.1275 7.626 13.9688 7.626H9.52384ZM20.1804 5.652C19.9844 5.414 19.7697 5.246 19.5364 5.148C19.3077 5.05 19.0604 5.001 18.7944 5.001C18.533 5.001 18.2974 5.05 18.0874 5.148C17.8774 5.246 17.6977 5.39533 17.5484 5.596C17.399 5.792 17.2847 6.044 17.2054 6.352C17.126 6.65533 17.0864 7.01467 17.0864 7.43C17.0864 7.85 17.119 8.207 17.1844 8.501C17.2544 8.79033 17.3524 9.02833 17.4784 9.215C17.6044 9.397 17.7584 9.53 17.9404 9.614C18.1224 9.69333 18.3254 9.733 18.5494 9.733C18.9087 9.733 19.2144 9.65833 19.4664 9.509C19.7184 9.35967 19.9564 9.14733 20.1804 8.872V5.652ZM21.9094 0.598V11H20.8524C20.6237 11 20.479 10.895 20.4184 10.685L20.2714 9.992C19.982 10.3233 19.6484 10.5917 19.2704 10.797C18.897 11.0023 18.4607 11.105 17.9614 11.105C17.5694 11.105 17.21 11.0233 16.8834 10.86C16.5567 10.6967 16.2744 10.461 16.0364 10.153C15.803 9.84033 15.621 9.45533 15.4904 8.998C15.3644 8.54067 15.3014 8.018 15.3014 7.43C15.3014 6.898 15.3737 6.40333 15.5184 5.946C15.663 5.48867 15.8707 5.092 16.1414 4.756C16.412 4.42 16.7364 4.15867 17.1144 3.972C17.4924 3.78067 17.917 3.685 18.3884 3.685C18.7897 3.685 19.1327 3.748 19.4174 3.874C19.702 4 19.9564 4.17033 20.1804 4.385V0.598H21.9094ZM25.2467 5.064C25.4707 4.63467 25.7367 4.29867 26.0447 4.056C26.3527 3.80867 26.7167 3.685 27.1367 3.685C27.4681 3.685 27.7341 3.75733 27.9347 3.902L27.8227 5.197C27.7994 5.281 27.7644 5.34167 27.7177 5.379C27.6757 5.41167 27.6174 5.428 27.5427 5.428C27.4727 5.428 27.3677 5.41633 27.2277 5.393C27.0924 5.36967 26.9594 5.358 26.8287 5.358C26.6374 5.358 26.4671 5.386 26.3177 5.442C26.1684 5.498 26.0331 5.57967 25.9117 5.687C25.7951 5.78967 25.6901 5.91567 25.5967 6.065C25.5081 6.21433 25.4241 6.38467 25.3447 6.576V11H23.6157V3.818H24.6307C24.8081 3.818 24.9317 3.85067 25.0017 3.916C25.0717 3.97667 25.1184 4.08867 25.1417 4.252L25.2467 5.064ZM31.8113 3.706C32.3433 3.706 32.8263 3.79233 33.2603 3.965C33.699 4.13767 34.0723 4.38267 34.3803 4.7C34.693 5.01733 34.9333 5.40467 35.1013 5.862C35.2693 6.31933 35.3533 6.83033 35.3533 7.395C35.3533 7.96433 35.2693 8.47767 35.1013 8.935C34.9333 9.39233 34.693 9.782 34.3803 10.104C34.0723 10.426 33.699 10.6733 33.2603 10.846C32.8263 11.0187 32.3433 11.105 31.8113 11.105C31.2746 11.105 30.787 11.0187 30.3483 10.846C29.9096 10.6733 29.534 10.426 29.2213 10.104C28.9133 9.782 28.673 9.39233 28.5003 8.935C28.3323 8.47767 28.2483 7.96433 28.2483 7.395C28.2483 6.83033 28.3323 6.31933 28.5003 5.862C28.673 5.40467 28.9133 5.01733 29.2213 4.7C29.534 4.38267 29.9096 4.13767 30.3483 3.965C30.787 3.79233 31.2746 3.706 31.8113 3.706ZM31.8113 9.775C32.4086 9.775 32.8496 9.57433 33.1343 9.173C33.4236 8.77167 33.5683 8.18367 33.5683 7.409C33.5683 6.63433 33.4236 6.044 33.1343 5.638C32.8496 5.232 32.4086 5.029 31.8113 5.029C31.2046 5.029 30.7543 5.23433 30.4603 5.645C30.171 6.051 30.0263 6.639 30.0263 7.409C30.0263 8.179 30.171 8.767 30.4603 9.173C30.7543 9.57433 31.2046 9.775 31.8113 9.775Z" fill="#242E30"/>
</svg>
