<svg width="390" height="81" viewBox="0 0 390 81" fill="none" xmlns="http://www.w3.org/2000/svg">
<g filter="url(#filter0_d_8_65)">
<rect x="10" y="8" width="370" height="61" rx="30.5" fill="white"/>
</g>
<path d="M49 45C53.4183 45 57 41.4183 57 37C57 32.5817 53.4183 29 49 29C44.5817 29 41 32.5817 41 37C41 41.4183 44.5817 45 49 45Z" stroke="#FF8000" stroke-width="2" stroke-linecap="round" stroke-linejoin="round"/>
<path d="M59 47L54.65 42.65" stroke="#FF8000" stroke-width="2" stroke-linecap="round" stroke-linejoin="round"/>
<path d="M85.488 42.768C85.9307 42.768 86.312 42.7173 86.632 42.616C86.952 42.5147 87.2133 42.3733 87.416 42.192C87.624 42.0053 87.776 41.7867 87.872 41.536C87.968 41.28 88.016 41 88.016 40.696C88.016 40.104 87.8053 39.6373 87.384 39.296C86.9627 38.9493 86.3307 38.776 85.488 38.776H83.008V42.768H85.488ZM83.008 33.76V37.672H85.056C85.4933 37.672 85.872 37.624 86.192 37.528C86.5173 37.432 86.784 37.2987 86.992 37.128C87.2053 36.9573 87.3627 36.752 87.464 36.512C87.5653 36.2667 87.616 36 87.616 35.712C87.616 35.0347 87.4133 34.5413 87.008 34.232C86.6027 33.9173 85.9733 33.76 85.12 33.76H83.008ZM85.12 32.536C85.824 32.536 86.4293 32.6053 86.936 32.744C87.448 32.8827 87.8667 33.08 88.192 33.336C88.5227 33.592 88.7653 33.9067 88.92 34.28C89.0747 34.648 89.152 35.064 89.152 35.528C89.152 35.8107 89.1067 36.0827 89.016 36.344C88.9307 36.6 88.8 36.84 88.624 37.064C88.448 37.288 88.224 37.4907 87.952 37.672C87.6853 37.848 87.3707 37.992 87.008 38.104C87.8507 38.264 88.4827 38.5653 88.904 39.008C89.3307 39.4453 89.544 40.0213 89.544 40.736C89.544 41.2213 89.4533 41.664 89.272 42.064C89.096 42.464 88.8347 42.808 88.488 43.096C88.1467 43.384 87.7253 43.608 87.224 43.768C86.7227 43.9227 86.152 44 85.512 44H81.464V32.536H85.12ZM98.2839 35.896V44H97.4359C97.2332 44 97.1052 43.9013 97.0519 43.704L96.9399 42.832C96.5879 43.2213 96.1932 43.536 95.7559 43.776C95.3185 44.0107 94.8172 44.128 94.2519 44.128C93.8092 44.128 93.4172 44.056 93.0759 43.912C92.7399 43.7627 92.4572 43.5547 92.2279 43.288C91.9985 43.0213 91.8252 42.6987 91.7079 42.32C91.5959 41.9413 91.5399 41.5227 91.5399 41.064V35.896H92.9639V41.064C92.9639 41.6773 93.1025 42.152 93.3799 42.488C93.6625 42.824 94.0919 42.992 94.6679 42.992C95.0892 42.992 95.4812 42.8933 95.8439 42.696C96.2119 42.4933 96.5505 42.216 96.8599 41.864V35.896H98.2839ZM105.582 37.232C105.518 37.3493 105.419 37.408 105.286 37.408C105.206 37.408 105.115 37.3787 105.014 37.32C104.912 37.2613 104.787 37.1973 104.638 37.128C104.494 37.0533 104.32 36.9867 104.118 36.928C103.915 36.864 103.675 36.832 103.398 36.832C103.158 36.832 102.942 36.864 102.75 36.928C102.558 36.9867 102.392 37.0693 102.254 37.176C102.12 37.2827 102.016 37.408 101.942 37.552C101.872 37.6907 101.838 37.8427 101.838 38.008C101.838 38.216 101.896 38.3893 102.014 38.528C102.136 38.6667 102.296 38.7867 102.494 38.888C102.691 38.9893 102.915 39.08 103.166 39.16C103.416 39.2347 103.672 39.3173 103.934 39.408C104.2 39.4933 104.459 39.5893 104.71 39.696C104.96 39.8027 105.184 39.936 105.382 40.096C105.579 40.256 105.736 40.4533 105.854 40.688C105.976 40.9173 106.038 41.1947 106.038 41.52C106.038 41.8933 105.971 42.24 105.838 42.56C105.704 42.8747 105.507 43.1493 105.246 43.384C104.984 43.6133 104.664 43.7947 104.286 43.928C103.907 44.0613 103.47 44.128 102.974 44.128C102.408 44.128 101.896 44.0373 101.438 43.856C100.979 43.6693 100.59 43.432 100.27 43.144L100.606 42.6C100.648 42.5307 100.699 42.4773 100.758 42.44C100.816 42.4027 100.891 42.384 100.982 42.384C101.078 42.384 101.179 42.4213 101.286 42.496C101.392 42.5707 101.52 42.6533 101.67 42.744C101.824 42.8347 102.011 42.9173 102.23 42.992C102.448 43.0667 102.72 43.104 103.046 43.104C103.323 43.104 103.566 43.0693 103.774 43C103.982 42.9253 104.155 42.8267 104.294 42.704C104.432 42.5813 104.534 42.44 104.598 42.28C104.667 42.12 104.702 41.9493 104.702 41.768C104.702 41.544 104.64 41.36 104.518 41.216C104.4 41.0667 104.243 40.9413 104.046 40.84C103.848 40.7333 103.622 40.6427 103.366 40.568C103.115 40.488 102.856 40.4053 102.59 40.32C102.328 40.2347 102.07 40.1387 101.814 40.032C101.563 39.92 101.339 39.7813 101.142 39.616C100.944 39.4507 100.784 39.248 100.662 39.008C100.544 38.7627 100.486 38.4667 100.486 38.12C100.486 37.8107 100.55 37.5147 100.678 37.232C100.806 36.944 100.992 36.6933 101.238 36.48C101.483 36.2613 101.784 36.088 102.142 35.96C102.499 35.832 102.907 35.768 103.366 35.768C103.899 35.768 104.376 35.8533 104.798 36.024C105.224 36.1893 105.592 36.4187 105.902 36.712L105.582 37.232ZM113.744 37.336C113.701 37.3947 113.658 37.44 113.616 37.472C113.573 37.504 113.514 37.52 113.44 37.52C113.36 37.52 113.272 37.488 113.176 37.424C113.08 37.3547 112.96 37.28 112.816 37.2C112.677 37.12 112.504 37.048 112.296 36.984C112.093 36.9147 111.842 36.88 111.544 36.88C111.144 36.88 110.792 36.952 110.488 37.096C110.184 37.2347 109.928 37.4373 109.72 37.704C109.517 37.9707 109.362 38.2933 109.256 38.672C109.154 39.0507 109.104 39.4747 109.104 39.944C109.104 40.4347 109.16 40.872 109.272 41.256C109.384 41.6347 109.541 41.9547 109.744 42.216C109.952 42.472 110.2 42.6693 110.488 42.808C110.781 42.9413 111.109 43.008 111.472 43.008C111.818 43.008 112.104 42.968 112.328 42.888C112.552 42.8027 112.736 42.7093 112.88 42.608C113.029 42.5067 113.152 42.416 113.248 42.336C113.349 42.2507 113.448 42.208 113.544 42.208C113.661 42.208 113.752 42.2533 113.816 42.344L114.216 42.864C114.04 43.0827 113.84 43.2693 113.616 43.424C113.392 43.5787 113.149 43.7093 112.888 43.816C112.632 43.9173 112.362 43.992 112.08 44.04C111.797 44.088 111.509 44.112 111.216 44.112C110.709 44.112 110.237 44.0187 109.8 43.832C109.368 43.6453 108.992 43.376 108.672 43.024C108.352 42.6667 108.101 42.2293 107.92 41.712C107.738 41.1947 107.648 40.6053 107.648 39.944C107.648 39.3413 107.73 38.784 107.896 38.272C108.066 37.76 108.312 37.32 108.632 36.952C108.957 36.5787 109.354 36.288 109.824 36.08C110.298 35.872 110.842 35.768 111.456 35.768C112.026 35.768 112.528 35.8613 112.96 36.048C113.397 36.2293 113.784 36.488 114.12 36.824L113.744 37.336ZM120.456 40.352C119.8 40.3733 119.24 40.4267 118.776 40.512C118.318 40.592 117.942 40.6987 117.648 40.832C117.36 40.9653 117.15 41.1227 117.016 41.304C116.888 41.4853 116.824 41.688 116.824 41.912C116.824 42.1253 116.859 42.3093 116.928 42.464C116.998 42.6187 117.091 42.7467 117.208 42.848C117.331 42.944 117.472 43.016 117.632 43.064C117.798 43.1067 117.974 43.128 118.16 43.128C118.411 43.128 118.64 43.104 118.848 43.056C119.056 43.0027 119.251 42.928 119.432 42.832C119.619 42.736 119.795 42.6213 119.96 42.488C120.131 42.3547 120.296 42.2027 120.456 42.032V40.352ZM115.856 37.04C116.304 36.608 116.787 36.2853 117.304 36.072C117.822 35.8587 118.395 35.752 119.024 35.752C119.478 35.752 119.88 35.8267 120.232 35.976C120.584 36.1253 120.88 36.3333 121.12 36.6C121.36 36.8667 121.542 37.1893 121.664 37.568C121.787 37.9467 121.848 38.3627 121.848 38.816V44H121.216C121.078 44 120.971 43.9787 120.896 43.936C120.822 43.888 120.763 43.7973 120.72 43.664L120.56 42.896C120.347 43.0933 120.139 43.2693 119.936 43.424C119.734 43.5733 119.52 43.7013 119.296 43.808C119.072 43.9093 118.832 43.9867 118.576 44.04C118.326 44.0987 118.046 44.128 117.736 44.128C117.422 44.128 117.126 44.0853 116.848 44C116.571 43.9093 116.328 43.776 116.12 43.6C115.918 43.424 115.755 43.2027 115.632 42.936C115.515 42.664 115.456 42.344 115.456 41.976C115.456 41.656 115.544 41.3493 115.72 41.056C115.896 40.7573 116.182 40.4933 116.576 40.264C116.971 40.0347 117.486 39.848 118.12 39.704C118.755 39.5547 119.534 39.4693 120.456 39.448V38.816C120.456 38.1867 120.32 37.712 120.048 37.392C119.776 37.0667 119.379 36.904 118.856 36.904C118.504 36.904 118.208 36.9493 117.968 37.04C117.734 37.1253 117.528 37.224 117.352 37.336C117.182 37.4427 117.032 37.5413 116.904 37.632C116.782 37.7173 116.659 37.76 116.536 37.76C116.44 37.76 116.358 37.736 116.288 37.688C116.219 37.6347 116.16 37.5707 116.112 37.496L115.856 37.04ZM125.689 37.52C125.945 36.9653 126.26 36.5333 126.633 36.224C127.007 35.9093 127.463 35.752 128.001 35.752C128.172 35.752 128.335 35.7707 128.489 35.808C128.649 35.8453 128.791 35.904 128.913 35.984L128.809 37.048C128.777 37.1813 128.697 37.248 128.569 37.248C128.495 37.248 128.385 37.232 128.241 37.2C128.097 37.168 127.935 37.152 127.753 37.152C127.497 37.152 127.268 37.1893 127.065 37.264C126.868 37.3387 126.689 37.4507 126.529 37.6C126.375 37.744 126.233 37.9253 126.105 38.144C125.983 38.3573 125.871 38.6027 125.769 38.88V44H124.337V35.896H125.153C125.308 35.896 125.415 35.9253 125.473 35.984C125.532 36.0427 125.572 36.144 125.593 36.288L125.689 37.52ZM135.908 37.52C136.164 36.9653 136.478 36.5333 136.852 36.224C137.225 35.9093 137.681 35.752 138.22 35.752C138.39 35.752 138.553 35.7707 138.708 35.808C138.868 35.8453 139.009 35.904 139.132 35.984L139.028 37.048C138.996 37.1813 138.916 37.248 138.788 37.248C138.713 37.248 138.604 37.232 138.46 37.2C138.316 37.168 138.153 37.152 137.972 37.152C137.716 37.152 137.486 37.1893 137.284 37.264C137.086 37.3387 136.908 37.4507 136.748 37.6C136.593 37.744 136.452 37.9253 136.324 38.144C136.201 38.3573 136.089 38.6027 135.988 38.88V44H134.556V35.896H135.372C135.526 35.896 135.633 35.9253 135.692 35.984C135.75 36.0427 135.79 36.144 135.812 36.288L135.908 37.52ZM145.8 39.064C145.8 38.7333 145.752 38.432 145.656 38.16C145.565 37.8827 145.429 37.6453 145.248 37.448C145.072 37.2453 144.856 37.0907 144.6 36.984C144.344 36.872 144.053 36.816 143.728 36.816C143.045 36.816 142.504 37.016 142.104 37.416C141.709 37.8107 141.464 38.36 141.368 39.064H145.8ZM146.952 42.864C146.776 43.0773 146.565 43.264 146.32 43.424C146.074 43.5787 145.81 43.7067 145.528 43.808C145.25 43.9093 144.962 43.984 144.664 44.032C144.365 44.0853 144.069 44.112 143.776 44.112C143.216 44.112 142.698 44.0187 142.224 43.832C141.754 43.64 141.346 43.3627 141 43C140.658 42.632 140.392 42.1787 140.2 41.64C140.008 41.1013 139.912 40.4827 139.912 39.784C139.912 39.2187 139.997 38.6907 140.168 38.2C140.344 37.7093 140.594 37.2853 140.92 36.928C141.245 36.5653 141.642 36.2827 142.112 36.08C142.581 35.872 143.109 35.768 143.696 35.768C144.181 35.768 144.629 35.8507 145.04 36.016C145.456 36.176 145.813 36.4107 146.112 36.72C146.416 37.024 146.653 37.4027 146.824 37.856C146.994 38.304 147.08 38.816 147.08 39.392C147.08 39.616 147.056 39.7653 147.008 39.84C146.96 39.9147 146.869 39.952 146.736 39.952H141.32C141.336 40.464 141.405 40.9093 141.528 41.288C141.656 41.6667 141.832 41.984 142.056 42.24C142.28 42.4907 142.546 42.68 142.856 42.808C143.165 42.9307 143.512 42.992 143.896 42.992C144.253 42.992 144.56 42.952 144.816 42.872C145.077 42.7867 145.301 42.696 145.488 42.6C145.674 42.504 145.829 42.416 145.952 42.336C146.08 42.2507 146.189 42.208 146.28 42.208C146.397 42.208 146.488 42.2533 146.552 42.344L146.952 42.864ZM153.869 37.232C153.805 37.3493 153.706 37.408 153.573 37.408C153.493 37.408 153.402 37.3787 153.301 37.32C153.199 37.2613 153.074 37.1973 152.925 37.128C152.781 37.0533 152.607 36.9867 152.405 36.928C152.202 36.864 151.962 36.832 151.685 36.832C151.445 36.832 151.229 36.864 151.037 36.928C150.845 36.9867 150.679 37.0693 150.541 37.176C150.407 37.2827 150.303 37.408 150.229 37.552C150.159 37.6907 150.125 37.8427 150.125 38.008C150.125 38.216 150.183 38.3893 150.301 38.528C150.423 38.6667 150.583 38.7867 150.781 38.888C150.978 38.9893 151.202 39.08 151.453 39.16C151.703 39.2347 151.959 39.3173 152.221 39.408C152.487 39.4933 152.746 39.5893 152.997 39.696C153.247 39.8027 153.471 39.936 153.669 40.096C153.866 40.256 154.023 40.4533 154.141 40.688C154.263 40.9173 154.325 41.1947 154.325 41.52C154.325 41.8933 154.258 42.24 154.125 42.56C153.991 42.8747 153.794 43.1493 153.533 43.384C153.271 43.6133 152.951 43.7947 152.573 43.928C152.194 44.0613 151.757 44.128 151.261 44.128C150.695 44.128 150.183 44.0373 149.725 43.856C149.266 43.6693 148.877 43.432 148.557 43.144L148.893 42.6C148.935 42.5307 148.986 42.4773 149.045 42.44C149.103 42.4027 149.178 42.384 149.269 42.384C149.365 42.384 149.466 42.4213 149.573 42.496C149.679 42.5707 149.807 42.6533 149.957 42.744C150.111 42.8347 150.298 42.9173 150.517 42.992C150.735 43.0667 151.007 43.104 151.333 43.104C151.61 43.104 151.853 43.0693 152.061 43C152.269 42.9253 152.442 42.8267 152.581 42.704C152.719 42.5813 152.821 42.44 152.885 42.28C152.954 42.12 152.989 41.9493 152.989 41.768C152.989 41.544 152.927 41.36 152.805 41.216C152.687 41.0667 152.53 40.9413 152.333 40.84C152.135 40.7333 151.909 40.6427 151.653 40.568C151.402 40.488 151.143 40.4053 150.877 40.32C150.615 40.2347 150.357 40.1387 150.101 40.032C149.85 39.92 149.626 39.7813 149.429 39.616C149.231 39.4507 149.071 39.248 148.949 39.008C148.831 38.7627 148.773 38.4667 148.773 38.12C148.773 37.8107 148.837 37.5147 148.965 37.232C149.093 36.944 149.279 36.6933 149.525 36.48C149.77 36.2613 150.071 36.088 150.429 35.96C150.786 35.832 151.194 35.768 151.653 35.768C152.186 35.768 152.663 35.8533 153.085 36.024C153.511 36.1893 153.879 36.4187 154.189 36.712L153.869 37.232ZM158.878 44.128C158.238 44.128 157.745 43.9493 157.398 43.592C157.057 43.2347 156.886 42.72 156.886 42.048V37.088H155.91C155.825 37.088 155.753 37.064 155.694 37.016C155.636 36.9627 155.606 36.8827 155.606 36.776V36.208L156.934 36.04L157.262 33.536C157.278 33.456 157.313 33.392 157.366 33.344C157.425 33.2907 157.5 33.264 157.59 33.264H158.31V36.056H160.654V37.088H158.31V41.952C158.31 42.2933 158.393 42.5467 158.558 42.712C158.724 42.8773 158.937 42.96 159.198 42.96C159.348 42.96 159.476 42.9413 159.582 42.904C159.694 42.8613 159.79 42.816 159.87 42.768C159.95 42.72 160.017 42.6773 160.07 42.64C160.129 42.5973 160.18 42.576 160.222 42.576C160.297 42.576 160.364 42.6213 160.422 42.712L160.838 43.392C160.593 43.6213 160.297 43.8027 159.95 43.936C159.604 44.064 159.246 44.128 158.878 44.128ZM166.837 40.352C166.181 40.3733 165.621 40.4267 165.157 40.512C164.698 40.592 164.322 40.6987 164.029 40.832C163.741 40.9653 163.53 41.1227 163.397 41.304C163.269 41.4853 163.205 41.688 163.205 41.912C163.205 42.1253 163.24 42.3093 163.309 42.464C163.378 42.6187 163.472 42.7467 163.589 42.848C163.712 42.944 163.853 43.016 164.013 43.064C164.178 43.1067 164.354 43.128 164.541 43.128C164.792 43.128 165.021 43.104 165.229 43.056C165.437 43.0027 165.632 42.928 165.813 42.832C166 42.736 166.176 42.6213 166.341 42.488C166.512 42.3547 166.677 42.2027 166.837 42.032V40.352ZM162.237 37.04C162.685 36.608 163.168 36.2853 163.685 36.072C164.202 35.8587 164.776 35.752 165.405 35.752C165.858 35.752 166.261 35.8267 166.613 35.976C166.965 36.1253 167.261 36.3333 167.501 36.6C167.741 36.8667 167.922 37.1893 168.045 37.568C168.168 37.9467 168.229 38.3627 168.229 38.816V44H167.597C167.458 44 167.352 43.9787 167.277 43.936C167.202 43.888 167.144 43.7973 167.101 43.664L166.941 42.896C166.728 43.0933 166.52 43.2693 166.317 43.424C166.114 43.5733 165.901 43.7013 165.677 43.808C165.453 43.9093 165.213 43.9867 164.957 44.04C164.706 44.0987 164.426 44.128 164.117 44.128C163.802 44.128 163.506 44.0853 163.229 44C162.952 43.9093 162.709 43.776 162.501 43.6C162.298 43.424 162.136 43.2027 162.013 42.936C161.896 42.664 161.837 42.344 161.837 41.976C161.837 41.656 161.925 41.3493 162.101 41.056C162.277 40.7573 162.562 40.4933 162.957 40.264C163.352 40.0347 163.866 39.848 164.501 39.704C165.136 39.5547 165.914 39.4693 166.837 39.448V38.816C166.837 38.1867 166.701 37.712 166.429 37.392C166.157 37.0667 165.76 36.904 165.237 36.904C164.885 36.904 164.589 36.9493 164.349 37.04C164.114 37.1253 163.909 37.224 163.733 37.336C163.562 37.4427 163.413 37.5413 163.285 37.632C163.162 37.7173 163.04 37.76 162.917 37.76C162.821 37.76 162.738 37.736 162.669 37.688C162.6 37.6347 162.541 37.5707 162.493 37.496L162.237 37.04ZM177.382 35.896V44H176.534C176.331 44 176.203 43.9013 176.15 43.704L176.038 42.832C175.686 43.2213 175.291 43.536 174.854 43.776C174.417 44.0107 173.915 44.128 173.35 44.128C172.907 44.128 172.515 44.056 172.174 43.912C171.838 43.7627 171.555 43.5547 171.326 43.288C171.097 43.0213 170.923 42.6987 170.806 42.32C170.694 41.9413 170.638 41.5227 170.638 41.064V35.896H172.062V41.064C172.062 41.6773 172.201 42.152 172.478 42.488C172.761 42.824 173.19 42.992 173.766 42.992C174.187 42.992 174.579 42.8933 174.942 42.696C175.31 42.4933 175.649 42.216 175.958 41.864V35.896H177.382ZM181.312 37.52C181.568 36.9653 181.883 36.5333 182.256 36.224C182.629 35.9093 183.085 35.752 183.624 35.752C183.795 35.752 183.957 35.7707 184.112 35.808C184.272 35.8453 184.413 35.904 184.536 35.984L184.432 37.048C184.4 37.1813 184.32 37.248 184.192 37.248C184.117 37.248 184.008 37.232 183.864 37.2C183.72 37.168 183.557 37.152 183.376 37.152C183.12 37.152 182.891 37.1893 182.688 37.264C182.491 37.3387 182.312 37.4507 182.152 37.6C181.997 37.744 181.856 37.9253 181.728 38.144C181.605 38.3573 181.493 38.6027 181.392 38.88V44H179.96V35.896H180.776C180.931 35.896 181.037 35.9253 181.096 35.984C181.155 36.0427 181.195 36.144 181.216 36.288L181.312 37.52ZM190.375 40.352C189.719 40.3733 189.159 40.4267 188.695 40.512C188.236 40.592 187.86 40.6987 187.567 40.832C187.279 40.9653 187.068 41.1227 186.935 41.304C186.807 41.4853 186.743 41.688 186.743 41.912C186.743 42.1253 186.778 42.3093 186.847 42.464C186.916 42.6187 187.01 42.7467 187.127 42.848C187.25 42.944 187.391 43.016 187.551 43.064C187.716 43.1067 187.892 43.128 188.079 43.128C188.33 43.128 188.559 43.104 188.767 43.056C188.975 43.0027 189.17 42.928 189.351 42.832C189.538 42.736 189.714 42.6213 189.879 42.488C190.05 42.3547 190.215 42.2027 190.375 42.032V40.352ZM185.775 37.04C186.223 36.608 186.706 36.2853 187.223 36.072C187.74 35.8587 188.314 35.752 188.943 35.752C189.396 35.752 189.799 35.8267 190.151 35.976C190.503 36.1253 190.799 36.3333 191.039 36.6C191.279 36.8667 191.46 37.1893 191.583 37.568C191.706 37.9467 191.767 38.3627 191.767 38.816V44H191.135C190.996 44 190.89 43.9787 190.815 43.936C190.74 43.888 190.682 43.7973 190.639 43.664L190.479 42.896C190.266 43.0933 190.058 43.2693 189.855 43.424C189.652 43.5733 189.439 43.7013 189.215 43.808C188.991 43.9093 188.751 43.9867 188.495 44.04C188.244 44.0987 187.964 44.128 187.655 44.128C187.34 44.128 187.044 44.0853 186.767 44C186.49 43.9093 186.247 43.776 186.039 43.6C185.836 43.424 185.674 43.2027 185.551 42.936C185.434 42.664 185.375 42.344 185.375 41.976C185.375 41.656 185.463 41.3493 185.639 41.056C185.815 40.7573 186.1 40.4933 186.495 40.264C186.89 40.0347 187.404 39.848 188.039 39.704C188.674 39.5547 189.452 39.4693 190.375 39.448V38.816C190.375 38.1867 190.239 37.712 189.967 37.392C189.695 37.0667 189.298 36.904 188.775 36.904C188.423 36.904 188.127 36.9493 187.887 37.04C187.652 37.1253 187.447 37.224 187.271 37.336C187.1 37.4427 186.951 37.5413 186.823 37.632C186.7 37.7173 186.578 37.76 186.455 37.76C186.359 37.76 186.276 37.736 186.207 37.688C186.138 37.6347 186.079 37.5707 186.031 37.496L185.775 37.04ZM195.6 37.072C195.776 36.8747 195.963 36.696 196.16 36.536C196.357 36.376 196.565 36.24 196.784 36.128C197.008 36.0107 197.243 35.9227 197.488 35.864C197.739 35.8 198.008 35.768 198.296 35.768C198.739 35.768 199.128 35.8427 199.464 35.992C199.805 36.136 200.088 36.344 200.312 36.616C200.541 36.8827 200.715 37.2053 200.832 37.584C200.949 37.9627 201.008 38.3813 201.008 38.84V44H199.576V38.84C199.576 38.2267 199.435 37.752 199.152 37.416C198.875 37.0747 198.451 36.904 197.88 36.904C197.459 36.904 197.064 37.0053 196.696 37.208C196.333 37.4107 195.997 37.6853 195.688 38.032V44H194.256V35.896H195.112C195.315 35.896 195.44 35.9947 195.488 36.192L195.6 37.072ZM205.877 44.128C205.237 44.128 204.743 43.9493 204.397 43.592C204.055 43.2347 203.885 42.72 203.885 42.048V37.088H202.909C202.823 37.088 202.751 37.064 202.693 37.016C202.634 36.9627 202.605 36.8827 202.605 36.776V36.208L203.933 36.04L204.261 33.536C204.277 33.456 204.311 33.392 204.365 33.344C204.423 33.2907 204.498 33.264 204.589 33.264H205.309V36.056H207.653V37.088H205.309V41.952C205.309 42.2933 205.391 42.5467 205.557 42.712C205.722 42.8773 205.935 42.96 206.197 42.96C206.346 42.96 206.474 42.9413 206.581 42.904C206.693 42.8613 206.789 42.816 206.869 42.768C206.949 42.72 207.015 42.6773 207.069 42.64C207.127 42.5973 207.178 42.576 207.221 42.576C207.295 42.576 207.362 42.6213 207.421 42.712L207.837 43.392C207.591 43.6213 207.295 43.8027 206.949 43.936C206.602 44.064 206.245 44.128 205.877 44.128ZM214.82 39.064C214.82 38.7333 214.772 38.432 214.676 38.16C214.585 37.8827 214.449 37.6453 214.268 37.448C214.092 37.2453 213.876 37.0907 213.62 36.984C213.364 36.872 213.073 36.816 212.748 36.816C212.065 36.816 211.524 37.016 211.124 37.416C210.729 37.8107 210.484 38.36 210.388 39.064H214.82ZM215.972 42.864C215.796 43.0773 215.585 43.264 215.34 43.424C215.095 43.5787 214.831 43.7067 214.548 43.808C214.271 43.9093 213.983 43.984 213.684 44.032C213.385 44.0853 213.089 44.112 212.796 44.112C212.236 44.112 211.719 44.0187 211.244 43.832C210.775 43.64 210.367 43.3627 210.02 43C209.679 42.632 209.412 42.1787 209.22 41.64C209.028 41.1013 208.932 40.4827 208.932 39.784C208.932 39.2187 209.017 38.6907 209.188 38.2C209.364 37.7093 209.615 37.2853 209.94 36.928C210.265 36.5653 210.663 36.2827 211.132 36.08C211.601 35.872 212.129 35.768 212.716 35.768C213.201 35.768 213.649 35.8507 214.06 36.016C214.476 36.176 214.833 36.4107 215.132 36.72C215.436 37.024 215.673 37.4027 215.844 37.856C216.015 38.304 216.1 38.816 216.1 39.392C216.1 39.616 216.076 39.7653 216.028 39.84C215.98 39.9147 215.889 39.952 215.756 39.952H210.34C210.356 40.464 210.425 40.9093 210.548 41.288C210.676 41.6667 210.852 41.984 211.076 42.24C211.3 42.4907 211.567 42.68 211.876 42.808C212.185 42.9307 212.532 42.992 212.916 42.992C213.273 42.992 213.58 42.952 213.836 42.872C214.097 42.7867 214.321 42.696 214.508 42.6C214.695 42.504 214.849 42.416 214.972 42.336C215.1 42.2507 215.209 42.208 215.3 42.208C215.417 42.208 215.508 42.2533 215.572 42.344L215.972 42.864ZM225.999 35.768C226.591 35.768 227.124 35.8667 227.599 36.064C228.074 36.2613 228.479 36.5413 228.815 36.904C229.151 37.2667 229.407 37.7067 229.583 38.224C229.764 38.736 229.855 39.3093 229.855 39.944C229.855 40.584 229.764 41.16 229.583 41.672C229.407 42.184 229.151 42.6213 228.815 42.984C228.479 43.3467 228.074 43.6267 227.599 43.824C227.124 44.016 226.591 44.112 225.999 44.112C225.402 44.112 224.863 44.016 224.383 43.824C223.908 43.6267 223.503 43.3467 223.167 42.984C222.831 42.6213 222.572 42.184 222.391 41.672C222.215 41.16 222.127 40.584 222.127 39.944C222.127 39.3093 222.215 38.736 222.391 38.224C222.572 37.7067 222.831 37.2667 223.167 36.904C223.503 36.5413 223.908 36.2613 224.383 36.064C224.863 35.8667 225.402 35.768 225.999 35.768ZM225.999 43C226.799 43 227.396 42.7333 227.791 42.2C228.186 41.6613 228.383 40.912 228.383 39.952C228.383 38.9867 228.186 38.2347 227.791 37.696C227.396 37.1573 226.799 36.888 225.999 36.888C225.594 36.888 225.239 36.9573 224.935 37.096C224.636 37.2347 224.386 37.4347 224.183 37.696C223.986 37.9573 223.836 38.28 223.735 38.664C223.639 39.0427 223.591 39.472 223.591 39.952C223.591 40.912 223.788 41.6613 224.183 42.2C224.583 42.7333 225.188 43 225.999 43ZM242.035 37.336C241.992 37.3947 241.95 37.44 241.907 37.472C241.864 37.504 241.806 37.52 241.731 37.52C241.651 37.52 241.563 37.488 241.467 37.424C241.371 37.3547 241.251 37.28 241.107 37.2C240.968 37.12 240.795 37.048 240.587 36.984C240.384 36.9147 240.134 36.88 239.835 36.88C239.435 36.88 239.083 36.952 238.779 37.096C238.475 37.2347 238.219 37.4373 238.011 37.704C237.808 37.9707 237.654 38.2933 237.547 38.672C237.446 39.0507 237.395 39.4747 237.395 39.944C237.395 40.4347 237.451 40.872 237.563 41.256C237.675 41.6347 237.832 41.9547 238.035 42.216C238.243 42.472 238.491 42.6693 238.779 42.808C239.072 42.9413 239.4 43.008 239.763 43.008C240.11 43.008 240.395 42.968 240.619 42.888C240.843 42.8027 241.027 42.7093 241.171 42.608C241.32 42.5067 241.443 42.416 241.539 42.336C241.64 42.2507 241.739 42.208 241.835 42.208C241.952 42.208 242.043 42.2533 242.107 42.344L242.507 42.864C242.331 43.0827 242.131 43.2693 241.907 43.424C241.683 43.5787 241.44 43.7093 241.179 43.816C240.923 43.9173 240.654 43.992 240.371 44.04C240.088 44.088 239.8 44.112 239.507 44.112C239 44.112 238.528 44.0187 238.091 43.832C237.659 43.6453 237.283 43.376 236.963 43.024C236.643 42.6667 236.392 42.2293 236.211 41.712C236.03 41.1947 235.939 40.6053 235.939 39.944C235.939 39.3413 236.022 38.784 236.187 38.272C236.358 37.76 236.603 37.32 236.923 36.952C237.248 36.5787 237.646 36.288 238.115 36.08C238.59 35.872 239.134 35.768 239.747 35.768C240.318 35.768 240.819 35.8613 241.251 36.048C241.688 36.2293 242.075 36.488 242.411 36.824L242.035 37.336ZM247.631 35.768C248.223 35.768 248.756 35.8667 249.231 36.064C249.706 36.2613 250.111 36.5413 250.447 36.904C250.783 37.2667 251.039 37.7067 251.215 38.224C251.396 38.736 251.487 39.3093 251.487 39.944C251.487 40.584 251.396 41.16 251.215 41.672C251.039 42.184 250.783 42.6213 250.447 42.984C250.111 43.3467 249.706 43.6267 249.231 43.824C248.756 44.016 248.223 44.112 247.631 44.112C247.034 44.112 246.495 44.016 246.015 43.824C245.54 43.6267 245.135 43.3467 244.799 42.984C244.463 42.6213 244.204 42.184 244.023 41.672C243.847 41.16 243.759 40.584 243.759 39.944C243.759 39.3093 243.847 38.736 244.023 38.224C244.204 37.7067 244.463 37.2667 244.799 36.904C245.135 36.5413 245.54 36.2613 246.015 36.064C246.495 35.8667 247.034 35.768 247.631 35.768ZM247.631 43C248.431 43 249.028 42.7333 249.423 42.2C249.818 41.6613 250.015 40.912 250.015 39.952C250.015 38.9867 249.818 38.2347 249.423 37.696C249.028 37.1573 248.431 36.888 247.631 36.888C247.226 36.888 246.871 36.9573 246.567 37.096C246.268 37.2347 246.018 37.4347 245.815 37.696C245.618 37.9573 245.468 38.28 245.367 38.664C245.271 39.0427 245.223 39.472 245.223 39.952C245.223 40.912 245.42 41.6613 245.815 42.2C246.215 42.7333 246.82 43 247.631 43ZM259.253 37.336C259.21 37.3947 259.168 37.44 259.125 37.472C259.082 37.504 259.024 37.52 258.949 37.52C258.869 37.52 258.781 37.488 258.685 37.424C258.589 37.3547 258.469 37.28 258.325 37.2C258.186 37.12 258.013 37.048 257.805 36.984C257.602 36.9147 257.352 36.88 257.053 36.88C256.653 36.88 256.301 36.952 255.997 37.096C255.693 37.2347 255.437 37.4373 255.229 37.704C255.026 37.9707 254.872 38.2933 254.765 38.672C254.664 39.0507 254.613 39.4747 254.613 39.944C254.613 40.4347 254.669 40.872 254.781 41.256C254.893 41.6347 255.05 41.9547 255.253 42.216C255.461 42.472 255.709 42.6693 255.997 42.808C256.29 42.9413 256.618 43.008 256.981 43.008C257.328 43.008 257.613 42.968 257.837 42.888C258.061 42.8027 258.245 42.7093 258.389 42.608C258.538 42.5067 258.661 42.416 258.757 42.336C258.858 42.2507 258.957 42.208 259.053 42.208C259.17 42.208 259.261 42.2533 259.325 42.344L259.725 42.864C259.549 43.0827 259.349 43.2693 259.125 43.424C258.901 43.5787 258.658 43.7093 258.397 43.816C258.141 43.9173 257.872 43.992 257.589 44.04C257.306 44.088 257.018 44.112 256.725 44.112C256.218 44.112 255.746 44.0187 255.309 43.832C254.877 43.6453 254.501 43.376 254.181 43.024C253.861 42.6667 253.61 42.2293 253.429 41.712C253.248 41.1947 253.157 40.6053 253.157 39.944C253.157 39.3413 253.24 38.784 253.405 38.272C253.576 37.76 253.821 37.32 254.141 36.952C254.466 36.5787 254.864 36.288 255.333 36.08C255.808 35.872 256.352 35.768 256.965 35.768C257.536 35.768 258.037 35.8613 258.469 36.048C258.906 36.2293 259.293 36.488 259.629 36.824L259.253 37.336ZM263.078 35.896V44H261.654V35.896H263.078ZM263.382 33.352C263.382 33.4907 263.352 33.6213 263.294 33.744C263.24 33.8613 263.166 33.968 263.07 34.064C262.979 34.1547 262.87 34.2267 262.742 34.28C262.619 34.3333 262.488 34.36 262.35 34.36C262.211 34.36 262.08 34.3333 261.958 34.28C261.84 34.2267 261.736 34.1547 261.646 34.064C261.555 33.968 261.483 33.8613 261.43 33.744C261.376 33.6213 261.35 33.4907 261.35 33.352C261.35 33.2133 261.376 33.0827 261.43 32.96C261.483 32.832 261.555 32.7227 261.646 32.632C261.736 32.536 261.84 32.4613 261.958 32.408C262.08 32.3547 262.211 32.328 262.35 32.328C262.488 32.328 262.619 32.3547 262.742 32.408C262.87 32.4613 262.979 32.536 263.07 32.632C263.166 32.7227 263.24 32.832 263.294 32.96C263.352 33.0827 263.382 33.2133 263.382 33.352ZM267.081 37.072C267.257 36.8747 267.444 36.696 267.641 36.536C267.839 36.376 268.047 36.24 268.265 36.128C268.489 36.0107 268.724 35.9227 268.969 35.864C269.22 35.8 269.489 35.768 269.777 35.768C270.22 35.768 270.609 35.8427 270.945 35.992C271.287 36.136 271.569 36.344 271.793 36.616C272.023 36.8827 272.196 37.2053 272.313 37.584C272.431 37.9627 272.489 38.3813 272.489 38.84V44H271.057V38.84C271.057 38.2267 270.916 37.752 270.633 37.416C270.356 37.0747 269.932 36.904 269.361 36.904C268.94 36.904 268.545 37.0053 268.177 37.208C267.815 37.4107 267.479 37.6853 267.169 38.032V44H265.737V35.896H266.593C266.796 35.896 266.921 35.9947 266.969 36.192L267.081 37.072ZM279.371 40.352C278.715 40.3733 278.155 40.4267 277.691 40.512C277.233 40.592 276.857 40.6987 276.563 40.832C276.275 40.9653 276.065 41.1227 275.931 41.304C275.803 41.4853 275.739 41.688 275.739 41.912C275.739 42.1253 275.774 42.3093 275.843 42.464C275.913 42.6187 276.006 42.7467 276.123 42.848C276.246 42.944 276.387 43.016 276.547 43.064C276.713 43.1067 276.889 43.128 277.075 43.128C277.326 43.128 277.555 43.104 277.763 43.056C277.971 43.0027 278.166 42.928 278.347 42.832C278.534 42.736 278.71 42.6213 278.875 42.488C279.046 42.3547 279.211 42.2027 279.371 42.032V40.352ZM274.771 37.04C275.219 36.608 275.702 36.2853 276.219 36.072C276.737 35.8587 277.31 35.752 277.939 35.752C278.393 35.752 278.795 35.8267 279.147 35.976C279.499 36.1253 279.795 36.3333 280.035 36.6C280.275 36.8667 280.457 37.1893 280.579 37.568C280.702 37.9467 280.763 38.3627 280.763 38.816V44H280.131C279.993 44 279.886 43.9787 279.811 43.936C279.737 43.888 279.678 43.7973 279.635 43.664L279.475 42.896C279.262 43.0933 279.054 43.2693 278.851 43.424C278.649 43.5733 278.435 43.7013 278.211 43.808C277.987 43.9093 277.747 43.9867 277.491 44.04C277.241 44.0987 276.961 44.128 276.651 44.128C276.337 44.128 276.041 44.0853 275.763 44C275.486 43.9093 275.243 43.776 275.035 43.6C274.833 43.424 274.67 43.2027 274.547 42.936C274.43 42.664 274.371 42.344 274.371 41.976C274.371 41.656 274.459 41.3493 274.635 41.056C274.811 40.7573 275.097 40.4933 275.491 40.264C275.886 40.0347 276.401 39.848 277.035 39.704C277.67 39.5547 278.449 39.4693 279.371 39.448V38.816C279.371 38.1867 279.235 37.712 278.963 37.392C278.691 37.0667 278.294 36.904 277.771 36.904C277.419 36.904 277.123 36.9493 276.883 37.04C276.649 37.1253 276.443 37.224 276.267 37.336C276.097 37.4427 275.947 37.5413 275.819 37.632C275.697 37.7173 275.574 37.76 275.451 37.76C275.355 37.76 275.273 37.736 275.203 37.688C275.134 37.6347 275.075 37.5707 275.027 37.496L274.771 37.04Z" fill="#242E30"/>
<defs>
<filter id="filter0_d_8_65" x="0" y="0" width="390" height="81" filterUnits="userSpaceOnUse" color-interpolation-filters="sRGB">
<feFlood flood-opacity="0" result="BackgroundImageFix"/>
<feColorMatrix in="SourceAlpha" type="matrix" values="0 0 0 0 0 0 0 0 0 0 0 0 0 0 0 0 0 0 127 0" result="hardAlpha"/>
<feMorphology radius="1" operator="dilate" in="SourceAlpha" result="effect1_dropShadow_8_65"/>
<feOffset dy="2"/>
<feGaussianBlur stdDeviation="4.5"/>
<feComposite in2="hardAlpha" operator="out"/>
<feColorMatrix type="matrix" values="0 0 0 0 0 0 0 0 0 0 0 0 0 0 0 0 0 0 0.2 0"/>
<feBlend mode="normal" in2="BackgroundImageFix" result="effect1_dropShadow_8_65"/>
<feBlend mode="normal" in="SourceGraphic" in2="effect1_dropShadow_8_65" result="shape"/>
</filter>
</defs>
</svg>
